<svg width="10" height="25" viewBox="0 0 10 25" fill="none" xmlns="http://www.w3.org/2000/svg">
<path fill-rule="evenodd" clip-rule="evenodd" d="M2.11594 8.72415H0V12.8031H2.11594V24.9241H6.46254V12.8034H9.37931C9.37931 12.8034 9.65248 10.8476 9.78489 8.70911C9.40525 8.70911 6.47898 8.70911 6.47898 8.70911C6.47898 8.70911 6.47898 6.33613 6.47898 5.9202C6.47898 5.50336 6.95289 4.94266 7.42129 4.94266C7.88881 4.94266 8.87555 4.94266 9.78947 4.94266C9.78947 4.38731 9.78947 2.46846 9.78947 0.696289C8.56941 0.696289 7.18138 0.696289 6.56954 0.696289C2.0085 0.696007 2.11594 4.77897 2.11594 5.38845C2.11594 5.999 2.11594 8.72415 2.11594 8.72415Z" fill="#12153A"/>
</svg>
