<svg width="86" height="102" viewBox="0 0 86 102" fill="none" xmlns="http://www.w3.org/2000/svg">
<path fill-rule="evenodd" clip-rule="evenodd" d="M59.8881 35.8599C59.8881 35.8599 39.6825 42.6611 36.1893 59.957C36.1893 59.957 30.3256 39.6475 11.9999 35.8599C11.9999 35.8599 31.5209 29.7168 36.1893 12C36.1893 12 39.2541 21.8337 45.3495 27.752C50.2894 32.5483 59.8881 35.8599 59.8881 35.8599Z" fill="#CFE8FD"/>
<path fill-rule="evenodd" clip-rule="evenodd" d="M55.8881 34.8599C55.8881 34.8599 35.6825 41.6611 32.1893 58.957C32.1893 58.957 26.3256 38.6475 7.99988 34.8599C7.99988 34.8599 27.5209 28.7168 32.1893 11C32.1893 11 35.2541 20.8337 41.3495 26.752C46.2894 31.5483 55.8881 34.8599 55.8881 34.8599Z" stroke="#1A78F2" stroke-width="2" stroke-linecap="round" stroke-linejoin="round"/>
<path d="M46.5262 3.86475H52.2806" stroke="#BCC2C8" stroke-width="2" stroke-linecap="round" stroke-linejoin="round"/>
<path d="M49.4034 1V6.72973" stroke="#BCC2C8" stroke-width="2" stroke-linecap="round" stroke-linejoin="round"/>
<path d="M70.5262 27.8647H76.2806" stroke="#BCC2C8" stroke-width="2" stroke-linecap="round" stroke-linejoin="round"/>
<path d="M73.4034 25V30.7297" stroke="#BCC2C8" stroke-width="2" stroke-linecap="round" stroke-linejoin="round"/>
<path d="M49.5262 51.8647H55.2806" stroke="#BCC2C8" stroke-width="2" stroke-linecap="round" stroke-linejoin="round"/>
<path d="M52.4034 49V54.7297" stroke="#BCC2C8" stroke-width="2" stroke-linecap="round" stroke-linejoin="round"/>
<path fill-rule="evenodd" clip-rule="evenodd" d="M47.7987 90.6829C47.7987 90.6829 39.3601 93.5193 37.9012 100.732C37.9012 100.732 35.4522 92.2625 27.7987 90.6829C27.7987 90.6829 35.9514 88.121 37.9012 80.7324C37.9012 80.7324 39.1812 84.8335 41.7268 87.3016C43.7899 89.3019 47.7987 90.6829 47.7987 90.6829Z" stroke="#1A78F2" stroke-width="2" stroke-linecap="round" stroke-linejoin="round"/>
<path fill-rule="evenodd" clip-rule="evenodd" d="M13.167 80.8445H23.6833C25.0749 80.8445 26.1328 79.6544 25.5952 78.371C24.4607 75.6628 21.395 71.7 13.167 71.7C4.81772 71.7 2.04581 75.7805 1.12556 78.49C0.697576 79.7501 1.74704 80.8445 3.07785 80.8445H13.167Z" stroke="#1A78F2" stroke-width="2"/>
<ellipse cx="13.3492" cy="61.3" rx="6.3253" ry="6.3" stroke="#1A78F2" stroke-width="2"/>
<path fill-rule="evenodd" clip-rule="evenodd" d="M85.7987 66.6532C85.7987 66.6532 72.2969 71.1915 69.9627 82.7324C69.9627 82.7324 66.0444 69.1806 53.7987 66.6532C53.7987 66.6532 66.8431 62.5542 69.9627 50.7324C69.9627 50.7324 72.0106 57.2941 76.0837 61.2431C79.3847 64.4436 85.7987 66.6532 85.7987 66.6532Z" fill="#CFE8FD"/>
<path fill-rule="evenodd" clip-rule="evenodd" d="M82.7987 65.6532C82.7987 65.6532 69.2969 70.1915 66.9627 81.7324C66.9627 81.7324 63.0444 68.1806 50.7987 65.6532C50.7987 65.6532 63.8431 61.5542 66.9627 49.7324C66.9627 49.7324 69.0106 56.2941 73.0837 60.2431C76.3847 63.4436 82.7987 65.6532 82.7987 65.6532Z" stroke="#1A78F2" stroke-width="2" stroke-linecap="round" stroke-linejoin="round"/>
</svg>
