<svg width="83" height="98" viewBox="0 0 83 98" fill="none" xmlns="http://www.w3.org/2000/svg">
<path d="M33.5264 3.86475H39.2808" stroke="#BCC2C8" stroke-width="2" stroke-linecap="round" stroke-linejoin="round"/>
<path d="M36.4036 1V6.72973" stroke="#BCC2C8" stroke-width="2" stroke-linecap="round" stroke-linejoin="round"/>
<path d="M7.52637 15.8647H13.2808" stroke="#BCC2C8" stroke-width="2" stroke-linecap="round" stroke-linejoin="round"/>
<path d="M10.4036 13V18.7297" stroke="#BCC2C8" stroke-width="2" stroke-linecap="round" stroke-linejoin="round"/>
<path d="M74.5264 54.8647H80.2808" stroke="#BCC2C8" stroke-width="2" stroke-linecap="round" stroke-linejoin="round"/>
<path d="M77.4036 52V57.7297" stroke="#BCC2C8" stroke-width="2" stroke-linecap="round" stroke-linejoin="round"/>
<path d="M18.4193 30.547V21.8992" stroke="#1A78F2" stroke-width="2" stroke-linecap="round"/>
<path d="M49.7742 30.547V21.8992" stroke="#1A78F2" stroke-width="2" stroke-linecap="round"/>
<path d="M1 40.9243H66.1936" stroke="#1A78F2" stroke-width="2"/>
<path fill-rule="evenodd" clip-rule="evenodd" d="M21.3806 54.8472C21.3806 55.712 20.6838 56.4038 19.8128 56.4038H15.2838C14.4128 56.4038 13.7161 55.712 13.7161 54.8472V50.3503C13.7161 49.4855 14.4128 48.7937 15.2838 48.7937H19.8128C20.6838 48.7937 21.3806 49.4855 21.3806 50.3503V54.8472Z" fill="#CFE8FD"/>
<path fill-rule="evenodd" clip-rule="evenodd" d="M33.5742 50.3503C33.5742 49.4855 32.8774 48.7937 32.0064 48.7937H27.4774C26.6064 48.7937 25.9097 49.4855 25.9097 50.3503V54.8472C25.9097 55.712 26.6064 56.4038 27.4774 56.4038H32.0064C32.8774 56.4038 33.5742 55.712 33.5742 54.8472V50.3503Z" fill="#CFE8FD"/>
<path fill-rule="evenodd" clip-rule="evenodd" d="M45.7678 50.3503C45.7678 49.4855 45.071 48.7937 44.2 48.7937H39.671C38.8 48.7937 38.1033 49.4855 38.1033 50.3503V54.8472C38.1033 55.712 38.8 56.4038 39.671 56.4038H44.2C45.071 56.4038 45.7678 55.712 45.7678 54.8472V50.3503Z" fill="#CFE8FD"/>
<path fill-rule="evenodd" clip-rule="evenodd" d="M33.5742 61.5925C33.5742 60.7277 32.8774 60.0359 32.0064 60.0359H27.4774C26.6064 60.0359 25.9097 60.7277 25.9097 61.5925V66.0894C25.9097 66.9542 26.6064 67.646 27.4774 67.646H32.0064C32.8774 67.646 33.5742 66.9542 33.5742 66.0894V61.5925Z" fill="#CFE8FD"/>
<path fill-rule="evenodd" clip-rule="evenodd" d="M45.7678 61.5925C45.7678 60.7277 45.071 60.0359 44.2 60.0359H39.671C38.8 60.0359 38.1033 60.7277 38.1033 61.5925V66.0894C38.1033 66.9542 38.8 67.646 39.671 67.646H44.2C45.071 67.646 45.7678 66.9542 45.7678 66.0894V61.5925Z" fill="#CFE8FD"/>
<path fill-rule="evenodd" clip-rule="evenodd" d="M57.9611 66.0894V61.5925C57.9611 60.7277 57.2644 60.0359 56.3934 60.0359H51.8644C50.9934 60.0359 50.2966 60.7277 50.2966 61.5925V66.0894C50.2966 66.9542 50.9934 67.646 51.8644 67.646H56.3934C57.1773 67.7325 57.9611 66.9542 57.9611 66.0894Z" fill="#CFE8FD"/>
<path fill-rule="evenodd" clip-rule="evenodd" d="M19.8128 60.0359H15.2838C14.4128 60.0359 13.7161 60.7277 13.7161 61.5925V66.0894C13.7161 66.9542 14.4128 67.646 15.2838 67.646H19.8128C20.6838 67.646 21.3806 66.9542 21.3806 66.0894V61.5925C21.3806 60.8142 20.6838 60.0359 19.8128 60.0359Z" fill="#CFE8FD"/>
<path fill-rule="evenodd" clip-rule="evenodd" d="M44.2 72.1428H39.671C38.8 72.1428 38.1033 72.8346 38.1033 73.6994V78.1963C38.1033 79.0611 38.8 79.7529 39.671 79.7529H44.2C45.071 79.7529 45.7678 79.0611 45.7678 78.1963V73.6994C45.7678 72.8346 45.071 72.1428 44.2 72.1428Z" fill="#CFE8FD"/>
<path fill-rule="evenodd" clip-rule="evenodd" d="M32.0064 72.1428H27.4774C26.6064 72.1428 25.9097 72.8346 25.9097 73.6994V78.1963C25.9097 79.0611 26.6064 79.7529 27.4774 79.7529H32.0064C32.8774 79.7529 33.5742 79.0611 33.5742 78.1963V73.6994C33.5742 72.8346 32.8774 72.1428 32.0064 72.1428Z" fill="#CFE8FD"/>
<path fill-rule="evenodd" clip-rule="evenodd" d="M19.6386 53.1177C19.6386 53.9825 18.9419 54.6743 18.0709 54.6743H13.5419C12.6709 54.6743 11.9741 53.9825 11.9741 53.1177V48.6208C11.9741 47.756 12.6709 47.0642 13.5419 47.0642H18.0709C18.9419 47.0642 19.6386 47.756 19.6386 48.6208V53.1177Z" stroke="#1A78F2" stroke-width="2"/>
<path fill-rule="evenodd" clip-rule="evenodd" d="M31.8322 48.6208C31.8322 47.756 31.1355 47.0642 30.2645 47.0642H25.7355C24.8645 47.0642 24.1677 47.756 24.1677 48.6208V53.1177C24.1677 53.9825 24.8645 54.6743 25.7355 54.6743H30.2645C31.1355 54.6743 31.8322 53.9825 31.8322 53.1177V48.6208Z" stroke="#1A78F2" stroke-width="2"/>
<path fill-rule="evenodd" clip-rule="evenodd" d="M44.0258 48.6208C44.0258 47.756 43.3291 47.0642 42.4581 47.0642H37.9291C37.0581 47.0642 36.3613 47.756 36.3613 48.6208V53.1177C36.3613 53.9825 37.0581 54.6743 37.9291 54.6743H42.4581C43.3291 54.6743 44.0258 53.9825 44.0258 53.1177V48.6208Z" stroke="#1A78F2" stroke-width="2"/>
<path fill-rule="evenodd" clip-rule="evenodd" d="M31.8322 59.863C31.8322 58.9982 31.1355 58.3064 30.2645 58.3064H25.7355C24.8645 58.3064 24.1677 58.9982 24.1677 59.863V64.3599C24.1677 65.2247 24.8645 65.9165 25.7355 65.9165H30.2645C31.1355 65.9165 31.8322 65.2247 31.8322 64.3599V59.863Z" stroke="#1A78F2" stroke-width="2"/>
<path fill-rule="evenodd" clip-rule="evenodd" d="M44.0258 59.863C44.0258 58.9982 43.3291 58.3064 42.4581 58.3064H37.9291C37.0581 58.3064 36.3613 58.9982 36.3613 59.863V64.3599C36.3613 65.2247 37.0581 65.9165 37.9291 65.9165H42.4581C43.3291 65.9165 44.0258 65.2247 44.0258 64.3599V59.863Z" stroke="#1A78F2" stroke-width="2"/>
<path fill-rule="evenodd" clip-rule="evenodd" d="M56.2192 64.3599V59.863C56.2192 58.9982 55.5224 58.3064 54.6515 58.3064H50.1224C49.2515 58.3064 48.5547 58.9982 48.5547 59.863V64.3599C48.5547 65.2247 49.2515 65.9165 50.1224 65.9165H54.6515C55.4353 66.003 56.2192 65.2247 56.2192 64.3599Z" stroke="#1A78F2" stroke-width="2"/>
<path fill-rule="evenodd" clip-rule="evenodd" d="M18.0709 58.3064H13.5419C12.6709 58.3064 11.9741 58.9982 11.9741 59.863V64.3599C11.9741 65.2247 12.6709 65.9165 13.5419 65.9165H18.0709C18.9419 65.9165 19.6386 65.2247 19.6386 64.3599V59.863C19.6386 59.0847 18.9419 58.3064 18.0709 58.3064Z" stroke="#1A78F2" stroke-width="2"/>
<path fill-rule="evenodd" clip-rule="evenodd" d="M42.4581 70.4133H37.9291C37.0581 70.4133 36.3613 71.1052 36.3613 71.9699V76.4668C36.3613 77.3316 37.0581 78.0234 37.9291 78.0234H42.4581C43.3291 78.0234 44.0258 77.3316 44.0258 76.4668V71.9699C44.0258 71.1052 43.3291 70.4133 42.4581 70.4133Z" stroke="#1A78F2" stroke-width="2"/>
<path fill-rule="evenodd" clip-rule="evenodd" d="M30.2645 70.4133H25.7355C24.8645 70.4133 24.1677 71.1052 24.1677 71.9699V76.4668C24.1677 77.3316 24.8645 78.0234 25.7355 78.0234H30.2645C31.1355 78.0234 31.8322 77.3316 31.8322 76.4668V71.9699C31.8322 71.1052 31.1355 70.4133 30.2645 70.4133Z" stroke="#1A78F2" stroke-width="2"/>
<ellipse cx="66.8871" cy="82.0014" rx="16.1129" ry="15.9985" fill="#CFE8FD"/>
<ellipse cx="64.1451" cy="80.2719" rx="16.1129" ry="15.9985" stroke="#1A78F2" stroke-width="2"/>
<path d="M60.7703 80.054L63.4597 83.66L70.4947 77.5229" stroke="#1A78F2" stroke-width="2" stroke-linecap="round" stroke-linejoin="round"/>
<path d="M16 26H8C4.13401 26 1 29.134 1 33V78C1 81.866 4.13401 85 8 85H42" stroke="#1A78F2" stroke-width="2" stroke-linecap="round"/>
<path d="M53 26H59C62.866 26 66 29.134 66 33V58" stroke="#1A78F2" stroke-width="2" stroke-linecap="round"/>
</svg>
