<svg width="84" height="108" viewBox="0 0 84 108" fill="none" xmlns="http://www.w3.org/2000/svg">
<path fill-rule="evenodd" clip-rule="evenodd" d="M6.75427 39.2847C6.75427 39.2847 9.76844 25.6535 22.5005 27.1227C22.5005 27.1227 24.5559 18.1892 32.2764 18.1892C39.9969 18.1892 41.9985 27.9011 38.912 31.215C38.912 31.215 43.9629 33.8431 45.0358 39.7691H31.6256V52.6426C31.6256 54.142 30.4656 55.3859 28.9699 55.4904C27.3189 55.6058 25.9161 54.2976 25.9161 52.6426V49.8205C25.9161 48.2545 24.6467 46.9851 23.0807 46.9851C21.5148 46.9851 20.2453 48.2545 20.2453 49.8205V59.4867C20.2453 61.0816 18.9796 62.3888 17.3854 62.4401C15.717 62.4938 14.3354 61.1559 14.3354 59.4867V39.2847H6.75427Z" fill="#CFE8FD"/>
<path fill-rule="evenodd" clip-rule="evenodd" d="M38.994 91.7643C37.9063 91.0187 37.2375 91.1221 36.5004 91.7643C35.0212 93.0531 34.0876 94.943 34.0876 97.0491C34.0876 100.933 37.262 104.081 41.1779 104.081C43.3694 104.081 45.3287 103.095 46.6293 101.546C46.6293 101.546 47.94 106.623 52.4371 106.623C55.9962 106.623 58.0384 104.52 58.7355 101.97C58.7867 101.782 61.0871 103.031 63.2315 102.763C64.0448 102.662 65.0271 101.896 65.8681 101.075C66.7116 100.252 66.0787 98.9333 64.9002 98.9333C61.5957 98.9333 56.5077 98.9333 55.7607 98.9333C55.7607 98.9333 42.4625 99.2255 40.0466 98.5677C37.6308 97.9099 40.0817 92.5099 38.994 91.7643Z" fill="#CFE8FD"/>
<path fill-rule="evenodd" clip-rule="evenodd" d="M1.43848 15.3242C1.43848 14.7719 1.88619 14.3242 2.43848 14.3242H8.19286C8.74515 14.3242 9.19286 14.7719 9.19286 15.3242C9.19286 15.8765 8.74515 16.3242 8.19286 16.3242H2.43848C1.88619 16.3242 1.43848 15.8765 1.43848 15.3242Z" fill="#BCC2C8"/>
<path fill-rule="evenodd" clip-rule="evenodd" d="M5.31567 11.4595C5.86796 11.4595 6.31567 11.9072 6.31567 12.4595V18.1892C6.31567 18.7415 5.86796 19.1892 5.31567 19.1892C4.76339 19.1892 4.31567 18.7415 4.31567 18.1892V12.4595C4.31567 11.9072 4.76339 11.4595 5.31567 11.4595Z" fill="#BCC2C8"/>
<path fill-rule="evenodd" clip-rule="evenodd" d="M76.2455 42.5405C76.2455 41.9882 76.6932 41.5405 77.2455 41.5405H82.9999C83.5522 41.5405 83.9999 41.9882 83.9999 42.5405C83.9999 43.0928 83.5522 43.5405 82.9999 43.5405H77.2455C76.6932 43.5405 76.2455 43.0928 76.2455 42.5405Z" fill="#BCC2C8"/>
<path fill-rule="evenodd" clip-rule="evenodd" d="M80.1227 38.6758C80.675 38.6758 81.1227 39.1235 81.1227 39.6758V45.4055C81.1227 45.9578 80.675 46.4055 80.1227 46.4055C79.5704 46.4055 79.1227 45.9578 79.1227 45.4055V39.6758C79.1227 39.1235 79.5704 38.6758 80.1227 38.6758Z" fill="#BCC2C8"/>
<path fill-rule="evenodd" clip-rule="evenodd" d="M34.5262 3.86475C34.5262 3.31246 34.974 2.86475 35.5262 2.86475H41.2806C41.8329 2.86475 42.2806 3.31246 42.2806 3.86475C42.2806 4.41703 41.8329 4.86475 41.2806 4.86475H35.5262C34.974 4.86475 34.5262 4.41703 34.5262 3.86475Z" fill="#BCC2C8"/>
<path fill-rule="evenodd" clip-rule="evenodd" d="M38.4034 0C38.9557 0 39.4034 0.447715 39.4034 1V6.72973C39.4034 7.28201 38.9557 7.72973 38.4034 7.72973C37.8512 7.72973 37.4034 7.28201 37.4034 6.72973V1C37.4034 0.447715 37.8512 0 38.4034 0Z" fill="#BCC2C8"/>
<path fill-rule="evenodd" clip-rule="evenodd" d="M-0.00012207 36.8108C-0.00012207 36.2585 0.447593 35.8108 0.999878 35.8108H11.0701C11.6223 35.8108 12.0701 36.2585 12.0701 36.8108V56.8648C12.0701 57.8907 12.9064 58.7297 13.9472 58.7297C14.988 58.7297 15.8244 57.8907 15.8244 56.8648V46.8378C15.8244 44.6993 17.5644 42.973 19.7016 42.973C21.8389 42.973 23.5788 44.6993 23.5788 46.8378V49.7027C23.5788 50.7286 24.4152 51.5675 25.456 51.5675C26.4968 51.5675 27.3332 50.7286 27.3332 49.7027V36.8108C27.3332 36.2585 27.7809 35.8108 28.3332 35.8108H52.7894C53.3416 35.8108 53.7894 36.2585 53.7894 36.8108V42.5405C53.7894 43.0928 53.3416 43.5405 52.7894 43.5405H29.3332V49.7027C29.3332 51.8412 27.5933 53.5675 25.456 53.5675C23.3188 53.5675 21.5788 51.8412 21.5788 49.7027V46.8378C21.5788 45.8119 20.7424 44.973 19.7016 44.973C18.6608 44.973 17.8244 45.8119 17.8244 46.8378V56.8648C17.8244 59.0034 16.0845 60.7297 13.9472 60.7297C11.81 60.7297 10.0701 59.0034 10.0701 56.8648V43.5405H0.999878C0.447593 43.5405 -0.00012207 43.0928 -0.00012207 42.5405V36.8108ZM10.0701 41.5405V37.8108H1.99988V41.5405H10.0701ZM29.3332 41.5405H51.7894V37.8108H29.3332V41.5405Z" fill="#1A78F2"/>
<path fill-rule="evenodd" clip-rule="evenodd" d="M25.2437 14.8311C29.1514 13.5127 33.4699 14.8199 35.98 18.085C38.2439 21.0297 38.5816 24.9754 36.9395 28.2272C40.1769 29.8303 42.2777 33.1374 42.2806 36.8099C42.2811 37.3622 41.8337 37.8103 41.2814 37.8107C40.7292 37.8111 40.2811 37.3638 40.2806 36.8115C40.278 33.5896 38.2322 30.7171 35.1726 29.6502C34.8797 29.5482 34.6509 29.316 34.5529 29.0218C34.455 28.7275 34.4992 28.4045 34.6724 28.1473C36.4928 25.4448 36.3812 21.8883 34.3944 19.304C32.4069 16.7187 28.9834 15.6802 25.883 16.7261C22.7835 17.7718 20.7016 20.6663 20.7017 23.9188C20.7017 23.9398 20.7029 23.9675 20.7064 24.0193C20.7069 24.0266 20.7075 24.035 20.7081 24.0442C20.7113 24.0887 20.7158 24.1533 20.7182 24.2154C20.7302 24.5269 20.5963 24.8262 20.3561 25.0248C20.1158 25.2234 19.7967 25.2986 19.493 25.2281C15.9463 24.4056 12.2169 25.2432 9.36891 27.5006C6.52114 29.7578 4.86741 33.1864 4.87712 36.808C4.8786 37.3603 4.43209 37.8092 3.8798 37.8107C3.32752 37.8122 2.87861 37.3657 2.87712 36.8134C2.86577 32.5773 4.8002 28.5698 8.12658 25.9333C11.1314 23.5516 14.9744 22.5242 18.7405 23.0557C19.0794 19.2998 21.6109 16.0567 25.2437 14.8311Z" fill="#1A78F2"/>
<path fill-rule="evenodd" clip-rule="evenodd" d="M18.7804 24.0266C18.9044 23.4884 19.4413 23.1527 19.9795 23.2767C22.0334 23.7501 23.9524 24.6833 25.5907 26.0056C26.0204 26.3525 26.0876 26.9821 25.7407 27.4118C25.3939 27.8416 24.7643 27.9088 24.3345 27.5619C22.9324 26.4302 21.2894 25.6311 19.5303 25.2257C18.9921 25.1016 18.6564 24.5648 18.7804 24.0266Z" fill="#1A78F2"/>
<path fill-rule="evenodd" clip-rule="evenodd" d="M3.81031 41.5428C4.36136 41.5059 4.83798 41.9227 4.87488 42.4738L7.39427 80.1028C7.56047 82.585 9.62242 84.5135 12.1103 84.5135H41.2806C41.8329 84.5135 42.2806 84.9613 42.2806 85.5135C42.2806 86.0658 41.8329 86.5135 41.2806 86.5135H12.1103C8.56971 86.5135 5.63526 83.769 5.39874 80.2364L2.87935 42.6074C2.84245 42.0563 3.25926 41.5797 3.81031 41.5428Z" fill="#1A78F2"/>
<path fill-rule="evenodd" clip-rule="evenodd" d="M49.983 41.5431C50.5339 41.5822 50.9488 42.0605 50.9097 42.6114L49.0282 69.095C48.989 69.6459 48.5107 70.0608 47.9598 70.0216C47.4089 69.9825 46.9941 69.5042 47.0332 68.9533L48.9147 42.4697C48.9538 41.9188 49.4321 41.5039 49.983 41.5431Z" fill="#1A78F2"/>
<path fill-rule="evenodd" clip-rule="evenodd" d="M41.9013 94.6836C42.0886 94.9498 42.3937 95.1082 42.7191 95.1082H82.9998C83.3253 95.1082 83.6303 94.9498 83.8176 94.6836C84.0049 94.4175 84.051 94.0769 83.9411 93.7705L78.4488 78.4579C77.2861 75.2164 74.2133 73.0541 70.7696 73.0541H54.9493C51.5056 73.0541 48.4328 75.2164 47.2702 78.4579L41.7778 93.7705C41.668 94.0769 41.714 94.4175 41.9013 94.6836ZM44.1402 93.1082L49.1527 79.1332C50.0304 76.6863 52.3499 75.0541 54.9493 75.0541H70.7696C73.3691 75.0541 75.6886 76.6863 76.5662 79.1332L81.5788 93.1082H44.1402Z" fill="#1A78F2"/>
<path fill-rule="evenodd" clip-rule="evenodd" d="M71.0525 69.7551C71.0525 67.6215 69.3228 65.8918 67.1892 65.8918H58.5298C56.3962 65.8918 54.6665 67.6215 54.6665 69.7551V74.054C54.6665 74.6063 55.1142 75.054 55.6665 75.054H70.0525C70.6048 75.054 71.0525 74.6063 71.0525 74.054V69.7551ZM67.1892 67.8918C68.2183 67.8918 69.0525 68.7261 69.0525 69.7551V73.054H56.6665V69.7551C56.6665 68.7261 57.5007 67.8918 58.5298 67.8918H67.1892Z" fill="#1A78F2"/>
<path fill-rule="evenodd" clip-rule="evenodd" d="M73.2472 95.0564C73.7709 94.8811 74.0533 94.3144 73.878 93.7907L71.0008 85.1961C70.8255 84.6724 70.2588 84.3899 69.7351 84.5653C69.2113 84.7406 68.9289 85.3073 69.1042 85.831L71.9814 94.4256C72.1568 94.9493 72.7234 95.2317 73.2472 95.0564Z" fill="#1A78F2"/>
<path fill-rule="evenodd" clip-rule="evenodd" d="M62.8595 95.1082C63.4118 95.1082 63.8595 94.6604 63.8595 94.1082V86.946C63.8595 86.3937 63.4118 85.946 62.8595 85.946C62.3072 85.946 61.8595 86.3937 61.8595 86.946V94.1082C61.8595 94.6604 62.3072 95.1082 62.8595 95.1082Z" fill="#1A78F2"/>
<path fill-rule="evenodd" clip-rule="evenodd" d="M52.4719 95.0564C52.9956 95.2317 53.5623 94.9493 53.7376 94.4256L56.6148 85.831C56.7901 85.3073 56.5077 84.7406 55.984 84.5653C55.4603 84.3899 54.8936 84.6724 54.7183 85.1961L51.8411 93.7907C51.6657 94.3144 51.9482 94.8811 52.4719 95.0564Z" fill="#1A78F2"/>
<path fill-rule="evenodd" clip-rule="evenodd" d="M58.9823 13.9043C58.9823 11.763 60.7182 10.0271 62.8595 10.0271C65.0008 10.0271 66.7367 11.763 66.7367 13.9043V67.892H58.9823V13.9043ZM62.8595 12.0271C61.8227 12.0271 60.9823 12.8675 60.9823 13.9043V65.892H64.7367V13.9043C64.7367 12.8675 63.8962 12.0271 62.8595 12.0271Z" fill="#1A78F2"/>
<path fill-rule="evenodd" clip-rule="evenodd" d="M37.1487 89.8321C37.3114 90.3598 37.0155 90.9196 36.4877 91.0823C34.004 91.8482 32.2104 94.1428 32.2104 96.8428C32.2104 100.166 34.9293 102.875 38.3007 102.875C40.1859 102.875 41.8686 102.028 42.9862 100.696C43.227 100.41 43.6079 100.281 43.9731 100.364C44.3375 100.447 44.6254 100.726 44.7197 101.087C44.7199 101.088 44.7201 101.089 44.7203 101.089L43.7521 101.339C44.7203 101.089 44.7202 101.089 44.7202 101.089L44.72 101.088L44.7208 101.091L44.7289 101.12C44.737 101.148 44.7502 101.193 44.7692 101.252C44.8072 101.37 44.8677 101.545 44.9538 101.757C45.1271 102.184 45.3982 102.747 45.7884 103.304C46.568 104.416 47.7517 105.417 49.5599 105.417C51.5358 105.417 52.8945 104.691 53.7733 103.666C54.6718 102.617 55.1324 101.178 55.1324 99.6831C55.1324 99.1308 55.5801 98.6831 56.1324 98.6831C56.6847 98.6831 57.1324 99.1308 57.1324 99.6831C57.1324 101.565 56.5554 103.493 55.292 104.967C54.0088 106.464 52.0813 107.417 49.5599 107.417C46.871 107.417 45.1508 105.879 44.1507 104.452C43.8227 103.984 43.5644 103.519 43.3655 103.106C41.9789 104.213 40.2169 104.875 38.3007 104.875C33.8404 104.875 30.2104 101.286 30.2104 96.8428C30.2104 93.2313 32.6089 90.1854 35.8984 89.1711C36.4262 89.0084 36.9859 89.3043 37.1487 89.8321Z" fill="#1A78F2"/>
<path fill-rule="evenodd" clip-rule="evenodd" d="M64.6014 99.9175C65.0271 100.269 65.0869 100.9 64.735 101.325C63.0427 103.373 60.6384 103.76 58.8183 103.692C57.8976 103.657 57.0806 103.506 56.4958 103.365C56.202 103.295 55.9631 103.226 55.7948 103.173C55.7105 103.147 55.6436 103.125 55.5961 103.108C55.5723 103.1 55.5533 103.094 55.5394 103.089L55.5223 103.082L55.5167 103.08L55.5146 103.08C55.5142 103.079 55.513 103.079 55.8596 102.141L55.513 103.079C54.9949 102.888 54.7302 102.312 54.9217 101.794C55.113 101.277 55.6878 101.012 56.2057 101.203L56.2047 101.202L56.2104 101.205L56.2434 101.216C56.2746 101.227 56.3241 101.243 56.39 101.264C56.5218 101.305 56.7181 101.362 56.9641 101.421C57.4588 101.54 58.1398 101.665 58.8932 101.693C60.4212 101.75 62.0693 101.411 63.1935 100.051C63.5454 99.6255 64.1757 99.5656 64.6014 99.9175Z" fill="#1A78F2"/>
</svg>
