<svg width="132" height="167" viewBox="0 0 132 167" fill="none" xmlns="http://www.w3.org/2000/svg">
<path fill-rule="evenodd" clip-rule="evenodd" d="M61.7202 63.5022L61.8693 68.4233C61.8693 68.4233 66.9532 68.1271 67.2757 67.9325C67.5983 67.7379 70.117 66.5151 70.8542 66.5151C71.5913 66.5151 72.7375 65.5092 72.7375 65.5092V60.8699L61.7202 63.5022Z" fill="#826E65"/>
<path fill-rule="evenodd" clip-rule="evenodd" d="M59.488 50.7232C59.488 50.7232 59.4538 49.8691 60.1873 49.617C60.9207 49.3649 61.2125 48.1627 61.8688 47.1472C62.525 46.1318 63.7874 44.7994 64.5466 44.405C65.3057 44.0107 68.2184 43.1555 71.4167 44.6663C74.6149 46.1771 75.304 47.9579 75.304 49.5452C75.304 51.1325 75.2016 53.4932 75.6424 54.1518C76.0832 54.8104 75.6424 55.4289 75.6424 55.4289C75.6424 55.4289 75.3462 53.9741 74.6651 53.2985C73.984 52.6228 70.9196 50.2314 66.4765 49.8026C62.0334 49.3737 60.3044 49.8026 60.3044 49.8026C60.3044 49.8026 59.7233 50.3418 59.7233 50.9483C59.7233 52.183 60.2046 53.3029 60.1873 53.7484C60.155 54.5749 60.2419 55.1495 60.1873 55.2111C60.1139 55.2938 59.7786 54.749 59.6284 53.4916C59.5451 52.7944 59.488 50.7232 59.488 50.7232Z" fill="#4993F3"/>
<path fill-rule="evenodd" clip-rule="evenodd" d="M64.5607 44.5031V46.0456C64.5607 46.3992 64.7474 46.7273 65.0706 46.8708C65.5891 47.1008 66.4414 47.4035 67.3366 47.4035C68.2916 47.4035 69.0037 47.0055 69.3764 46.736C69.5749 46.5924 69.6752 46.3587 69.6867 46.114L69.7575 44.6031L64.5607 44.5031Z" fill="#4B76AE"/>
<path fill-rule="evenodd" clip-rule="evenodd" d="M64.0153 49.6735C64.0153 49.6735 61.4149 50.2245 61.1196 51.7778C60.8243 53.331 60.7816 55.4886 60.6181 55.7979C60.4546 56.1072 60.2276 55.2726 59.9443 55.7979C59.661 56.3232 59.9443 58.0077 59.9443 58.7494C59.9443 59.4911 60.4386 60.0692 60.6181 60.0692C60.6181 60.0692 61.7864 64.1119 62.4628 65.0785C63.1392 66.0452 65.7646 66.8265 67.3237 66.5018C68.8828 66.1771 72.3219 62.9189 72.7618 60.8342C72.7618 60.8342 73.6254 61.2439 73.9434 60.2087C74.2615 59.1734 74.3899 59.0562 74.8834 58.7494C75.377 58.4426 75.4469 57.8356 75.412 57.6283C75.377 57.4211 74.6627 55.7979 74.6627 55.7979L73.6143 52.4118C73.6143 52.4118 70.4491 50.5682 68.8091 50.1004C67.1691 49.6325 64.0153 49.6735 64.0153 49.6735Z" fill="#AD8979"/>
<path fill-rule="evenodd" clip-rule="evenodd" d="M65.842 59.2102C65.842 59.2102 65.5384 58.7195 64.9968 58.8831C64.4552 59.0466 63.9509 59.6278 63.6545 59.6278C63.3581 59.6278 62.6071 60.3074 62.8145 60.8499C63.0219 61.3923 63.3143 61.1023 63.6545 60.8499C63.9948 60.5974 64.252 60.2236 64.7027 59.9997C65.1534 59.7758 65.4288 59.9997 65.842 59.9997C66.2552 59.9997 66.9925 59.7141 67.2215 59.9997C67.4504 60.2853 67.828 60.8499 68.1252 60.8499C68.4224 60.8499 69.236 59.9997 69.236 59.9997C69.236 59.9997 68.0395 59.8394 67.7619 59.6278C67.4844 59.4161 67.0415 58.6343 66.4103 59.0519C66.2902 59.1313 66.257 59.1675 66.1745 59.2102C65.9683 59.317 65.842 59.2102 65.842 59.2102Z" fill="#251D19"/>
<ellipse cx="67.1641" cy="44.4794" rx="2.59229" ry="1.47283" fill="#7AB3FC"/>
<path fill-rule="evenodd" clip-rule="evenodd" d="M69.781 50.4476C69.781 50.4476 74.1542 53.3971 74.692 55.9154L75.5661 55.4816C75.5661 55.4816 75.7967 53.8606 73.5969 52.4065C71.3971 50.9524 69.781 50.4476 69.781 50.4476Z" fill="#484D48"/>
<path fill-rule="evenodd" clip-rule="evenodd" d="M73.532 52.3695L72.5019 57.6244C72.5019 57.6244 71.3906 64.6615 67.3776 66.4919C67.3776 66.4919 69.918 65.6791 71.3409 63.2103C72.7639 60.7414 73.6837 53.8225 74.0352 52.7225L73.532 52.3695Z" fill="#131720"/>
<path fill-rule="evenodd" clip-rule="evenodd" d="M17.9158 143.361C17.9158 143.361 19.897 139.24 23.3397 137.221C24.8303 136.347 26.5817 135.804 28.3321 136.281C29.9205 136.714 30.4096 138.275 30.4096 138.275C30.4096 138.275 30.494 130.002 31.0056 128.969C31.5172 127.937 32.0977 117.655 32.0977 117.655C32.0977 117.655 38.9475 108.327 44.9395 108.327C50.9314 108.327 49.1045 114.239 53.6507 115.205C58.1969 116.172 64.3554 112.881 66.9035 110.984C69.4516 109.088 73.341 107.81 73.341 105.843C73.341 103.876 74.4604 93.4011 67.7274 89.4765C60.9945 85.5519 37.5593 99.662 37.5593 99.662C37.5593 99.662 26.7708 106.47 24.4731 109.401C22.1754 112.331 18.2819 115.469 18.2819 117.655C18.2819 118.25 17.9936 121.125 17.9158 123.971C17.8632 125.891 17.7317 129.037 17.5583 131.558C17.4402 133.276 17.2612 134.407 17.2368 135.828C17.2147 137.12 17.527 137.909 17.5583 138.891C17.5803 139.576 17.4357 140.34 17.4393 140.898C17.4496 142.489 17.9158 143.361 17.9158 143.361Z" fill="#304D63"/>
<path fill-rule="evenodd" clip-rule="evenodd" d="M30.9522 118.439C30.9522 118.439 28.8059 114.761 29.8791 110.398C30.9522 106.034 35.2765 103.016 38.8863 102.573C42.496 102.131 49.1673 101.24 55.3272 105.644C61.4872 110.048 58.7851 118.439 58.7851 118.439H30.9522Z" fill="#DEDDDA"/>
<path fill-rule="evenodd" clip-rule="evenodd" d="M33.1273 135.833C33.1273 135.833 30.7232 117.758 30.7232 115.481C30.7232 113.203 30.5377 107.7 36.2719 105.771C42.006 103.842 51.1615 103.664 56.2356 109.078C58.3125 111.294 58.6461 112.936 58.8228 114.705C58.934 115.817 58.8228 118.127 58.8228 118.127L58.1964 137.247L33.1273 135.833Z" fill="#F7F6F0"/>
<ellipse cx="45.6526" cy="136.62" rx="12.6506" ry="8.85233" fill="#E1E0D9"/>
<ellipse cx="45.8079" cy="136.869" rx="8.68769" ry="6.10495" fill="#E6E4DC"/>
<path fill-rule="evenodd" clip-rule="evenodd" d="M60.9495 61.1941C60.9495 61.1941 60.5358 61.1496 60.5358 61.593C60.5358 61.7656 60.4819 61.9895 60.5358 62.2373C60.592 62.4959 60.7547 62.6353 60.8249 62.7912C61.0009 63.1819 61.0696 63.3048 61.3754 63.3048C61.474 63.3048 61.6124 63.1999 61.6124 63.1999L60.9495 61.1941Z" fill="#484D48"/>
<path fill-rule="evenodd" clip-rule="evenodd" d="M61.8589 67.9633C61.8589 67.9633 56.4534 70.3799 55.1457 71.3057C53.8381 72.2315 49.6831 73.7778 48.9497 74.5798C48.2162 75.3818 45.4789 80.5061 44.4606 81.5255C43.4422 82.545 43.2687 84.033 42.9207 84.033C42.5727 84.033 41.3097 85.8296 40.7606 86.1762C40.3878 86.4115 39.3448 86.5976 38.8114 87.1951C38.5591 87.4778 38.4198 87.8527 38.5216 88.3682C38.6715 89.1275 38.0199 89.0081 37.7863 89.0081C37.5526 89.0081 36.5982 89.1853 36.5982 89.7813C36.5982 90.3772 35.1655 90.0869 34.9824 90.1653C34.7993 90.2437 28.0153 95.2652 28.0153 95.2652C28.0153 95.2652 28.783 96.5899 29.5209 96.5899C29.5209 96.5899 29.6061 98.1467 32.5745 98.8569C35.543 99.5671 36.8455 99.8911 37.4959 99.47C38.1464 99.0488 59.528 86.1762 59.528 86.1762L66.0567 91.0493C66.0567 91.0493 75.4452 90.6352 77.9054 89.7813C83.4547 87.8551 83.3274 84.9696 82.9865 84.6737C82.2485 84.033 82.2439 83.4065 82.6152 83.1471C82.9865 82.8878 84.099 82.2682 83.4664 81.1151C83.4664 81.1151 84.0792 80.4538 83.7728 79.7325C83.7728 79.7325 85.481 79.8545 85.855 79.1972C86.229 78.54 88.6236 76.2056 91.0208 74.8251C93.4181 73.4446 93.4645 71.9931 93.8507 71.3057C94.2369 70.6183 96.1211 69.0052 95.4752 65.5159C95.4752 65.5159 96.9956 62.5924 97.168 61.6244C97.3403 60.6565 98.5048 58.4915 98.5048 58.0006C98.5048 57.5097 98.9074 54.8223 98.9074 54.1788C98.9074 53.5354 99.4786 50.9086 98.7182 50.3679C98.7182 50.3679 98.462 53.8209 94.6454 53.3335C90.8287 52.8461 91.2876 50.4287 91.5227 50.0189C91.7578 49.6092 92.2193 48.7064 92.2193 48.7064C92.2193 48.7064 91.1568 49.0208 90.6084 50.3679C90.06 51.715 89.6669 53.1637 89.4404 53.8683C89.214 54.5728 87.8196 56.6883 87.5258 57.7487C87.232 58.8091 86.1528 60.5564 86.1528 61.2804C86.1528 61.2804 84.3099 62.5704 83.7728 62.9686C83.7728 62.9686 81.3884 62.7903 79.1639 64.5504C79.1639 64.5504 77.0689 64.929 76.373 65.9662L75.0645 66.4663L72.7199 65.5159L61.8589 67.9633Z" fill="#4993F3"/>
<path fill-rule="evenodd" clip-rule="evenodd" d="M35.1854 91.3969C35.1854 91.3969 34.7519 90.6695 35.1854 90.6695C35.6188 90.6695 36.786 91.3901 36.786 91.7249C36.786 92.0596 37.0821 92.7295 37.0821 92.9725C37.0821 93.2155 36.8121 95.374 36.4542 95.6038C36.0963 95.8336 36.2337 96.4673 36.0253 96.4673C35.817 96.4673 35.7436 95.7904 35.7436 95.3272C35.7436 94.8639 35.5791 94.3925 35.5791 94.2019C35.5791 94.0112 35.7347 92.352 35.5791 92.0384C35.4236 91.7249 35.1854 91.3969 35.1854 91.3969Z" fill="#4181D5"/>
<path fill-rule="evenodd" clip-rule="evenodd" d="M31.2017 98.3254C31.2017 98.3254 33.3117 98.022 33.486 97.716C33.6604 97.4101 34.7765 96.7421 34.7765 96.1706C34.7765 95.5991 35.0446 94.6271 35.0446 94.6271C35.0446 94.6271 35.4962 95.1727 35.2704 95.8245C35.0446 96.4763 34.9272 97.8854 34.2066 98.1054C33.486 98.3254 31.2017 98.3254 31.2017 98.3254Z" fill="#4181D5"/>
<path fill-rule="evenodd" clip-rule="evenodd" d="M35.5403 99.0229C35.5403 99.0229 36.1606 97.4999 36.3455 96.8317C36.5305 96.1635 37.2723 94.5991 37.2723 94.0766C37.2723 93.5541 37.2723 93.2211 37.2723 93.2211C37.2723 93.2211 37.8146 94.5663 37.6487 95.4585C37.4828 96.3507 37.7991 97.3688 36.934 98.0819C36.0689 98.7949 35.5403 99.0229 35.5403 99.0229Z" fill="#4181D5"/>
<path fill-rule="evenodd" clip-rule="evenodd" d="M38.0081 96.5578C38.0081 96.5578 38.2546 93.6209 38.0081 93.3275C37.7616 93.0341 36.4529 90.7126 35.9421 90.5302C35.9421 90.5302 36.7202 90.5762 37.0367 90.8523C37.3532 91.1285 38.562 92.3066 38.562 92.5949C38.562 92.8831 38.7433 94.4163 38.562 94.9203C38.3808 95.4243 38.0081 96.5578 38.0081 96.5578Z" fill="#4181D5"/>
<path fill-rule="evenodd" clip-rule="evenodd" d="M29.6962 96.896C29.6962 96.896 32.3214 97.123 32.7011 96.7257C33.0808 96.3284 33.6356 95.933 33.6356 95.6377C33.6356 95.3423 33.2904 93.4626 33.2904 93.4626C33.2904 93.4626 31.6659 95.0368 31.6659 95.2116C31.6659 95.3863 29.6962 96.896 29.6962 96.896Z" fill="#4181D5"/>
<path fill-rule="evenodd" clip-rule="evenodd" d="M49.0627 115.147C49.0627 115.147 48.2797 108.996 40.5251 108.996C36.9582 108.996 34.9804 109.381 34.5918 110.15C34.5918 110.15 35.9233 102.823 36.5202 101.307C37.1172 99.7905 39.559 97.3911 40.1488 96.0605C40.7387 94.7299 40.6332 89.6436 41.8179 87.5856C43.0026 85.5275 45.97 84.075 48.6735 84.075C51.3769 84.075 51.6476 81.9955 53.2192 81.9955C54.7908 81.9955 55.9137 81.4602 57.0123 82.9609C58.111 84.4616 59.3899 83.7277 60.6391 84.4834C61.8883 85.2392 64.3556 87.5812 65.8246 89.9704C67.2936 92.3596 72.9008 100.423 70.5248 104.843C69.479 106.789 67.2936 110.913 62.6827 112.33C60.5807 112.976 56.8833 106.716 55.7635 105.835C54.5022 104.843 54.8109 103.842 54.5022 103.573C54.5022 103.573 54.1014 104.442 53.9165 104.843C53.1846 106.431 52.6152 107.666 52.2083 108.549C51.1535 110.836 49.0627 115.147 49.0627 115.147Z" fill="#304D63"/>
<path opacity="0.5" fill-rule="evenodd" clip-rule="evenodd" d="M49.0701 115.174C49.0701 115.174 48.2797 108.996 40.5251 108.996C36.9582 108.996 34.9804 109.38 34.5918 110.15C34.5918 110.15 35.9233 102.823 36.5202 101.307C37.1172 99.7904 39.9353 98.0976 40.5251 96.767C41.115 95.4364 40.9293 90.1197 42.114 88.0617C42.3506 87.6506 41.8651 88.9417 42.114 90.3855C42.3285 91.6297 43.2377 92.8657 43.8714 94.6505C44.5018 96.4262 46.4316 97.7246 47.0671 99.7055C47.622 101.435 47.9357 103.225 48.4541 104.747C49.5198 107.875 51.5825 109.838 51.3475 110.348C50.2927 112.636 49.0701 115.174 49.0701 115.174Z" fill="#213D53"/>
<path fill-rule="evenodd" clip-rule="evenodd" d="M40.7517 109.007C40.7517 109.007 40.3486 110.862 40.5239 111.607C40.6991 112.353 40.3038 113.25 40.3038 113.25C40.3038 113.25 38.7463 111.986 38.0385 111.986C37.3307 111.986 34.2708 111.634 34.6029 110.181C34.935 108.729 40.7517 109.007 40.7517 109.007Z" fill="#1B3345"/>
<path fill-rule="evenodd" clip-rule="evenodd" d="M40.7244 109.074C40.7244 109.074 40.1521 111.27 40.3429 113.199C40.5336 115.129 40.3429 116.082 40.3429 116.082C40.3429 116.082 41.8378 116.972 42.5859 117.488C43.334 118.003 44.1975 118.738 44.1975 118.738C44.1975 118.738 44.7123 119.584 45.1605 119.899C45.6087 120.213 47.5359 121.081 47.5359 121.081C47.5359 121.081 47.5359 120.364 47.5359 119.338C47.5359 118.312 49.0702 115.077 49.0702 115.077C49.0702 115.077 49.0702 112.163 46.3497 110.497C43.6293 108.83 40.7244 109.074 40.7244 109.074Z" fill="#F0EEEE"/>
<path fill-rule="evenodd" clip-rule="evenodd" d="M0.376348 149.222C0.376348 149.222 -0.439255 153.315 1.46906 155.955C3.37738 158.595 10.5725 162.583 12.0153 163.012C13.458 163.441 14.6064 163.412 15.2248 163.926C15.8432 164.44 17.2095 165.265 19.2575 165.854C21.3054 166.442 22.9637 166.76 23.7501 166.171C24.5365 165.583 25.173 163.404 25.031 163.075C24.889 162.746 0.376348 149.222 0.376348 149.222Z" fill="#9DA0A3"/>
<path fill-rule="evenodd" clip-rule="evenodd" d="M26.2512 121.414C26.2512 121.414 27.2661 119.021 29.3151 118.744C31.364 118.466 33.505 118.693 35.6412 118.063C37.7773 117.434 38.4201 115.954 39.6694 116.156C40.9187 116.357 41.7145 115.697 42.7969 116.88C43.8792 118.063 44.718 119.604 45.4015 119.97C46.085 120.335 47.3233 121.003 47.7673 121.003C48.2114 121.003 47.5108 123.384 47.7673 124.006C48.0238 124.629 48.6681 129.745 47.7673 130.393C47.7673 130.393 36.9411 123.328 34.7289 122.603L26.2512 121.414Z" fill="#C0C0C0"/>
<path fill-rule="evenodd" clip-rule="evenodd" d="M47.8136 130.349L47.5766 131.834C47.5766 131.834 34.5616 122.514 34.2102 122.3C34.2102 122.3 38.6349 124.319 40.4632 125.452C41.4865 126.086 42.5436 126.857 43.7671 127.664C46.2119 129.278 47.8136 130.349 47.8136 130.349Z" fill="#D8D8D9"/>
<path fill-rule="evenodd" clip-rule="evenodd" d="M16.2585 148.674C16.2585 148.674 9.3246 150.048 7.97276 150.73C6.62092 151.413 4.58418 149.4 4.16993 149.037C3.75568 148.674 1.4147 147.575 0.683314 148.674C-0.0480704 149.772 1.04486 154.115 5.41292 156.846C9.78097 159.576 13.7083 159.748 15.2139 160.779C16.7194 161.81 20.9347 163.963 22.8833 163.963C24.8319 163.963 25.2942 163.55 25.2942 161.874C25.2942 160.198 25.8548 158.247 25.2942 157.164C24.7336 156.081 26.2436 155.468 25.2942 154.242C25.1214 154.019 24.7705 154.019 24.7705 153.752C24.7705 152.415 16.2585 148.674 16.2585 148.674Z" fill="#C0C0C0"/>
<path fill-rule="evenodd" clip-rule="evenodd" d="M26.6712 124.619C26.6712 124.619 26.0126 128.1 28.2676 129.773C30.5226 131.447 30.3784 131.201 30.3784 131.201L30.9571 128.631L26.6712 124.619Z" fill="#213D53"/>
<path fill-rule="evenodd" clip-rule="evenodd" d="M38.3168 131.929C37.566 131.241 37.6735 129.49 36.4576 129.49C35.2418 129.49 30.6185 129.065 28.826 127.513C27.0334 125.961 24.4333 121.297 27.2746 120.903C30.1159 120.51 35.2867 122.516 37.441 124.233C39.5954 125.951 47.1858 131.119 47.5501 131.765C47.9145 132.41 44.594 134.384 42.0083 133.674C39.4225 132.964 39.0675 132.617 38.3168 131.929Z" fill="#9DA0A3"/>
<path fill-rule="evenodd" clip-rule="evenodd" d="M26.6304 145.038C26.6304 145.038 30.1116 142.517 30.4396 138.623C30.4396 138.623 30.4396 137.037 29.2371 136.61C29.2371 136.61 26.7884 142.943 26.7884 144.547L26.6304 145.038Z" fill="#1B3345"/>
<path fill-rule="evenodd" clip-rule="evenodd" d="M18.8643 141.501C18.8643 141.501 24.0425 134.265 29.227 136.61C29.227 136.61 27.1986 142.211 26.9398 143.539C26.9398 143.539 25.6527 142.122 23.0372 141.447C20.4218 140.772 18.8643 141.501 18.8643 141.501Z" fill="#BD9A8A"/>
<path fill-rule="evenodd" clip-rule="evenodd" d="M16.3043 148.647C16.3043 148.647 18.3475 153.221 19.7104 153.76C21.0733 154.298 23.9109 151.864 24.7827 153.76C24.7827 153.76 25.7907 146.289 26.9145 144.546C28.0382 142.803 23.1038 141.154 21.6094 141.154C20.115 141.154 17.606 140.234 17.606 145.728C17.606 146.486 17.1967 147.294 16.8904 147.902C16.7451 148.191 16.3043 148.647 16.3043 148.647Z" fill="#F0EEEE"/>
<path d="M26.0573 122.025V122.936C24.1162 128.282 23.8104 132.408 23.039 134.41C22.2625 136.425 17.4979 140.225 17.4979 140.225C18.3269 137.735 18.9646 135.638 19.7438 133.616C20.5281 131.581 22.9005 127.275 26.0573 122.025Z" fill="#213D53"/>
<path d="M17.7795 134.071L17.5527 134.007C17.5527 134.007 18.7618 129.913 19.0355 129.093C19.1598 128.72 19.3176 128.504 19.3393 128.471C19.6365 128.021 19.9694 127.52 20.3301 126.98C21.3609 125.436 23.7147 122.014 23.8641 121.801C26.5573 117.957 28.2408 115.819 28.7478 115.819V116.055C28.3743 116.055 19.5059 129.137 19.6566 129.542C19.8072 129.947 17.7795 134.071 17.7795 134.071Z" fill="#213D53"/>
<path fill-rule="evenodd" clip-rule="evenodd" d="M28.1683 107.825C27.6688 108.051 24.1882 109.856 24.1882 109.856C24.1882 109.856 26.742 108.079 28.2552 107.319C29.7684 106.558 32.5016 105.582 32.5016 105.582C32.5016 105.582 28.6677 107.598 28.1683 107.825Z" fill="#213D53"/>
<path fill-rule="evenodd" clip-rule="evenodd" d="M52.9875 87.2636C52.9875 87.2636 56.2442 97.7588 55.1586 100.789C55.1586 100.789 55.6382 97.8877 55.6382 97.4758C55.6382 97.0638 55.3504 94.8868 55.6382 94.4565C55.926 94.0261 55.9448 91.6216 55.7915 90.8261C55.6382 90.0305 55.6047 89.4435 54.7774 88.8737C53.95 88.3039 53.9108 87.7466 53.4491 87.2636C52.9875 86.7805 52.7334 86.517 52.7334 86.517L52.9875 87.2636Z" fill="#28455B"/>
<path fill-rule="evenodd" clip-rule="evenodd" d="M61.8902 88.9141C61.8902 88.9141 60.9848 94.7994 58.9522 97.2793C56.9196 99.7591 57.1921 100.434 57.0559 101.193C56.9196 101.953 55.5186 102.749 55.5186 102.749C55.5186 102.749 57.0327 102.216 57.6323 100.832C58.2319 99.4487 59.102 97.5029 59.9958 97.2793C60.8896 97.0556 62.1074 95.4362 62.4342 94.7827C62.761 94.1292 62.1074 92.9865 62.4342 91.7819C62.761 90.5773 61.8902 88.9141 61.8902 88.9141Z" fill="#28455B"/>
<path fill-rule="evenodd" clip-rule="evenodd" d="M82.6665 86.7037C82.6665 86.7037 83.2315 89.0611 83.2142 89.9891C83.1055 95.8442 80.8367 99.7861 77.3524 102.587C71.2974 107.454 71.3002 108.349 71.3002 108.349C71.3002 108.349 69.5558 100.118 68.5554 96.9376C66.7951 91.341 64.4231 87.8979 62.4806 85.9375C62.4806 85.9375 66.5651 87.1775 68.6696 87.2129C73.3725 87.2919 82.6665 86.7037 82.6665 86.7037Z" fill="#3A5971"/>
<path fill-rule="evenodd" clip-rule="evenodd" d="M85.9228 61.832C85.9228 61.832 85.0215 67.2359 85.0215 69.9422C85.0215 72.6486 82.3809 68.9025 83.5615 65.8871C84.7422 62.8718 85.9228 61.832 85.9228 61.832Z" fill="#4181D5"/>
<path fill-rule="evenodd" clip-rule="evenodd" d="M82.6852 63.5861C82.6852 63.5861 78.7848 68.6981 80.735 73.3311C80.735 73.3311 78.2973 69.2515 79.5161 66.8511C80.735 64.4508 82.6852 63.5861 82.6852 63.5861Z" fill="#4181D5"/>
<path fill-rule="evenodd" clip-rule="evenodd" d="M78.8188 73.909C79.9626 72.52 78.6594 71.1275 78.6594 70.4535C78.6594 69.7794 78.4164 68.987 78.6594 68.101C78.9025 67.215 79.609 65.3443 80.2947 64.5328C80.9804 63.7214 82.5846 63.2958 81.3644 63.6371C80.1442 63.9783 78.8188 65.3443 78.8188 65.3443C78.8188 65.3443 74.7822 71.4487 76.8005 75.3475C78.8188 79.2464 77.675 75.2979 78.8188 73.909Z" fill="#4181D5"/>
<path fill-rule="evenodd" clip-rule="evenodd" d="M62.3458 79.4841C62.3458 79.4841 67.6011 79.3072 69.1252 79.6965C70.6493 80.0858 74.7516 82.0424 76.1867 82.3183C76.4481 82.3685 76.7238 82.4317 77.0054 82.5052C78.2697 82.8351 79.6552 83.3735 80.4224 83.8894C81.3604 84.5201 82.3621 84.6926 82.3621 84.6926V84.2798C82.3621 84.2798 80.8943 83.1367 80.2097 82.3183C80.2097 82.3183 80.2158 83.4161 79.9543 83.4161C79.9543 83.4161 76.7147 82.0607 75.9483 82.0607C75.182 82.0607 70.0454 79.7035 68.9762 79.4841C67.9069 79.2647 62.3458 79.4841 62.3458 79.4841Z" fill="#4181D5"/>
<path d="M83.472 71.8542C83.472 71.8542 84.1159 73.9238 84.242 74.8028C84.3082 75.2636 84.52 76.0123 84.4969 76.5604C84.4593 77.4491 83.8418 79.3262 83.8418 79.3262C84.0648 78.1863 84.1506 75.2501 83.472 71.8542Z" fill="#4181D5"/>
<path fill-rule="evenodd" clip-rule="evenodd" d="M53.5123 66.1645C53.5123 66.1645 52.3966 66.3173 52.3966 67.0584C52.3966 67.7995 52.0565 71.4499 52.2727 71.5968C52.489 71.7436 52.9258 71.7588 52.9258 71.7588L55.0212 70.709L56.0734 69.873V68.3856C56.0734 68.3856 55.8241 67.0193 55.0212 67.1637C54.2183 67.3082 53.5123 66.1645 53.5123 66.1645Z" fill="#446891"/>
<path d="M54.1245 66.0525L53.3109 0" stroke="#979797" stroke-width="0.824783"/>
<path fill-rule="evenodd" clip-rule="evenodd" d="M53.4829 66.269C53.4829 66.0515 53.6592 65.8751 53.8768 65.8751H54.6146C54.8322 65.8751 55.0085 66.0506 55.0085 66.2681C55.0085 66.9296 55.0085 68.2555 55.0085 68.89C55.0085 69.7551 55.0085 70.7022 55.0085 70.7022L52.9149 72.2912V71.137V70.5965V68.0802L53.4829 67.367V66.269Z" fill="#234872"/>
<path d="M52.5653 68.1422C52.5653 68.1422 51.1919 69.8458 51.1919 72.3234C51.1919 74.8009 50.9364 82.1902 49.9935 83.7849" stroke="#979797" stroke-width="0.824783" stroke-linecap="round"/>
<path d="M56.6166 73.6507L56.5303 73.4736C59.2295 72.1653 59.8709 71.0756 60.8642 70.5328C61.0164 70.4496 63.0309 69.2567 65.0644 68.4042C66.5547 67.7794 68.5462 67.3094 68.5462 67.3094C67.8202 67.5798 66.8079 68.0371 65.4483 68.8365C65.3095 68.9181 63.4638 69.8462 61.5464 70.9094C59.7525 71.9041 57.9226 73.0177 56.6166 73.6507Z" fill="#4181D5"/>
<path fill-rule="evenodd" clip-rule="evenodd" d="M75.0697 66.4617C75.0697 66.4617 74.3932 69.1888 75.2167 73.0872C76.0401 76.9856 75.2167 84.2922 75.2167 84.2922H72.5747C72.5747 84.2922 73.2471 76.4954 73.2471 75.4907C73.2471 74.4859 72.0543 67.7832 72.7268 65.5132L75.0697 66.4617Z" fill="#FFE186"/>
<path fill-rule="evenodd" clip-rule="evenodd" d="M49.329 75.5127C49.3708 75.1872 49.5461 74.8938 49.8129 74.7026L52.8883 72.4993C53.2564 72.2356 53.7427 72.2054 54.1406 72.4215L55.4883 73.1537C55.9125 73.3842 56.1539 73.8495 56.0979 74.329L55.5063 79.3963C55.467 79.7332 55.2848 80.0369 55.0061 80.2302L51.9378 82.3581C51.4075 82.7259 50.6803 82.6002 50.3042 82.0758L49.0336 80.304C48.8594 80.0612 48.7837 79.7614 48.8218 79.465L49.329 75.5127Z" stroke="#CDCDCD" stroke-width="0.787736" stroke-linecap="round" stroke-linejoin="round"/>
<path fill-rule="evenodd" clip-rule="evenodd" d="M92.6008 46.4139C92.6008 46.4139 92.9104 47.8254 92.2412 48.6541C91.5719 49.4828 90.4444 51.5382 92.2412 52.5646C94.038 53.591 96.8334 54.1803 97.9535 52.5646C99.0736 50.9489 98.4517 50.5147 99.0358 48.6541C99.6199 46.7935 99.7687 46.3625 99.2278 45.8257C98.6868 45.2889 95.636 43.8154 94.2711 44.5522C93.8325 44.789 93.3495 44.789 92.9247 45.388C92.4999 45.9871 92.6008 46.4139 92.6008 46.4139Z" fill="#4181D5"/>
<path d="M18.9857 99.8404C18.9857 99.8404 20.4007 100.678 19.9291 101.713" stroke="#979797" stroke-width="0.589131" stroke-linecap="round"/>
<path d="M19.5748 99.6047C19.5748 99.6047 20.9898 100.442 20.5182 101.477" stroke="#979797" stroke-width="0.589131" stroke-linecap="round"/>
<path d="M20.1639 99.3691C20.1639 99.3691 21.579 100.207 21.1073 101.242" stroke="#979797" stroke-width="0.589131" stroke-linecap="round"/>
<path d="M18.1919 101.981C18.1919 101.981 18.7235 101.337 19.5193 101.337" stroke="#979797" stroke-width="0.589131" stroke-linecap="round"/>
<path d="M18.1919 101.51C18.1919 101.51 18.7235 100.866 19.5193 100.866" stroke="#979797" stroke-width="0.589131" stroke-linecap="round"/>
<path d="M18.1919 101.038C18.1919 101.038 18.7235 100.395 19.5193 100.395" stroke="#979797" stroke-width="0.589131" stroke-linecap="round"/>
<path d="M18.6844 102.048C18.6844 102.048 18.1468 103.407 17.7565 103.84C17.3661 104.273 17.9192 105.274 18.6844 104.202C19.4496 103.13 19.0639 102.048 19.0639 102.048" stroke="#979797" stroke-width="0.589131"/>
<path d="M40.8157 91.6528L40.7407 92.2946L16.6935 102.488L13.3368 103.143L14.503 101.968L40.9012 90.9556L40.8157 91.6005L15.7915 102.069L16.4915 101.934L40.8157 91.6528Z" fill="#979797"/>
<path fill-rule="evenodd" clip-rule="evenodd" d="M25.0052 91.3567C25.0052 91.3567 24.6743 91.7774 24.6743 92.2732C24.6743 92.7689 24.7689 93.4557 25.1066 93.6073L25.7849 93.0797L25.0052 91.3567Z" fill="#BD9A8A"/>
<path fill-rule="evenodd" clip-rule="evenodd" d="M94.0685 44.6805C94.0685 44.6805 92.8811 45.7447 93.0748 46.8211C93.2684 47.8976 92.9203 49.3605 95.2022 49.5766C97.484 49.7927 98.8254 48.7947 99.0311 48.506C99.2369 48.2173 100.074 46.4646 99.0311 45.7082C97.9884 44.9519 94.0685 44.6805 94.0685 44.6805Z" fill="#6C86A9"/>
<path fill-rule="evenodd" clip-rule="evenodd" d="M26.442 94.6843L27.0388 94.2184L32.3775 90.176L34.7742 88.3415L35.7275 87.6577C35.7275 87.6577 35.9829 88.441 35.3786 89.0588C34.7742 89.6766 34.267 90.636 34.267 91.2263C34.267 91.8166 33.5046 92.7858 33.5046 92.7858C33.5046 92.7858 32.1834 94.4696 31.1864 94.8517C30.1893 95.2339 29.341 95.4135 28.4984 95.3311C27.6557 95.2488 26.442 94.6843 26.442 94.6843Z" fill="#AB8675"/>
<path d="M14.2361 103.954C13.89 104.217 13.3968 104.149 13.1337 103.804L12.9449 103.556C12.6809 103.209 12.7485 102.714 13.0959 102.451L60.4554 66.5654L103.229 34.155L104.372 35.6561L61.6024 68.0638L14.2361 103.954Z" fill="#D8D8D8"/>
<path d="M14.2361 103.954C13.89 104.217 13.3968 104.149 13.1337 103.804L12.9449 103.556C12.6809 103.209 12.7485 102.714 13.0959 102.451L60.4554 66.5654L103.229 34.155L104.372 35.6561L61.6024 68.0638L14.2361 103.954Z" fill="#D8D8D8"/>
<path d="M103.998 35.1643L104.372 35.6561L61.6025 68.0638C61.6025 68.0638 61.2225 67.86 61.0819 67.7529L103.998 35.1643Z" fill="#ADACAC"/>
<path d="M14.2362 103.954C13.89 104.217 13.3969 104.149 13.1338 103.804L12.945 103.556C12.6809 103.209 12.7486 102.714 13.0959 102.451L60.4555 66.5654C60.4555 66.5654 60.5463 67.1012 60.8077 67.4514C61.069 67.8016 61.6025 68.0638 61.6025 68.0638L14.2362 103.954Z" fill="#00223C"/>
<path fill-rule="evenodd" clip-rule="evenodd" d="M28.9214 93.7728C28.9214 93.7728 28.6592 94.5305 28.1339 94.5305C27.6086 94.5305 26.9901 94.1892 26.8053 94.072C26.6206 93.9547 25.2468 92.558 25.2468 92.558C25.2468 92.558 24.9998 92.2632 24.9998 91.9031C24.9998 91.5429 24.9353 90.3395 25.1706 90.1418C25.4058 89.9442 26.0737 89.5684 26.1789 89.5684L28.9214 93.7728Z" fill="#BD9A8A"/>
<path fill-rule="evenodd" clip-rule="evenodd" d="M28.9215 93.7728C28.9215 93.7728 28.8919 93.8548 28.8762 93.8932C28.8437 93.9725 28.5934 93.7142 28.2153 93.4139C27.901 93.1643 27.489 92.9211 27.1273 92.4926C26.7708 92.0701 26.5522 91.6777 26.1789 91.195C25.7608 90.6543 25.4799 89.926 25.4799 89.926C25.7621 89.7492 26.1059 89.5684 26.1789 89.5684L28.9215 93.7728Z" fill="#AB8675"/>
<path d="M14.2362 103.954C13.89 104.217 13.3969 104.149 13.1338 103.804L12.945 103.556C12.6809 103.209 12.7486 102.714 13.0959 102.451L17.2889 99.2736C17.2889 99.2736 17.3287 99.7812 17.624 100.151C17.9194 100.52 18.4058 100.795 18.4058 100.795L14.2362 103.954Z" fill="#3C658A"/>
<path fill-rule="evenodd" clip-rule="evenodd" d="M30.3728 92.826C30.3728 92.826 30.1754 93.3721 29.8013 93.5615C29.4272 93.751 28.9082 93.7742 28.9082 93.7742C28.9082 93.7742 27.5547 92.7996 27.1622 92.2886C26.7697 91.7776 26.3269 90.9693 26.3269 90.8051C26.3269 90.6409 26.0151 89.9458 26.2433 89.233C26.4715 88.5202 27.5872 88.4197 27.6795 88.4197C27.7719 88.4197 30.3728 92.826 30.3728 92.826Z" fill="#BD9A8A"/>
<path fill-rule="evenodd" clip-rule="evenodd" d="M30.3727 92.826C30.3727 92.826 30.3348 92.9254 30.3141 92.9716C30.3141 92.9716 30.074 92.9482 30.0024 92.8978C29.4363 92.4998 29.1517 92.1316 28.9737 91.9589C28.3994 91.4019 28.0484 90.9554 27.8196 90.5041C27.6776 90.2241 27.6001 89.922 27.4926 89.6515C27.3673 89.3361 26.8604 88.6203 26.8604 88.6203C27.2292 88.4534 27.626 88.4197 27.6794 88.4197C27.7718 88.4197 30.3727 92.826 30.3727 92.826Z" fill="#AB8675"/>
<path fill-rule="evenodd" clip-rule="evenodd" d="M31.5707 91.7058C31.5707 91.7058 31.5192 92.3993 31.1452 92.6074C30.7712 92.8155 30.2111 92.837 30.0846 92.8262C29.958 92.8155 28.702 91.5321 28.4752 91.0581C28.2483 90.5841 27.6694 89.8081 27.6694 89.0393C27.6694 88.2705 27.6206 87.6727 27.9551 87.5163C28.1414 87.4292 28.4878 87.3408 28.8309 87.4006C29.1036 87.448 29.3874 87.6224 29.4924 87.7266C29.7294 87.9619 31.5707 91.7058 31.5707 91.7058Z" fill="#BD9A8A"/>
<path fill-rule="evenodd" clip-rule="evenodd" d="M31.5707 91.7058C31.5707 91.7058 31.5639 91.7856 31.5592 91.8237C31.5592 91.8237 31.0366 91.6532 30.6777 91.3904C30.4997 91.2601 30.3876 91.0143 30.2008 90.656C30.103 90.4683 30.0482 90.2557 29.9554 90.0531C29.8915 89.9137 29.8015 89.751 29.7405 89.6639C29.497 89.3161 29.497 89.2227 29.3143 88.4884C29.2278 88.1406 28.8309 87.4006 28.8309 87.4006C29.1036 87.448 29.3874 87.6224 29.4924 87.7266C29.7295 87.9619 31.5707 91.7058 31.5707 91.7058Z" fill="#AB8675"/>
<path fill-rule="evenodd" clip-rule="evenodd" d="M32.0009 88.1126C32.0009 88.1126 31.0291 86.9934 30.6684 86.9934C30.3077 86.9934 29.5021 87.5974 29.5021 87.855C29.5021 88.1126 29.6625 89.2858 29.9599 89.6111C30.2573 89.9364 30.6378 91.2102 30.8467 91.3126C31.0555 91.4151 31.6176 91.8625 32.0009 91.7309C32.3842 91.5993 32.772 91.3697 32.5781 90.7749C32.4843 90.4872 32.2627 89.9932 32.1023 89.188C32.0417 88.8839 32.0009 88.1126 32.0009 88.1126Z" fill="#BD9A8A"/>
<path d="M72.9797 89.2458C72.9797 89.2458 69.117 85.1574 70.2224 83.3545C70.2224 83.3545 71.8259 83.2432 72.6787 83.3545C72.8609 83.3783 74.3996 83.5218 75.2623 84.0415C75.8098 84.3714 75.9495 85.0613 75.7365 85.2413C75.1878 85.7051 74.8432 84.8827 73.5843 86.2723C72.3255 87.6619 70.3135 86.9132 69.001 86.764" stroke="#CDCDCD" stroke-width="0.5" stroke-linecap="round"/>
<path fill-rule="evenodd" clip-rule="evenodd" d="M101.571 34.7964C101.571 34.7964 101.758 34.2386 102.319 34.2386C102.88 34.2386 102.702 34.9342 102.702 34.9342L101.571 34.7964Z" fill="#AB8675"/>
<path fill-rule="evenodd" clip-rule="evenodd" d="M100.537 35.6624C100.537 35.4407 100.755 34.8152 101.061 34.8152C101.368 34.8152 101.488 34.7339 102.217 34.7339C102.945 34.7339 103.77 35.833 103.949 36.1324C104.066 36.3285 104.222 37.4113 104.212 38.3013C104.207 38.7703 104.119 39.2308 104.034 39.382C103.788 39.8201 103.435 39.8994 103.435 39.8994C103.435 40.3169 102.745 41.3543 102.035 41.9106C101.895 42.0202 100.867 43.0943 100.765 43.207C100.179 43.8573 99.624 44.3522 99.2405 45.1781C98.8569 46.0041 98.9642 46.1699 98.7916 46.6484C98.6191 47.1269 98.2884 48.2532 97.5665 48.7989C96.8445 49.3446 95.6636 49.1518 95.0523 48.9843C94.4409 48.8169 94.1829 48.709 93.9152 48.2706C93.6475 47.8322 93.7106 47.2886 93.7589 46.8661C93.8473 46.0937 93.9431 45.5173 94.1696 45.1781C94.1696 45.1781 94.0773 42.4411 95.0523 42.0419C95.0523 42.0419 95.3333 40.9901 95.6636 40.9901C95.6636 40.9901 95.5874 40.299 95.0523 40.299C94.5171 40.299 94.4409 39.8858 95.0523 39.091C95.2764 38.7995 95.4835 38.7124 95.6636 38.6318C95.811 38.5659 96.0565 38.5468 96.0565 38.5468C96.0565 38.5468 96.1077 37.9805 96.4138 37.7848C96.7199 37.5891 97.3211 37.138 97.6305 37.138C97.9399 37.138 97.9014 36.7116 98.0713 36.5672C98.2413 36.4227 99.4409 35.8485 99.8641 35.7554C100.287 35.6624 100.537 35.6624 100.537 35.6624Z" fill="#BD9A8A"/>
<path fill-rule="evenodd" clip-rule="evenodd" d="M104.212 38.3013C104.207 38.7704 104.119 39.2308 104.034 39.382C103.788 39.8202 103.435 39.8994 103.435 39.8994C103.435 40.317 102.745 41.3543 102.035 41.9106C101.895 42.0203 100.867 43.0944 100.765 43.207C100.179 43.8573 99.6239 44.3522 99.2404 45.1782C98.8569 46.0041 98.9722 46.1344 98.7916 46.6484C98.7107 46.8788 98.5593 47.3572 98.2501 47.9323C98.169 48.083 98.0485 48.3054 97.8589 48.5244C97.7736 48.6228 97.5552 48.803 97.5552 48.803C97.5552 48.803 98.0413 46.0766 98.4701 45.1782C99.4956 43.0297 100.936 42.2214 102.189 41.0383C103.056 40.2199 104.212 38.3013 104.212 38.3013Z" fill="#AB8675"/>
<path d="M98.8225 40.6389C98.8578 40.6615 98.1423 40.232 97.8359 40.0361C97.7542 39.9839 97.6765 39.9333 97.6028 39.8842C97.1994 39.6154 96.9343 39.406 96.8295 39.2548C96.671 39.0257 96.4304 38.7498 96.0503 38.5572C96.0503 38.5572 96.3233 38.5326 96.475 38.6141C96.6757 38.7219 96.9536 39.02 97.0233 39.1206C97.1044 39.2377 97.3571 39.4373 97.7335 39.688C97.8059 39.7363 97.8824 39.7861 97.9628 39.8376C98.2522 40.0226 98.8225 40.6389 98.8225 40.6389Z" fill="#AB8675"/>
<path d="M97.7319 37.1151C98.0799 37.0964 98.402 37.2241 98.7229 37.6196C98.9701 37.9243 99.1957 38.192 99.398 38.4179C99.7427 38.8027 100.102 39.3871 100.102 39.3871C99.7469 39.1795 99.2308 38.6198 98.5399 37.7681C98.2622 37.4257 97.7319 37.1151 97.7319 37.1151Z" fill="#AB8675"/>
<path d="M98.8081 37.3753C98.9366 37.3353 99.0119 37.1691 99.0482 37.1554C99.0775 37.1444 99.1418 37.1554 99.1418 37.1554C99.1112 37.6606 99.2082 38.1029 99.3471 38.3026L99.1537 38.4372C99.0013 38.2182 98.3558 37.4415 98.4045 37.3753C98.466 37.2916 98.6795 37.4154 98.8081 37.3753Z" fill="#AB8675"/>
<path d="M100.529 35.672C100.529 35.672 100.887 35.6905 101.042 35.8002C101.364 36.0288 101.596 36.4497 101.647 36.6229C101.764 37.0163 102.314 37.8924 102.628 38.2955C102.882 38.6223 103.432 39.9182 103.432 39.9182C103.432 39.8357 102.647 38.7043 102.442 38.4401C102.111 38.0146 101.548 37.1202 101.421 36.6898C101.327 36.3741 101.011 35.9346 100.529 35.672Z" fill="#AB8675"/>
<path fill-rule="evenodd" clip-rule="evenodd" d="M99.5859 11.9828C99.5859 11.9828 102.14 6.96578 104.587 7.53144C107.034 8.09709 112.103 16.8675 113.761 18.9313C115.419 20.9951 122.989 32.2047 125.558 34.6906C128.127 37.1764 131.847 43.7008 131.406 44.2018C130.966 44.7028 128.021 48.1398 125.919 47.0998C123.817 46.0599 123.386 42.5088 118.078 35.6164C112.769 28.724 110.212 24.8898 108.982 23.6591C107.752 22.4284 99.5859 11.9828 99.5859 11.9828Z" fill="#B5C3CF"/>
<path fill-rule="evenodd" clip-rule="evenodd" d="M112.045 27.4907L102.545 34.2808C102.545 34.2808 102.692 34.3931 102.718 34.5253C102.745 34.6575 102.718 34.877 102.718 34.877C102.718 34.877 103.849 35.7282 104.026 36.3666L113.527 29.5211L112.045 27.4907Z" fill="#3C658A"/>
<path fill-rule="evenodd" clip-rule="evenodd" d="M70.4237 93.1602V96.4126C70.4237 96.4126 72.1397 98.6676 71.5677 103.044C70.9957 107.419 71.2506 113.309 72.1373 115.632C72.1373 115.632 72.2832 111.701 72.6146 108.049C72.946 104.396 73.0919 100.652 72.6146 98.1017C72.1373 95.5517 70.4237 93.1602 70.4237 93.1602Z" fill="#FFE186"/>
<path fill-rule="evenodd" clip-rule="evenodd" d="M72.1892 116.034C72.1892 116.034 73.9844 122.874 74.7641 123.224C75.5438 123.574 76.2096 122.351 76.2096 122.351C76.2096 122.351 75.6488 122.782 74.7641 120.695C73.8795 118.608 72.1892 116.034 72.1892 116.034Z" fill="#FFE186"/>
<path fill-rule="evenodd" clip-rule="evenodd" d="M75.334 123.374C75.334 123.374 77.3735 123.17 77.99 122.293C78.6064 121.416 79.463 120.083 78.5414 116.272C77.6198 112.461 74.4622 107.626 74.4622 107.626C74.4622 107.626 75.0582 109.186 75.0582 109.797C75.0582 110.408 75.0582 111.762 75.0582 111.762C75.0582 111.762 77.2135 116.219 77.4934 117.807C77.6835 118.887 77.7806 119.755 77.4934 120.509C77.1428 121.428 76.3334 122.293 76.3334 122.293L75.334 123.374Z" fill="#FFE186"/>
<path fill-rule="evenodd" clip-rule="evenodd" d="M74.2444 107.289C74.2444 107.289 74.6165 103.237 74.6165 102.915C74.6165 102.592 74.6243 102.142 74.7893 99.5057C74.9543 96.8688 75.2781 93.3267 74.5168 92.0196L74.0161 90.7518C74.0161 90.7518 75.1248 92.239 75.1248 92.8543C75.1248 93.4697 75.2606 96.9745 75.4472 97.8289C75.6339 98.6834 76.0259 102.782 75.7625 104.601C75.4991 106.421 75.3636 109.072 75.3636 109.072L74.2444 107.289Z" fill="#FFE186"/>
<path fill-rule="evenodd" clip-rule="evenodd" d="M60.6136 59.1136C60.6136 59.1136 60.8859 53.7891 60.9771 53.0423C61.0682 52.2955 61.78 50.4148 64.8798 49.6736C64.8798 49.6736 61.0498 49.2454 60.1197 49.8842C59.1896 50.5229 60.0112 53.4642 60.0112 53.4642C60.0112 53.4642 60.3682 56.9267 60.3682 57.4972C60.3682 58.0677 60.6136 59.1136 60.6136 59.1136Z" fill="#484D48"/>
<path fill-rule="evenodd" clip-rule="evenodd" d="M52.3845 81.5603C52.3845 81.5603 56.9846 82.5365 57.7403 82.9938C58.4961 83.451 60.6951 84.4792 60.6951 84.4792C60.6951 84.4792 58.6309 81.818 57.7403 81.1886C56.8498 80.5592 54.8515 79.8568 54.8515 79.8568L52.3845 81.5603Z" fill="#FFE186"/>
<path fill-rule="evenodd" clip-rule="evenodd" d="M49.2958 80.0336L50.7443 82.0148C50.7443 82.0148 48.9119 83.2734 48.9119 83.8225L47.0068 84.1456L49.2958 80.0336Z" fill="#FFE186"/>
<path d="M51.7804 81.8696C51.7804 81.8696 55.0912 75.8611 56.1616 77.0988C57.2319 78.3364 55.2313 79.3785 55.2313 79.3785" stroke="#E7E7E7" stroke-width="1.17826" stroke-linecap="round"/>
<path d="M75.2844 73.4108C75.2844 73.4108 76.4554 75.5697 76.6848 76.1521C77.3403 77.8159 77.9959 79.5743 78.6078 81.3485C79.0566 82.6499 79.4651 83.9118 79.8239 85.1176C80.7965 88.3858 81.3613 91.0877 81.411 93.0424C81.4151 93.2051 81.2866 93.3403 81.124 93.3444C80.9613 93.3485 80.8261 93.22 80.822 93.0574C80.774 91.1668 80.2182 88.508 79.2593 85.2856C78.903 84.0884 78.4971 82.8344 78.0509 81.5406C77.4419 79.775 76.7893 78.0244 76.1367 76.3681C75.9083 75.7884 75.6827 75.2863 75.4925 74.8231L75.2844 73.4108Z" fill="#C0C0C0"/>
<path fill-rule="evenodd" clip-rule="evenodd" d="M72.0697 91.6063C72.0697 91.6063 72.0611 90.267 72.9982 90.267C73.9352 90.267 74.1372 91.9913 74.1372 92.3101C74.1372 92.629 74.377 96.2921 74.377 96.2921H72.5536L72.0697 91.6063Z" fill="#68859A"/>
<path fill-rule="evenodd" clip-rule="evenodd" d="M72.7098 96.6785C72.4203 96.4977 72.3539 95.9235 73.1281 95.7161C73.9022 95.5087 74.59 96.0255 74.3341 96.4696C74.0782 96.9136 72.9992 96.8593 72.7098 96.6785Z" fill="#8FA9BB"/>
<path d="M73.3621 96.4271C73.3621 96.3295 73.4414 96.2504 73.5393 96.2504C73.6371 96.2504 73.7165 96.3295 73.7165 96.4271V99.6535C73.7165 99.7511 73.6371 99.8303 73.5393 99.8303C73.4414 99.8303 73.3621 99.7511 73.3621 99.6535V96.4271Z" fill="#68859A"/>
<path fill-rule="evenodd" clip-rule="evenodd" d="M77.9389 101.359C77.9389 101.359 77.6169 97.8027 77.6169 97.275C77.6169 96.7473 78.7157 95.609 78.7157 95.182C78.7157 94.755 80.7485 94.137 80.7485 93.2497C80.7485 92.3624 79.794 90.077 80.8852 89.8817C81.9764 89.6863 81.8871 90.2104 82.2196 89.7167C82.5522 89.2229 83.384 90.3059 82.679 91.017C81.9739 91.7281 81.4783 92.2406 81.4783 93.0651C81.4783 93.8897 81.3619 93.9209 81.1801 93.9209C80.9983 93.9209 80.8508 94.4143 81.0154 95.182C81.1801 95.9497 81.2824 96.3802 81.0154 96.7481C80.7485 97.116 80.7234 98.1793 80.4332 98.3695C80.143 98.5597 79.9038 99.38 79.5284 99.6399C79.1529 99.8998 77.9389 101.359 77.9389 101.359Z" fill="#28455B"/>
<path fill-rule="evenodd" clip-rule="evenodd" d="M66.7646 82.4664L68.1251 84.0083L68.6057 83.2374L66.7646 82.4664Z" fill="#FFE186"/>
<path fill-rule="evenodd" clip-rule="evenodd" d="M68.9712 83.8769C68.6574 84.0507 67.8307 84.8325 67.8307 84.8325L67.454 86.0804L68.5007 86.4106C68.5007 86.4106 69.285 83.703 68.9712 83.8769Z" fill="#FFE186"/>
<path fill-rule="evenodd" clip-rule="evenodd" d="M68.3724 87.8931C68.3724 87.8931 67.603 87.2335 67.3286 87.4533C67.0543 87.6732 67.6396 88.4103 67.6396 88.4103L69.0188 90.002C69.0188 90.002 68.6793 89.7016 68.3724 88.7002C68.3157 88.515 68.3724 87.8931 68.3724 87.8931Z" fill="#FFE186"/>
<path fill-rule="evenodd" clip-rule="evenodd" d="M68.316 89.5361C68.316 89.5361 68.0566 90.9544 68.316 91.2536C68.5753 91.5528 69.3365 93.7633 69.3365 94.1864C69.3365 94.6094 69.6367 95.0155 69.6367 95.0155L69.9268 92.728C69.9268 92.728 69.6367 92.2988 69.6367 91.2536C69.6367 90.2083 68.316 89.5361 68.316 89.5361Z" fill="#FFE186"/>
<path fill-rule="evenodd" clip-rule="evenodd" d="M72.438 66.9459C72.438 66.9459 68.4779 69.168 66.5464 72.1192C64.6148 75.0704 62.5256 76.1757 62.5256 76.1757C62.5256 76.1757 56.2301 75.7585 57.0897 74.4401C57.9493 73.1217 62.9132 70.61 62.9132 70.61C62.9132 70.61 67.2382 68.2595 68.4432 67.6027C69.6482 66.9459 72.438 66.5869 72.438 66.5869V66.9459Z" fill="#4181D5"/>
<path fill-rule="evenodd" clip-rule="evenodd" d="M57.3038 79.5298C57.3038 79.5298 59.9647 77.845 61.2713 77.845C62.5778 77.845 65.3105 75.9488 66.8561 75.9488C68.4018 75.9488 72.704 73.881 72.704 73.881V79.5298C72.704 79.5298 67.3227 77.845 65.0039 77.845C62.685 77.845 57.3038 79.5298 57.3038 79.5298Z" fill="#4181D5"/>
<path d="M90.1905 51.4919C90.5163 50.4233 90.8927 49.7986 90.8927 49.7986C90.713 50.8338 90.6046 51.9711 90.6616 52.9383C90.7218 53.9614 91.0483 54.8799 91.3538 55.7207C91.3538 55.7207 90.3045 54.7836 90.1462 54.3097C90.1365 54.2808 90.1541 54.0961 90.1462 54.0675C89.7591 52.6689 89.8647 52.5605 90.1905 51.4919Z" fill="#4181D5"/>
<path fill-rule="evenodd" clip-rule="evenodd" d="M29.2559 110.948C29.2559 110.948 27.4412 111.605 26.7803 111.898C26.1193 112.19 23.8815 113.748 23.3224 113.91C22.7633 114.073 21.147 115.324 22.0348 114.85C22.9227 114.375 23.6576 114.079 23.9589 113.91C24.2602 113.741 25.902 112.822 26.2565 112.52C26.6109 112.219 27.0583 112.029 27.2423 111.898C27.4262 111.767 28.2791 111.275 28.7675 111.413C29.2559 111.55 29.4767 111.413 29.4767 111.413L29.2559 110.948Z" fill="#213D53"/>
<path fill-rule="evenodd" clip-rule="evenodd" d="M39.3176 88.8949C39.3176 88.8949 38.6505 87.4716 39.7741 87.2407C40.8978 87.0098 41.2444 87.051 41.2444 87.2407C41.2444 87.4305 41.3563 88.2008 40.9041 88.8949C40.7373 89.151 40.6399 89.6949 40.3337 89.6675C40.0867 89.6454 39.3176 88.8949 39.3176 88.8949Z" fill="#4181D5"/>
<path fill-rule="evenodd" clip-rule="evenodd" d="M46.4369 84.9063C46.4369 84.9063 48.392 84.6578 48.761 84.9063C49.1299 85.1549 50.1998 85.1339 50.707 85.1444C51.2142 85.1549 52.0516 85.6163 52.3038 85.8019C52.3038 85.8019 51.2047 84.6112 49.3704 84.6112C47.536 84.6112 46.4369 84.9063 46.4369 84.9063Z" fill="#28455B"/>
<path fill-rule="evenodd" clip-rule="evenodd" d="M54.5049 103.22C54.5049 103.22 55.9553 101.782 56.3274 101.246C56.6994 100.711 57.18 99.1701 57.3823 98.7057C57.5846 98.2413 58.8847 96.653 58.8847 96.4986C58.8847 96.3441 58.2184 96.0428 58.2184 96.0428C58.2184 96.0428 56.5279 97.2983 56.3274 98.002C56.1268 98.7057 55.4688 99.423 55.4688 99.6316C55.4688 99.8401 54.5049 103.22 54.5049 103.22Z" fill="#28455B"/>
<path fill-rule="evenodd" clip-rule="evenodd" d="M52.5745 94.0149C52.5745 94.0149 50.086 93.5335 50.086 93.2075C50.086 92.8815 50.3821 92.6846 49.4367 91.8934C48.4913 91.1023 47.9827 90.8637 47.9827 90.7145C47.9827 90.5653 45.886 88.6926 45.886 88.1358C45.886 87.579 44.2062 85.4837 45.423 86.1233C46.6399 86.7629 47.1877 87.272 47.9827 87.272C48.7776 87.272 48.7873 86.8234 49.4367 87.6845C50.086 88.5456 50.7597 89.1213 51.2413 90.5037C51.7229 91.8861 51.1355 92.3143 51.855 92.9089C52.5745 93.5034 52.5745 94.0149 52.5745 94.0149Z" fill="#28455B"/>
<path fill-rule="evenodd" clip-rule="evenodd" d="M55.1847 98.2943C55.1847 98.2943 53.9203 94.1018 53.9203 93.932C53.9203 93.7622 52.573 91.6907 52.573 91.475C52.573 91.2594 49.9677 87.5506 50.5309 87.704C51.094 87.8574 51.4374 87.7159 51.8836 88.4265C52.3299 89.1372 52.6072 89.5919 52.8179 90.5335C53.0286 91.475 53.1181 91.9006 53.4277 92.4487C53.7372 92.9969 54.0694 93.2482 54.0694 93.2482L55.1847 98.2943Z" fill="#28455B"/>
<path fill-rule="evenodd" clip-rule="evenodd" d="M50.7252 84.1466C50.7252 84.1466 52.8294 83.4417 53.5204 84.1466C54.2114 84.8515 56.2605 86.723 56.2605 87.0731C56.2605 87.4231 56.6922 89.0763 56.6922 89.2261C56.6922 89.376 57.2773 91.6392 57.2773 91.6392C57.2773 91.6392 56.6427 86.8483 56.2605 86.3483C55.8784 85.8482 54.8185 85.1847 54.4099 84.6657C54.0013 84.1466 53.4655 83.6105 52.4161 83.6105C51.3666 83.6105 50.7252 84.1466 50.7252 84.1466Z" fill="#28455B"/>
<path d="M68.8079 97.795C68.8079 97.795 66.8976 105.296 67.5949 106.823C68.2922 108.35 70.3412 113.123 73.5118 111.513C76.6825 109.904 78.2283 106.848 77.8769 105.266C77.5255 103.684 77.9466 98.3632 75.7292 98.3632" stroke="#E4E4E4" stroke-width="0.5" stroke-linecap="round"/>
</svg>
