<svg width="136" height="266" viewBox="0 0 136 266" fill="none" xmlns="http://www.w3.org/2000/svg">
<path fill-rule="evenodd" clip-rule="evenodd" d="M96.5645 216.087C96.5645 216.087 105.688 210.525 109.597 209.917C113.506 209.309 118.181 211.253 118.181 211.253C118.181 211.253 131.434 212.983 132.449 213.603C133.465 214.223 132.682 216.087 131.545 216.087C130.407 216.087 119.811 220.764 119.811 220.764L112.263 219.033L109.597 219.669L96.5645 216.087Z" fill="#151D27"/>
<path fill-rule="evenodd" clip-rule="evenodd" d="M97.1584 216.25C96.9337 216.188 96.8916 215.888 97.0911 215.767C97.0911 215.767 103.966 216.317 107.325 216.856C111.379 217.507 119.33 219.337 119.33 219.337C125.154 216.087 132.036 213.351 132.449 213.603C133.19 214.055 132.974 215.168 132.363 215.738C132.135 215.95 131.87 216.061 131.536 216.128C131.202 216.196 130.165 216.622 128.426 217.306C127.585 217.637 126.736 218.164 125.56 218.584L126.265 220.293C126.265 220.293 123.708 221.645 122.952 221.974C122.952 221.974 121.254 220.129 120.881 220.293C120.533 220.446 119.81 220.764 119.81 220.764L112.263 219.033L109.597 219.669L97.1584 216.25Z" fill="#07090D"/>
<path fill-rule="evenodd" clip-rule="evenodd" d="M124.809 240.87C124.809 240.87 125.558 242.178 126.185 242.178C126.813 242.178 129.756 242.178 129.756 242.178L127.283 239.3L124.809 240.87Z" fill="#191E28"/>
<path fill-rule="evenodd" clip-rule="evenodd" d="M75.605 237.149C75.605 237.149 74.9076 237.493 74.9076 238.216C74.9076 238.939 74.5588 240.892 74.9076 241.083C75.2563 241.275 91.1671 245.874 92.7891 245.874C94.411 245.874 97.5699 247.696 105.742 245.874C113.914 244.052 126.525 240.199 126.525 240.199C126.525 240.199 128.223 242.749 130.294 241.916C132.366 241.083 136.186 239.05 134.56 228.937L135.336 228.173L134.56 218.638C134.56 218.638 135.907 216.708 134.869 216.195C133.832 215.682 131.757 216.014 131.757 216.014L125.496 218.355L127.178 221.323L105.742 240.199L75.605 237.149Z" fill="#07090D"/>
<path fill-rule="evenodd" clip-rule="evenodd" d="M76.1866 236.319C76.1866 236.319 74.6615 238.004 76.8114 238.851C78.9613 239.698 96.1423 243.034 97.4137 243.034C98.6852 243.034 101.531 241.663 102.233 243.978C102.233 243.978 109.529 243.196 111.261 241.672C112.993 240.149 128.896 219.368 128.896 219.368C128.896 219.368 129.123 218.848 129.08 218.624C128.885 217.605 128.479 217.488 126.75 217.937C126.4 218.028 126.057 218.139 125.8 218.227C125.562 218.309 125.447 218.574 125.54 218.808L126.162 220.36L122.948 221.885C122.948 221.885 121.862 220.607 121.361 220.36C120.86 220.113 119.961 220.623 119.961 220.623L112.321 218.756C111.966 218.669 111.595 218.669 111.239 218.757L110.436 218.955C110.115 219.035 109.78 219.043 109.455 218.979L102.592 217.628C102.483 217.606 102.467 217.457 102.569 217.413L103.05 217.205C103.155 217.16 103.134 217.004 103.02 216.989L96.5129 216.103C96.5129 216.103 89.1893 220.095 87.51 220.99C87.51 220.99 80.5744 224.565 79.7907 225.782C79.0069 227 76.1866 236.319 76.1866 236.319Z" fill="#D5E6FD"/>
<path fill-rule="evenodd" clip-rule="evenodd" d="M102.39 244.123C102.39 244.123 105.065 243.974 106.22 243.706C123.245 239.765 131.826 237.403 132.823 236.099C134.423 234.01 132.532 228.481 131.467 225.007C130.401 221.533 134.348 218.973 134.348 218.973C134.348 218.973 135.936 216.609 134.656 216.156C133.377 215.703 131.935 216.007 131.935 216.007C131.935 216.007 128.112 217.215 127.166 217.803L126.703 220.658C126.703 220.658 109.402 241.229 108.961 241.229C108.52 241.229 102.39 244.123 102.39 244.123Z" fill="#15191E"/>
<path fill-rule="evenodd" clip-rule="evenodd" d="M93.3076 242.382C95.4665 242.775 97.059 243.034 97.4137 243.034C98.6851 243.034 101.531 241.663 102.233 243.978C102.233 243.978 109.529 243.196 111.261 241.672C112.993 240.149 128.896 219.368 128.896 219.368C128.896 219.368 129.123 218.848 129.08 218.624C128.885 217.605 128.479 217.488 126.75 217.937C126.4 218.028 126.057 218.139 125.8 218.227C125.562 218.309 125.446 218.574 125.54 218.808L126.003 219.964C126.092 220.187 125.993 220.44 125.777 220.543L123.263 221.736C123.077 221.824 122.856 221.777 122.719 221.624C122.372 221.236 121.718 220.536 121.361 220.36C120.86 220.113 119.961 220.623 119.961 220.623C119.961 220.623 103.673 227.333 100.432 229.143C97.1911 230.954 93.3076 242.382 93.3076 242.382Z" fill="#C0D5F2"/>
<path fill-rule="evenodd" clip-rule="evenodd" d="M83.8107 225.688C85.4037 225.688 91.6478 227.172 94.8537 227.96C95.8891 228.215 96.4693 229.307 96.1136 230.312L93.1961 238.556C92.7819 239.727 91.5694 240.414 90.3522 240.168L79.7335 238.026C79.0981 237.898 78.7007 237.266 78.8727 236.641C79.704 233.62 82.0544 225.688 83.8107 225.688Z" fill="#C0D5F2"/>
<path fill-rule="evenodd" clip-rule="evenodd" d="M38.4032 98.0072C38.4032 98.0072 40.0663 126.084 40.0663 132.971C40.0663 139.857 44.9971 149.247 44.9971 169.577C44.9971 189.907 34.8903 211.755 48.726 224.511C52.9272 228.385 58.6872 229.54 65.6054 231.143C72.8868 232.83 91.7424 234.186 91.7424 234.186C91.7424 234.186 94.4658 232.116 91.7424 229.437L75.7098 227.493C75.7098 227.493 52.4549 225.707 48.726 215.248C44.9971 204.789 46.5297 196.485 48.0038 189.623C49.4779 182.761 51.0104 159.095 48.0038 149.998C47.336 147.977 47.0362 144.962 46.4965 141.107C45.4161 133.39 43.7208 107.005 43.7208 107.005V80.7372L40.0663 84.936L38.4032 98.0072Z" fill="#061D2C"/>
<path fill-rule="evenodd" clip-rule="evenodd" d="M90.7387 127.877C90.7387 127.877 90.806 138.104 89.2376 145.957C88.5762 149.269 87.368 155.846 85.7084 162.501C83.9331 169.62 81.8653 176.98 81.0412 181.634C80.8087 182.947 80.6752 184.044 80.6752 184.861C80.6752 185.623 80.3356 186.655 80.6752 187.255C81.0149 187.855 80.9352 189.011 79.9689 189.603C79.0026 190.195 78.8632 192.626 79.2058 193.116C79.5483 193.606 78.8632 195.007 79.2058 195.445C79.5483 195.883 79.7508 195.866 79.2058 197.021C78.6608 198.176 78.3691 200.605 78.3691 200.605L72.3755 221.183C72.3755 221.183 71.0304 224.953 71.0304 225.762C71.0304 226.571 70.4805 230.335 70.184 230.335C69.8875 230.335 70.184 230.785 70.184 230.785L69.1126 235.843C69.1126 235.843 61.3251 235.404 57.6971 232.733C57.6971 232.733 58.5738 227.85 58.5738 227.038C58.5738 226.227 58.0102 225.762 58.5738 225.762C59.1374 225.762 59.227 225.258 59.227 225.258C59.227 225.258 59.1682 222.445 59.8601 221.183C60.552 219.92 60.3287 217.321 60.8224 216.722C61.3161 216.123 61.7152 211.856 61.7152 210.799C61.7152 209.741 62.7386 202.549 63.5894 200.15C64.4402 197.751 71.0304 161.934 71.0304 161.934L69.6766 145.957C69.6766 145.957 70.4944 144.773 71.0304 143.962C73.7656 139.828 71.3347 134.954 72.1666 131.251C72.7934 128.462 73.5892 127.407 72.9745 126.044C72.6979 125.43 71.439 125.147 71.0304 124.156L89.2376 119.431C89.2376 119.431 91.368 121.696 90.7387 124.156C90.1094 126.615 90.7387 127.877 90.7387 127.877Z" fill="#3A5971"/>
<path fill-rule="evenodd" clip-rule="evenodd" d="M59.2706 233.588C59.2706 233.588 58.2279 237.043 57.6814 238.243C57.1348 239.442 57.2214 241.642 57.2214 242.706L67.3047 244.138C66.8887 243.356 66.6005 242.644 66.6005 242.223C66.6005 241.012 66.6005 241.05 66.6005 240.376C66.6005 239.702 66.4114 239.639 66.4114 238.939C66.4114 238.239 66.2436 237.184 66.938 235.595L59.2706 233.588Z" fill="#F9C5B4"/>
<path fill-rule="evenodd" clip-rule="evenodd" d="M59.2706 233.588C59.2706 233.588 58.228 237.043 57.6814 238.243C57.1349 239.442 57.1846 241.514 57.1846 242.579C57.1846 243.643 56.2268 248.197 56.9541 249.123C56.9541 249.123 56.9959 247.627 57.3379 246.245C57.5811 245.262 58.4435 244.199 58.6961 242.735C58.8797 241.671 58.6571 240.472 58.9218 239.09C59.1376 237.963 60.6417 233.947 60.6417 233.947C59.7276 233.708 59.2706 233.588 59.2706 233.588Z" fill="#FFDFD4"/>
<path fill-rule="evenodd" clip-rule="evenodd" d="M58.6917 235.462C58.4912 236.037 57.837 237.901 57.6815 238.243C57.1349 239.442 57.0674 241.728 57.0674 242.792L67.3048 244.138C66.8888 243.356 66.6006 242.644 66.6006 242.223C66.6006 241.012 66.6006 241.05 66.6006 240.376C66.6006 239.702 66.4015 238.322 66.4015 237.622C66.4015 237.622 62.7817 237.635 60.946 237.156C60.0555 236.923 58.6917 235.462 58.6917 235.462Z" fill="#DFDEDE"/>
<path fill-rule="evenodd" clip-rule="evenodd" d="M78.3477 256.773C78.3477 257.624 78.2977 258.354 76.467 259.401C74.6363 260.447 70.0062 261.688 67.5039 259.81C65.0016 257.932 64.6486 255.178 62.0375 254.179C59.4264 253.181 55.3155 251.96 54.9404 250.945C54.8473 250.694 54.8078 249.426 54.8146 248.429L78.3477 256.773Z" fill="#E0E0E0"/>
<path fill-rule="evenodd" clip-rule="evenodd" d="M61.4864 242.762C64.9424 242.188 66.5249 241.546 67.818 243.002C69.111 244.458 69.7018 246.666 71.3162 248.23C72.9306 249.794 75.6173 252.688 76.5732 253.623C77.5292 254.558 79.7709 256.724 77.5559 258.041C75.3409 259.358 70.6576 259.919 68.1553 258.041C65.6529 256.163 64.6486 253.028 62.0375 252.029C59.4264 251.031 55.2093 249.708 54.8341 248.693C54.459 247.678 55.7465 238.607 56.6322 239.677C57.5179 240.746 58.0304 243.335 61.4864 242.762Z" fill="#4B4B4B"/>
<path fill-rule="evenodd" clip-rule="evenodd" d="M70.184 230.785L69.1126 235.843C69.1126 235.843 61.3251 235.404 57.6971 232.733C57.6971 232.733 58.5738 227.85 58.5738 227.038C58.5738 226.227 58.0102 225.762 58.5738 225.762C58.8492 225.762 60.8271 227.102 64.8555 228.739C66.3243 229.336 70.184 230.785 70.184 230.785Z" fill="#9D9A91"/>
<path fill-rule="evenodd" clip-rule="evenodd" d="M58.087 233.006C57.9532 232.917 57.8233 232.826 57.6971 232.733C57.6971 232.733 58.5738 227.85 58.5738 227.038C58.5738 226.227 58.0102 225.762 58.5738 225.762C58.6926 225.762 59.1285 226.012 59.9094 226.427L58.087 233.006Z" fill="#716F67"/>
<path fill-rule="evenodd" clip-rule="evenodd" d="M44.6361 125.279C44.6361 125.279 45.5407 135.332 46.0846 139.08C47.9398 151.865 49.6476 158.667 50.6122 162.218C52.4833 169.106 58.5779 184.987 58.5779 187.302C58.5779 189.617 59.6196 191.364 59.996 191.728C60.3724 192.092 60.0338 194.535 60.5215 194.917C61.4163 195.617 60.9439 196.3 61.4163 197.201C61.9395 198.198 62.7375 199.052 63.0128 199.403C63.5368 200.07 80.3859 236.172 80.3859 236.172V237.531L83.2673 243.931C83.2673 243.931 92.2271 242.345 94.2136 238.538L91.0468 229.64H90.2922C90.2922 229.64 84.4944 211.409 82.4402 208.304C80.3859 205.2 78.2838 200.386 78.2838 200.386C78.2838 200.386 77.9547 197.315 76.6388 195.719C75.3229 194.124 77.0796 192.087 76.6388 191.04C76.198 189.992 74.7755 189.724 75.2618 188.141C75.7482 186.558 75.3114 184.723 74.8558 184.084C74.4002 183.444 74.4051 178.824 74.4051 177.792C74.4051 176.759 71.2269 167.195 71.2269 164.964C71.2269 162.734 70.0675 146.896 70.0675 146.357C70.0675 146.056 71.2269 144.778 72.104 142.235C72.9812 139.692 71.8899 131.786 72.5842 130.488C74.1577 127.546 73.6291 125.681 71.2269 124.097C71.2269 124.097 88.4194 121.538 88.7849 122.514C88.7849 122.514 91.0468 124.1 91.0468 122.514C91.0468 120.928 89.5145 119.489 89.5145 119.489L44.6361 125.279Z" fill="#304D63"/>
<path fill-rule="evenodd" clip-rule="evenodd" d="M44.5104 124.611C44.5104 124.611 45.5407 135.332 46.0845 139.08C47.2287 146.965 48.3168 152.574 49.2091 156.549C49.7636 159.018 50.2425 160.857 50.6122 162.218C51.2882 164.707 50.5741 162.325 50.6122 154.722C50.6212 152.931 51.2585 150.744 51.2937 148.386C51.3161 146.889 52.0932 144.92 52.1789 142.354C52.2324 140.754 50.6169 138.42 50.6122 135.002C50.6107 133.924 48.8768 132.101 49.2091 129.972C49.3005 129.386 51.3038 128.98 51.4204 128.314C51.6318 127.109 52.1789 124.611 52.1789 124.611H44.5104Z" fill="#254054"/>
<path fill-rule="evenodd" clip-rule="evenodd" d="M85.46 243.239C85.46 243.239 90.3071 251.147 91.6002 251.774C92.2056 252.068 96.7223 253.002 97.9896 251.253C99.4295 249.267 99.3321 246.73 98.9089 246.52C98.1132 246.125 96.3735 244.192 95.8293 243.529C95.2852 242.866 92.9248 239.562 92.9248 239.562L85.46 243.239Z" fill="#F9C5B4"/>
<path fill-rule="evenodd" clip-rule="evenodd" d="M85.4604 243.275C85.4604 243.275 91.7381 253.335 93.0312 253.962L93.5978 252.841C90.6795 251.298 86.1876 242.883 86.1876 242.883L85.4604 243.275Z" fill="#EFAC96"/>
<path fill-rule="evenodd" clip-rule="evenodd" d="M86.4631 244.875C86.6273 245.124 87.5722 246.711 87.6815 246.892C89.6988 250.23 90.9198 251.444 91.6002 251.774C92.2056 252.068 96.7223 253.002 97.9896 251.253C99.4295 249.267 99.3321 246.73 98.9089 246.52C98.1132 246.125 96.4932 244.265 95.9491 243.603C95.7813 243.398 94.8426 242.289 94.4741 241.724C94.4741 241.724 94.7342 244.108 93.3822 244.875C91.322 246.042 86.4631 244.875 86.4631 244.875Z" fill="#DFDEDE"/>
<path fill-rule="evenodd" clip-rule="evenodd" d="M90.2546 251.938C90.6311 253.448 91.5188 254.338 92.1931 254.752C93.7314 255.696 97.3196 261.507 98.7986 263.819C100.278 266.131 103.895 266.214 107.28 265.127C110.665 264.041 108.154 259.253 107.28 258.714L90.2546 251.938Z" fill="#E0E0E0"/>
<path fill-rule="evenodd" clip-rule="evenodd" d="M88 247.424C88 247.424 90.1936 252.969 91.7319 253.914C93.2701 254.859 96.7937 260.536 98.5674 262.755C100.341 264.973 103.675 264.535 106.808 263.786C109.941 263.038 108.559 260.421 107.771 258.496C106.983 256.572 104.318 253.914 102.425 251.368C100.531 248.822 98.4011 245.334 97.9125 245.334C97.4239 245.334 99.2488 247.971 97.9125 249.307C96.5762 250.643 93.4703 251.51 91.399 250.631C89.3278 249.752 88 247.424 88 247.424Z" fill="#4B4B4B"/>
<path fill-rule="evenodd" clip-rule="evenodd" d="M80.3858 236.172L80.0404 236.786L83.2672 243.931C83.2672 243.931 92.227 242.345 94.2136 238.538L91.0467 229.64H90.2922L80.3858 236.172Z" fill="#9D9A91"/>
<path fill-rule="evenodd" clip-rule="evenodd" d="M80.3858 236.172L80.0404 236.786L83.2672 243.931C83.2672 243.931 83.7193 243.85 83.9403 243.807L81.2147 235.625L80.3858 236.172Z" fill="#716F67"/>
<path fill-rule="evenodd" clip-rule="evenodd" d="M56.7685 42.1573C56.7685 42.1573 56.056 41.7683 55.6205 42.1573C55.185 42.5463 53.8147 43.7035 52.0416 43.7035C50.2686 43.7035 37.9797 48.0635 36.6503 50.0298C35.3209 51.996 29.4189 61.7517 28.3696 69.3683C28.3696 69.3683 25.0585 82.6457 23.5127 84.1596C21.9669 85.6735 20.0296 92.1489 21.8056 94.5819L43.5532 80.8255C43.5532 80.8255 43.6072 95.2794 42.7358 98.3125C41.8644 101.346 41.4727 105.774 41.397 108.024C41.3476 109.489 41.4727 110.575 41.5946 111.776C41.6638 112.459 41.4727 113.538 41.1187 114.972C40.7647 116.405 40.8425 117.564 41.1187 118.397C41.3771 119.177 42.1819 119.184 42.3819 120.06C42.9237 122.432 43.2395 125.012 45.176 125.012C48.5911 125.012 61.7564 125.012 64.3767 125.012C66.997 125.012 75.9767 123.408 77.6177 122.736C79.2587 122.064 88.7986 119.982 90.6188 118.759L90.0006 116.333C90.0006 116.333 87.6976 108.913 88.8491 106.196C89.3437 105.028 90.573 105.193 91.4905 103.938C92.709 102.271 93.6005 99.1626 93.6644 97.4579C93.7764 94.4695 93.6097 93.6317 93.5848 92.1238C93.5615 90.7162 93.2404 89.5611 93.3367 88.6329C93.4471 87.569 94.0044 86.8079 94.4627 86.3878C95.3162 85.6054 96.2232 85.6405 96.8389 85.6286C97.6014 85.6139 98.2843 86.3557 98.9584 87.8543C100.177 90.5631 101.997 91.1671 101.997 91.1671C101.997 91.1671 100.036 94.5294 100.036 95.6148C100.036 96.7003 93.6644 100.763 93.6644 102.766C93.6644 104.769 93.6644 106.196 93.6644 106.196L91.7893 108.024C91.7893 108.024 93.6674 108.804 94.3712 109.244C95.5563 109.985 96.2936 110.837 96.6899 111.233C97.6746 112.219 97.8795 113.336 97.6301 113.828C97.3708 114.34 96.4539 115.282 96.4539 115.282C96.4539 115.282 97.2643 115.633 97.8039 114.972C98.3434 114.31 100.373 112.126 100.373 112.126C100.373 112.126 102.981 113.176 105.362 110.672C107.743 108.168 110.434 104.7 111.598 103.109C112.763 101.518 114.448 99.6 114.122 97.9939C114.122 97.9939 117.626 94.0907 117.469 90.4638C117.312 86.837 117.469 81.3592 117.469 79.8152C117.469 78.2712 115.604 78.166 114.938 77.3141C114.541 76.8051 112.128 71.9538 108.567 67.5288C106.169 64.5482 102.767 62.2684 100.931 59.7214C98.7806 56.7387 97.5264 56.4854 96.1154 54.7757C94.0612 52.2865 93.129 50.6267 88.2538 48.2434C83.2428 45.7937 81.518 46.2803 79.4156 45.0828C77.3133 43.8853 76.1991 42.1573 74.2975 42.1573C72.3959 42.1573 56.7685 42.1573 56.7685 42.1573Z" fill="#4993F3"/>
<path fill-rule="evenodd" clip-rule="evenodd" d="M56.9322 10.3425C56.9322 10.3425 52.1324 17.4893 52.1324 18.9491C52.1324 19.2503 52.254 19.5063 52.2924 19.8495C52.3304 20.1884 52.2227 20.3361 52.2924 20.8611C52.3622 21.3861 52.7236 21.8634 52.7372 22.2476C52.7572 22.8136 52.607 23.3433 52.3772 23.7436C51.9959 24.4076 51.3309 25.4275 51.2854 26.1925C51.2528 26.7398 51.5497 27.183 52.1324 27.3783C52.1324 27.3783 51.9978 27.5194 51.681 28.1175C51.5421 28.3798 51.4119 28.7495 51.3703 29.1071C51.3172 29.5651 51.4872 30.0292 51.583 30.4037C51.821 31.3345 52.786 32.4687 52.1324 34.2201C51.4787 35.9714 51.1942 38.9952 54.7434 39.7528C56.1824 40.06 57.076 40.1481 57.7742 40.1442C58.798 40.1385 57.9025 41.4727 56.9322 42.0335C56.5273 42.2676 56.0531 42.6701 55.8314 43.1313C55.4359 43.9538 56.4882 45.6355 57.0682 46.2822C57.9122 47.223 61.0158 48.918 63.2471 49.3908C65.3193 49.8298 69.2189 50.338 71.6334 49.8919C74.0479 49.4457 75.7518 47.1258 76.0818 45.9728C76.4166 44.8033 75.005 43.5412 74.1752 41.6989C73.5957 40.4122 73.6079 38.5938 73.5022 37.3621C73.1939 33.7719 73.8104 31.113 73.8506 30.8489C74.0727 29.3906 76.3474 27.883 76.9851 25.4575C77.5727 23.2227 76.3573 21.4698 75.7773 21.4698C74.1013 21.4698 68.2355 17.8599 67.0637 17.0491C67.0637 17.0491 69.1241 15.5488 68.5553 12.3959C68.2999 10.9802 66.4277 10.1965 63.9566 9.94831C62.0825 9.7601 56.9322 10.3425 56.9322 10.3425Z" fill="#F9C5B4"/>
<path fill-rule="evenodd" clip-rule="evenodd" d="M56.9322 10.3425C56.9322 10.3425 52.1324 17.4893 52.1324 18.9492C52.1324 19.2503 52.254 19.5064 52.2924 19.8495C52.3304 20.1885 52.2227 20.3361 52.2924 20.8611C52.3622 21.3861 52.7236 21.8634 52.7372 22.2476C52.7572 22.8136 52.607 23.3433 52.3772 23.7436C51.9959 24.4076 51.3309 25.4275 51.2854 26.1925C51.2528 26.7398 51.5497 27.183 52.1324 27.3783C52.1324 27.3783 51.9978 27.5194 51.681 28.1176C51.5421 28.3798 51.4119 28.7495 51.3703 29.1072C51.3172 29.5652 51.4836 30.0432 51.5793 30.4177C51.8173 31.3485 52.786 32.4687 52.1324 34.2201C52.0699 34.3874 52.6251 33.4541 52.7372 32.0516C52.784 31.4666 52.1916 30.8981 52.1324 30.1931C52.0638 29.3776 52.5859 28.3558 52.6269 27.5026C52.6744 26.5144 51.7889 27.0312 51.987 25.8453C52.3049 23.9428 54.0107 22.342 54.5232 19.9302C54.7018 19.0894 53.788 18.1194 53.788 18.1194C54.4349 15.5133 57.9508 10.3425 57.9508 10.3425L56.9322 10.3425Z" fill="#FFDFD4"/>
<path fill-rule="evenodd" clip-rule="evenodd" d="M57.7741 40.1442C58.798 40.1385 57.9025 41.4726 56.9322 42.0335C56.5273 42.2676 56.0531 42.6701 55.8314 43.1313C55.4359 43.9538 56.4881 45.6355 57.0682 46.2822C57.9122 47.223 61.0158 48.918 63.2471 49.3907C65.3193 49.8298 66.7097 37.7901 62.1129 39.4041C59.748 40.2345 57.537 40.1455 57.7741 40.1442Z" fill="#EFAC96"/>
<path fill-rule="evenodd" clip-rule="evenodd" d="M56.92 10.3616C56.92 10.3616 54.2831 7.26488 57.6551 3.87956C57.6551 3.87956 57.4749 4.81716 57.4749 4.92953C57.4749 4.92953 59.3639 0.983921 61.9408 0.339732C64.5178 -0.304458 64.2932 1.50306 65.5445 1.67386C66.7958 1.84465 68.0648 1.20711 69.9486 2.4648C71.8324 3.7225 72.9994 5.45694 76.3123 5.1586C76.3123 5.1586 75.8878 6.45023 74.5158 7.20607C74.5158 7.20607 74.5337 8.2902 76.4408 8.51289C78.3479 8.73557 78.3562 10.5989 78.9694 11.0919C79.5825 11.585 80.3789 12.7247 80.624 14.3534C80.8691 15.9822 82.2196 18.3048 82.2196 18.895C82.2196 19.4851 81.8392 20.63 82.2196 21.7629C82.6 22.8958 80.3366 23.9194 80.3366 25.5122C80.3366 27.1049 78.7113 27.9816 77.1445 30.4241C75.363 33.2013 73.5468 36.235 73.5468 37.1759C73.5468 38.9444 72.8871 31.2906 74.5158 29.4451C76.1444 27.5996 77.1445 25.9019 77.1445 24.4474C77.1445 22.993 76.4019 21.2352 75.4588 21.4991C74.5158 21.7629 72.1247 23.3066 71.1711 24.2327C70.2175 25.1588 69.7289 27.5015 69.5789 28.2468C69.429 28.9921 69.2859 29.6232 69.1779 30.7377C69.0447 32.1113 68.9903 33.57 68.9092 34.1122C68.7621 35.0943 64.7726 39.1432 61.0979 39.8738C59.5566 40.1802 57.6251 40.1802 56.2047 40.0312C54.2908 39.8306 52.7407 39.1563 52.2434 38.274C51.8703 37.6121 51.6751 36.7993 51.7488 35.8191C51.7979 35.166 52.1811 34.0647 52.1811 34.0647C52.1811 34.0647 52.4886 34.8565 52.4886 35.6695C52.4886 36.4825 53.3725 36.3928 53.3725 35.5071C53.3725 34.6215 52.3472 33.6593 53.5197 33.6593C53.7703 33.6593 54.1235 33.829 54.3936 33.8009C54.705 33.7686 54.9542 33.6643 55.2047 33.6593C55.7533 33.6484 56.2447 33.9269 55.703 34.4539C55.1833 34.9595 54.9461 35.5632 55.1065 35.9686C55.189 36.1771 55.4955 36.2602 55.9616 36.1173C56.4019 35.9823 57.2185 35.7023 57.889 35.0793C58.8926 34.1469 59.5984 33.5529 59.7949 32.8721C59.8687 32.6164 59.8376 32.3404 59.6656 32.0157C59.0356 30.8265 55.9703 30.3534 54.7768 29.8992C54.4599 29.7787 53.8592 29.8184 53.5197 29.8992C52.5803 30.1229 51.9193 30.8097 51.607 30.4241C51.3014 30.0467 51.2137 29.0019 51.607 28.2468C51.7607 27.9519 51.8672 27.6006 52.2434 27.5015C52.4784 27.4395 52.7103 27.368 52.9682 27.3635C53.3264 27.3572 53.7163 27.4277 54.069 27.3635C54.4946 27.2859 54.8178 27.1789 55.2047 27.1049C55.5822 27.0328 56.0245 26.9912 56.3478 27.1049C57.4749 27.5015 57.9533 28.6714 59.5566 28.6714C61.1598 28.6714 60.7854 31.6704 60.7854 32.0157C60.7854 32.3609 61.2604 32.7407 61.6006 32.0157C61.9408 31.2906 64.0433 28.2693 65.8475 27.5015C67.6518 26.7337 69.2198 21.2299 68.7608 19.6562C68.3019 18.0825 67.1205 17.1125 67.1205 17.1125C67.1205 17.1125 68.188 16.1835 68.47 15.0047C68.752 13.8258 68.752 11.9528 67.6646 11.0919C66.5476 10.2076 64.7051 9.99749 62.677 9.95406C60.9439 9.91695 56.92 10.3616 56.92 10.3616Z" fill="#2A150F"/>
<path fill-rule="evenodd" clip-rule="evenodd" d="M56.9273 10.3664C56.9273 10.3664 54.2831 7.26488 57.6551 3.87956C57.6551 3.87956 57.4749 4.81716 57.4749 4.92953C57.4749 4.92953 59.3639 0.983921 61.9408 0.339732C64.5177 -0.304458 64.2932 1.50306 65.5445 1.67386C66.7958 1.84465 68.0648 1.20711 69.9486 2.4648C71.8324 3.7225 72.9994 5.45694 76.3123 5.1586C76.3123 5.1586 73.9242 5.67975 72.0081 4.67102C70.7818 4.02538 69.4109 3.57347 68.2797 3.12115C67.2498 2.70936 65.6634 2.98564 65.1118 2.8761C63.2072 2.49789 63.1532 2.18361 62.3441 2.21183C60.728 2.26818 59.9719 5.11139 59.613 5.28395C56.7246 6.67276 58.8968 10.1608 58.8968 10.1608C58.2834 10.2095 56.9273 10.3664 56.9273 10.3664Z" fill="#533126"/>
<path fill-rule="evenodd" clip-rule="evenodd" d="M52.5938 17.5111C52.5938 17.5111 53.2774 17.7191 53.5347 17.9204C54.6557 18.7973 54.7862 19.7666 54.2592 20.7568C53.2871 22.583 51.8071 24.7117 51.8071 24.7117C51.8071 24.7117 52.8286 22.7766 52.5938 21.6794C52.3589 20.5822 52.2766 20.2684 52.3177 19.9034C52.3589 19.5385 52.0417 18.963 52.3177 18.237C52.5938 17.5111 52.5938 17.5111 52.5938 17.5111Z" fill="#EFAC96"/>
<path fill-rule="evenodd" clip-rule="evenodd" d="M57.1375 19.0441C57.1375 19.0441 56.3902 18.9199 56.6374 18.3282C56.8846 17.7365 57.7946 17.3963 58.6239 17.6819C59.4531 17.9676 60.5524 17.6116 61.0866 17.9699C61.6209 18.3282 63.0827 19.6977 63.0827 20.3491C63.0827 20.7982 62.5468 20.1246 61.6143 19.5822C61.1945 19.3381 60.7197 19.1121 60.1264 19.1031C59.5785 19.0947 58.544 19.1115 58.0808 19.1031C57.6177 19.0947 57.1375 19.0441 57.1375 19.0441Z" fill="#0A1420"/>
<path fill-rule="evenodd" clip-rule="evenodd" d="M52.2152 19.2618C52.2152 19.2618 53.3971 19.0688 53.5182 18.7829C53.6392 18.4971 53.7922 17.9962 53.5182 17.8469C53.2441 17.6976 52.6552 17.4682 52.6552 17.4682C52.6552 17.4682 52.3619 17.9186 52.2152 18.5166C52.1544 18.7642 52.2152 19.2618 52.2152 19.2618Z" fill="#0A1420"/>
<path fill-rule="evenodd" clip-rule="evenodd" d="M70.518 29.4591C70.518 29.4591 70.6172 30.5944 71.1436 30.5944L70.226 30.7473L70.518 29.4591Z" fill="#EFAC96"/>
<path fill-rule="evenodd" clip-rule="evenodd" d="M72.7855 25.5707C72.7855 25.5707 72.4869 25.437 72.3004 25.7185C72.1139 25.9999 72.3329 26.3309 72.0123 26.6794C71.6917 27.028 71.2859 27.4933 71.6072 27.787C71.8207 27.9823 72.0406 27.9645 72.2294 27.787C72.3246 27.6975 72.3591 27.5627 72.4879 27.4037C72.8723 26.9295 73.6086 27.6702 74.2676 27.4037C74.9266 27.1372 75.5145 26.0063 75.2386 25.5707" fill="#EFAC96"/>
<path fill-rule="evenodd" clip-rule="evenodd" d="M73.7438 23.5871C73.7438 23.5871 74.6771 22.2535 75.4387 22.3955C76.2003 22.5375 76.7736 23.645 76.618 24.3611C76.4624 25.0772 76.2262 26.3996 75.1937 27.5009C75.1937 27.5009 75.7995 25.876 75.9364 25.2776C76.1319 24.4232 76.1128 24.1393 76.0246 23.8114C75.9364 23.4836 75.6767 23.2401 75.5141 23.1217C75.2459 22.9263 74.7959 22.8319 74.6362 23.1217C74.3795 23.5871 74.6074 23.815 74.1756 23.9815C73.7438 24.148 73.7438 23.5871 73.7438 23.5871Z" fill="#EFAC96"/>
<path fill-rule="evenodd" clip-rule="evenodd" d="M38.3922 75.8345C38.3922 75.8345 40.5094 60.4364 45.4973 57.1083C50.4852 53.7801 53.7384 60.3669 53.7384 60.3669V63.3915H48.7518L47.3294 61.8493L43.1735 75.0096L38.3922 75.8345Z" fill="#061D2C"/>
<path fill-rule="evenodd" clip-rule="evenodd" d="M37.1327 77.4554C37.1327 77.4554 36.6924 83.6906 41.1813 84.382C41.1813 84.382 42.1806 82.9317 43.2806 81.348C44.3805 79.7644 44.9903 78.513 45.6108 78.513C46.2312 78.513 49.264 77.0899 49.8595 76.2479C50.4549 75.4059 52.4253 74.2305 53.5861 74.2305C54.7469 74.2305 55.5946 74.5909 55.5946 72.0742C55.5946 72.0742 56.947 70.8259 56.2708 69.3906C56.2708 69.3906 57.4142 67.7966 56.2708 66.6504C56.2708 66.6504 57.0172 64.518 55.8922 63.8878C55.8922 63.8878 52.6982 62.794 51.4761 62.794C50.2541 62.794 48.5525 63.0478 46.9679 63.6009C46.9679 63.6009 46.9679 62.4127 46.9679 61.3374C46.9679 61.3374 48.6692 59.1611 48.6692 58.0843C48.6692 57.0075 47.5847 56.6081 47.2763 57.0429C47.0146 57.412 45.7836 58.93 44.7957 59.7144C44.656 59.8253 44.5048 60.0646 44.448 60.1591C44.4322 60.1855 44.4179 60.2125 44.4052 60.2404C44.3621 60.3353 44.2615 60.5723 44.2486 60.7465C44.081 63.0114 43.8833 64.3907 43.6556 64.8842C43.2806 65.6972 43.8214 68.7631 43.2806 69.9699C42.7398 71.1768 40.7877 71.9027 40.1847 72.8533C39.5818 73.8038 37.1327 77.4554 37.1327 77.4554Z" fill="#F3B7A3"/>
<path fill-rule="evenodd" clip-rule="evenodd" d="M37.1327 77.4554C37.1327 77.4554 37.0816 79.0982 37.1618 79.8006C37.2082 80.2072 38.0118 80.972 39.215 80.2487C40.1175 79.7062 41.1849 78.9075 42.1003 77.6532C42.4488 77.1757 43.0166 76.4511 43.4958 76.2004C44.2971 75.7811 44.6645 75.7811 45.4468 75.1903C46.3929 74.4759 47.9047 73.4094 48.4435 72.6728C50.0532 70.4723 48.1316 70.5416 48.6692 68.5007C49.0286 67.136 48.0505 66.6193 47.9059 65.764C47.7964 65.1159 47.5555 64.0835 45.9397 64.0835C44.7559 64.0835 45.0421 62.4488 45.2798 61.3717C45.3665 60.9787 45.3665 60.6358 45.4468 60.522C45.4468 60.522 45.717 60.2133 45.8441 60.0668C47.5278 58.1261 48.2723 57.1007 48.0775 56.9905C47.7706 56.8169 47.4287 56.8281 47.2763 57.0429C47.0538 57.3567 46.1306 58.501 45.2519 59.3188C45.1564 59.4077 45.039 59.5048 44.9196 59.5983C44.5363 59.8987 44.2786 60.3372 44.2428 60.8228C44.2405 60.8539 44.2383 60.8829 44.2363 60.909C44.0714 63.0775 43.8778 64.4026 43.6556 64.8842C43.2805 65.6972 43.8213 68.7631 43.2805 69.9699C42.7397 71.1768 40.7877 71.9027 40.1847 72.8533C39.5817 73.8038 37.1327 77.4554 37.1327 77.4554Z" fill="#F9C5B4"/>
<path fill-rule="evenodd" clip-rule="evenodd" d="M46.9679 63.6009C46.9679 63.6009 46.9679 62.4127 46.9679 61.3374C46.9679 61.3374 48.6692 59.1612 48.6692 58.0843C48.6692 57.7405 48.5586 57.4658 48.3981 57.2652C48.3981 57.2652 48.2986 57.8922 48.2266 58.1727C48.0629 58.8109 47.8459 59.1642 47.5676 59.649C47.049 60.5526 46.206 60.5873 46.0349 60.9583C45.8441 61.3719 46.1738 62.7439 45.8591 64.1037C46.9006 63.6762 47.7463 63.3292 46.9679 63.6009Z" fill="#DB967E"/>
<path fill-rule="evenodd" clip-rule="evenodd" d="M49.0429 65.5612C49.5439 65.4152 50.2339 65.437 50.7655 65.6148C51.2971 65.7925 52.3566 65.9351 53.6887 66.2036C55.0207 66.4722 56.2886 66.7284 56.2886 66.7284L56.4093 66.2036C56.4093 66.2036 55.2728 66.2598 54.548 65.9927C53.8232 65.7255 52.7348 65.6896 52.2257 65.4242C51.7166 65.1588 50.9453 64.5409 50.1571 64.5409C49.369 64.5409 48.7488 65.0093 48.383 65.3834C48.0172 65.7575 48.5418 65.7071 49.0429 65.5612Z" fill="#DB967E"/>
<path fill-rule="evenodd" clip-rule="evenodd" d="M49.77 68.487C49.77 68.487 49.0325 68.8654 49.3829 68.2011C49.7333 67.5367 50.4095 67.55 50.9724 67.7876C51.5353 68.0252 52.3263 68.3377 52.9655 68.3377C53.6048 68.3377 54.3676 68.3456 54.8562 68.6414C55.3448 68.9373 56.3139 69.1856 56.3139 69.1856V69.4152C56.3139 69.4152 54.8044 68.9134 54.4254 68.9134C54.0463 68.9134 52.0854 68.8392 51.5182 68.6414C50.951 68.4437 49.77 68.487 49.77 68.487Z" fill="#DB967E"/>
<path fill-rule="evenodd" clip-rule="evenodd" d="M49.2766 77.0365C49.2766 77.0365 49.6604 79.7548 49.2766 81.6326C48.8928 83.5105 46.6971 96.5497 46.6971 96.5497C46.6971 96.5497 47.9426 96.917 48.5818 97.0219C49.2211 97.1268 50.5792 97.1867 50.5792 97.1867L51.678 91.3528C51.678 91.3528 53.0489 89.9568 53.0489 88.5468C53.0489 87.1368 54.0176 79.4529 54.0176 77.8158C54.0176 76.1787 54.0176 74.279 54.0176 74.279C54.0176 74.279 52.7851 74.0063 51.4158 74.7871C50.0464 75.568 49.2766 77.0365 49.2766 77.0365Z" fill="#061D2C"/>
<path fill-rule="evenodd" clip-rule="evenodd" d="M49.3864 77.9511C49.5249 79.3699 49.4883 80.5971 49.2766 81.6327C48.8928 83.5105 46.6971 96.5497 46.6971 96.5497C46.6971 96.5497 47.2292 96.7035 47.4614 96.7658L48.6978 90.0462C48.6978 90.0462 50.3574 90.2766 50.3574 88.8666C50.3574 88.4065 50.7644 86.1479 50.9908 84.9265C51.0743 84.4763 50.8112 84.0336 50.3754 83.8933L49.8475 83.7234C49.8475 82.9346 50.3574 79.5408 50.3574 78.6691C50.3574 77.7975 49.3714 77.7975 49.3864 77.9511Z" fill="#0E2A3C"/>
<path fill-rule="evenodd" clip-rule="evenodd" d="M37.2419 80.1507C37.2419 80.1507 38.3236 81.9218 39.1579 81.9218C39.9923 81.9218 40.5244 80.6313 41.1786 79.9066C41.8328 79.1819 42.7352 79.0165 43.1154 78.7117C43.4955 78.407 44.5322 77.3452 44.9306 77.6107C45.3289 77.8761 46.3466 77.8761 46.8519 77.6107C47.3221 77.3637 48.7477 76.1853 49.2732 75.3965C49.3124 75.3377 49.3466 75.281 49.375 75.227C49.7842 74.4497 50.2969 74.2481 51.1597 73.7799C52.0226 73.3117 53.1502 73.6185 53.9162 73.585C54.6823 73.5516 55.4461 73.5002 55.4461 73.5002C55.4461 73.5002 55.4487 74.4414 53.8333 74.2685C53.2718 74.2084 52.6684 74.3814 52.0238 74.6788C51.4321 74.9519 50.1441 75.8955 50.1441 75.8955C50.1441 75.8955 49.8107 76.3301 49.5973 76.5174C48.7997 77.2178 47.7923 77.7159 46.9769 78.0572C46.3803 78.307 45.9409 78.4771 45.4906 78.5601C45.26 78.6025 45.0732 78.8018 44.8958 79.0007C44.623 79.3066 44.3802 79.6938 44.0952 80.1507C43.4496 81.1856 41.1786 84.5012 41.1786 84.5012C41.1786 84.5012 38.9182 84.0263 38.2616 82.8795C37.6049 81.7328 37.2419 80.1507 37.2419 80.1507Z" fill="#E69F87"/>
<path fill-rule="evenodd" clip-rule="evenodd" d="M49.4094 70.8905C49.4094 70.8905 49.9659 70.1699 50.8943 70.6336C51.8226 71.0972 51.5533 71.2909 52.1489 71.2909C52.7444 71.2909 53.286 71.2909 53.8063 71.2909C54.3267 71.2909 55.0034 71.4208 55.3489 71.6855C55.6944 71.9502 55.6774 72.0376 55.6774 72.0376C55.6774 72.0376 55.4803 72.0911 54.6433 71.8296C53.8063 71.5681 53.2707 71.5681 52.7888 71.5681C52.3069 71.5681 51.8869 71.7026 51.6246 71.4254C51.3623 71.1481 50.6112 71.0281 50.1061 71.1595C49.601 71.2909 49.4094 70.8905 49.4094 70.8905Z" fill="#DB967E"/>
<path fill-rule="evenodd" clip-rule="evenodd" d="M36.9323 77.4082H36.5415L33.146 81.0909C33.146 81.0909 31.6593 80.4177 30.2549 81.0909C28.8505 81.7641 28.1778 83.8592 27.3924 84.9283C26.607 85.9973 23.528 86.4735 22.4015 89.5109C21.275 92.5483 21.2502 96.1825 22.7814 99.5508C22.7814 99.5508 24.7992 99.2672 25.9365 100.471C27.0739 101.674 27.7366 103.423 29.3804 102.548C31.0243 101.674 32.486 102.199 33.7736 102.199C35.0612 102.199 37.9649 98.6246 38.2811 98.0765C38.5973 97.5285 42.5032 89.7019 42.5032 89.1217C42.5032 88.5415 41.8614 87.0607 41.8614 87.0607L43.4547 83.469L42.6798 82.1964L41.1937 84.4489C41.1937 84.4489 38.8345 83.7566 37.8038 82.1964C36.7732 80.6362 36.9323 77.4082 36.9323 77.4082Z" fill="#60A2F8"/>
<path opacity="0.2" fill-rule="evenodd" clip-rule="evenodd" d="M30.2549 102.199C31.8987 101.325 32.486 102.199 33.7736 102.199C35.0612 102.199 37.9649 98.6246 38.2811 98.0766C38.5973 97.5285 42.5032 89.7019 42.5032 89.1217C42.5032 88.5416 41.8614 87.0608 41.8614 87.0608C41.8614 87.0608 39.8645 94.6299 35.0817 98.8118C33.8506 99.8883 30.2549 102.199 30.2549 102.199Z" fill="#8EB1DB"/>
<path fill-rule="evenodd" clip-rule="evenodd" d="M22.3884 89.8736C21.2619 92.911 21.926 96.1252 22.7814 99.5508C22.7814 99.5508 24.7992 99.2673 25.9365 100.471C27.0739 101.674 23.5149 86.8361 22.3884 89.8736Z" fill="#4181D5"/>
<path fill-rule="evenodd" clip-rule="evenodd" d="M36.9322 77.4082H36.5414L33.146 81.0909C33.146 81.0909 33.458 83.8622 34.5524 84.8494C38.2804 88.2122 38.8345 83.7566 37.8038 82.1964C36.7731 80.6362 36.9322 77.4082 36.9322 77.4082Z" fill="#5E9EF1"/>
<path fill-rule="evenodd" clip-rule="evenodd" d="M37.0911 77.4082H36.5414L36.1152 77.8704C36.1152 77.8704 36.1152 81.725 38.2356 83.5201C38.4055 83.6639 38.1973 82.5582 37.9724 82.2177C36.9417 80.6575 37.0911 77.4082 37.0911 77.4082Z" fill="#4181D5"/>
<path fill-rule="evenodd" clip-rule="evenodd" d="M28.4139 83.168C28.0491 83.8147 27.7312 84.467 27.3923 84.9283C27.167 85.235 26.7527 85.493 26.25 85.7766C25.0007 86.4815 24.4053 91.1473 25.9365 94.5156C25.9365 94.5156 26.7747 97.4028 27.0986 97.4074C28.3171 97.4244 27.962 93.2246 27.962 88.3187C27.962 86.5796 28.4139 83.168 28.4139 83.168Z" fill="#4181D5"/>
<path fill-rule="evenodd" clip-rule="evenodd" d="M90.9682 108.114C90.9682 108.114 89.3529 106.71 88.7937 106.33C88.2346 105.95 85.4668 106.818 85.0315 107.13C84.5963 107.441 84.3243 108.276 84.3635 108.401C84.4027 108.526 84.5547 109.125 85.7435 108.533C86.9322 107.94 90.9682 108.114 90.9682 108.114Z" fill="#F3B7A3"/>
<path fill-rule="evenodd" clip-rule="evenodd" d="M88.6103 107.36C87.7379 107.313 86.0011 107.438 85.5658 107.749C85.1306 108.06 84.4309 108.645 84.6228 108.736C84.8144 108.827 85.1495 108.829 85.7434 108.533C86.4797 108.166 87.7193 108.03 90.0938 108.104C90.0938 108.104 89.4827 107.407 88.6103 107.36Z" fill="#E69F87"/>
<path fill-rule="evenodd" clip-rule="evenodd" d="M91.9672 108.144C91.9672 108.144 88.9487 107.936 87.8637 107.936C86.7786 107.936 86.5048 107.924 85.9167 108.37C85.3285 108.816 81.4733 111.97 81.1835 112.57C80.8938 113.17 81.9646 114.079 82.7277 113.632C83.4907 113.186 86.72 110.919 87.05 110.679C87.3801 110.439 88.2977 109.946 88.851 110.369C88.851 110.369 88.6209 110.554 88.2158 110.763C87.8106 110.972 85.1362 113.092 84.8223 113.268C84.5083 113.444 83.1355 114.237 83.4519 114.933C83.7683 115.629 84.4421 115.966 85.1794 115.533C85.9167 115.101 88.6632 113.37 89.2399 113.064C89.8167 112.759 90.4863 112.61 91.2614 112.838C92.0364 113.066 91.2506 113.251 90.3354 113.518C89.4203 113.785 88.6773 114.035 87.8637 114.284C87.05 114.532 86.6451 115.453 87.2544 115.803C87.8637 116.154 90.7082 115.533 91.667 115.803C92.6258 116.073 94.537 116.485 96.4321 115.376C96.4321 115.376 97.6015 114.169 97.735 113.518C97.8461 112.976 97.491 112.252 96.8554 111.412C96.2198 110.572 94.7996 109.377 93.4267 108.747C92.4496 108.299 91.9672 108.144 91.9672 108.144Z" fill="#F3B7A3"/>
<path fill-rule="evenodd" clip-rule="evenodd" d="M89.2417 115.841C90.1747 115.762 91.1721 115.664 91.667 115.803C92.6257 116.073 94.5369 116.485 96.432 115.376C96.432 115.376 97.6015 114.169 97.7349 113.518C97.7349 113.518 96.8199 114.317 95.5125 114.885C94.9967 115.109 94.3326 115.516 93.7639 115.531C92.9824 115.552 92.6419 115.435 91.9682 115.376C90.683 115.263 88.3671 115.915 89.2417 115.841Z" fill="#E69F87"/>
<path fill-rule="evenodd" clip-rule="evenodd" d="M21.9653 227.058H21.5842L19.4346 239.302L23.8479 240.029L26.1037 228.508L25.6944 228.062L21.9653 227.058Z" fill="#061D2C"/>
<path opacity="0.5" fill-rule="evenodd" clip-rule="evenodd" d="M87.8636 107.936C86.7786 107.936 86.5048 107.924 85.9166 108.37C85.4668 108.711 83.1054 110.637 81.8903 111.792C81.8903 111.792 82.3336 111.792 82.5552 112.05C82.5552 112.05 83.1608 111.618 83.403 111.408C84.7435 110.243 85.4423 109.554 85.6286 109.418C85.9587 109.178 88.9486 107.936 87.8636 107.936Z" fill="#FFDFD4"/>
<path fill-rule="evenodd" clip-rule="evenodd" d="M46.7168 96.4482L22.006 227.024C22.006 227.024 22.3122 229.136 25.6008 228.445L50.8311 97.037C50.8311 97.037 49.7593 97.161 48.7383 97.037C47.7174 96.9129 46.7168 96.4482 46.7168 96.4482Z" fill="#E8E8E8"/>
<path fill-rule="evenodd" clip-rule="evenodd" d="M51.6909 91.2709C51.6909 91.2709 52.4098 97.9151 54.2808 100.407C56.1519 102.898 58.7028 111.891 58.7028 111.891V115.403C58.7028 115.403 56.4467 106.858 54.2808 105.135C52.115 103.412 50.5293 97.4668 50.5293 97.4668L51.6909 91.2709Z" fill="#5E9EF1"/>
<path fill-rule="evenodd" clip-rule="evenodd" d="M24.5232 228.602C24.8508 228.579 25.21 228.527 25.6008 228.445L50.8293 97.0403C50.8293 97.0403 49.9251 97.1121 49.4834 97.0976L24.5232 228.602Z" fill="#ADACAC"/>
<path fill-rule="evenodd" clip-rule="evenodd" d="M1.05261 254.031V255.316C1.05261 255.316 2.2449 255.495 2.98775 255.552C3.32414 255.578 3.77791 255.525 4.14013 255.552C5.56764 255.662 5.69227 255.742 6.69961 255.756C6.92237 255.759 7.19354 255.527 7.52562 255.552C9.35937 255.693 9.46669 255.961 11.294 256.101C12.7509 256.213 13.1346 256.278 14.1048 256.279C14.3515 256.279 14.6766 256.075 15.0194 256.101C16.7103 256.23 16.4221 256.494 18.3304 256.64C19.8881 256.76 20.1534 256.847 21.2607 256.859C21.5099 256.862 21.8405 256.613 22.1941 256.64C24.1195 256.788 24.215 257.092 25.9978 257.228C27.4618 257.34 27.6724 257.377 28.6962 257.39C28.9191 257.393 29.1991 257.204 29.5182 257.228C31.3027 257.365 31.9614 257.685 33.1323 257.775C33.3251 257.79 33.5976 257.76 33.8291 257.775C34.5349 257.82 36.4262 257.955 36.4262 257.955L38.1136 255.993V254.656L1.05261 254.031Z" fill="#ECECEC"/>
<path fill-rule="evenodd" clip-rule="evenodd" d="M0.655396 250.704V253.137C0.655396 253.613 1.02071 254.008 1.49508 254.042C6.78045 254.421 35.2555 256.46 36.1637 256.46C37.165 256.46 38.5763 254.026 38.5763 253.487C38.5763 252.948 37.8658 250.704 37.8658 250.704H0.655396Z" fill="#061D2C"/>
<path fill-rule="evenodd" clip-rule="evenodd" d="M10.808 247.777H3.38253C3.38253 247.777 0.047278 250.436 0.880371 251.169C1.71346 251.902 35.1082 253.857 35.8532 253.857C36.5983 253.857 37.8188 251.015 37.8188 250.516C37.8188 250.018 30.9416 249.536 30.9416 249.536L10.808 247.777Z" fill="#041724"/>
<path fill-rule="evenodd" clip-rule="evenodd" d="M34.8651 159.168C34.7564 159.135 34.69 159.027 34.7083 158.915L35.3788 154.816C35.407 154.644 35.6116 154.567 35.7553 154.665C35.7969 154.694 35.8373 154.72 35.8725 154.74C36.4347 155.058 37.1956 155.224 38.023 155.297C38.5226 155.341 39.5535 155.274 40.0702 155.235C40.2236 155.224 40.3447 155.364 40.3106 155.514L39.3278 159.828C39.3032 159.936 39.2052 160.01 39.0949 160.003C38.697 159.977 37.7658 159.906 37.1778 159.791C36.562 159.671 35.3346 159.309 34.8651 159.168ZM39.0811 158.625C39.1348 158.627 39.1817 158.59 39.1942 158.538L39.5496 157.046C39.568 156.968 39.5025 156.896 39.4232 156.906C38.7867 156.984 38.2819 156.977 37.44 156.884C36.9258 156.827 36.0256 156.571 35.7008 156.476C35.6359 156.457 35.5687 156.498 35.5563 156.564L35.3069 157.893C35.298 157.941 35.32 157.989 35.3629 158.011C35.7379 158.206 36.3114 158.365 37.0836 158.489C37.5717 158.567 38.7445 158.613 39.0811 158.625Z" fill="#061D2C"/>
<path fill-rule="evenodd" clip-rule="evenodd" d="M10.6096 250.984C10.6096 250.984 10.125 247.786 11.3489 246.728H17.67C17.67 246.728 17.3693 245.063 17.9667 244.149C18.5642 243.235 22.6418 243.141 23.868 244.564C25.0941 245.988 24.5995 247.269 24.5995 247.269C24.5995 247.269 30.0365 247.481 30.5855 248.14C31.1345 248.799 30.9238 249.497 30.9238 249.497L29.0235 251.929L10.6096 250.984Z" fill="#061D2C"/>
<path opacity="0.5" fill-rule="evenodd" clip-rule="evenodd" d="M30.5854 248.14C31.1344 248.799 30.9237 249.497 30.9237 249.497L29.0235 251.929C29.0235 251.929 28.7028 252.287 28.3536 251.895C27.8618 251.342 30.0364 247.481 30.5854 248.14Z" fill="#0C2D42"/>
<path fill-rule="evenodd" clip-rule="evenodd" d="M17.259 246.727C17.259 246.727 17.1692 244.76 17.259 243.8C17.4258 242.018 18.0237 240.34 18.3955 239.947C19.1125 239.19 20.4741 239.491 22.0359 239.715C23.1881 239.881 24.0919 239.961 24.5814 240.335C25.4596 241.005 26.0272 242.698 26.1008 244.759C26.1293 245.558 26.1478 246.383 25.9856 247.269H24.5814C24.5814 247.269 24.6555 244.112 22.2104 243.704C19.7654 243.295 17.7651 243.884 17.7651 244.759C17.7651 245.634 17.7651 246.727 17.7651 246.727H17.259Z" fill="#D8D8D8"/>
<path opacity="0.5" fill-rule="evenodd" clip-rule="evenodd" d="M24.5814 240.335C25.4596 241.005 26.0272 242.698 26.1008 244.759C26.1293 245.558 26.1478 246.383 25.9856 247.269H24.5814C24.5814 247.269 24.6829 245.969 24.5814 245.522C24.3581 244.54 23.4856 243.841 23.4043 243.4C23.0321 241.383 23.3699 240.605 23.4043 240.172C23.4413 239.708 24.4748 240.253 24.5814 240.335Z" fill="#B1B1B1"/>
<path fill-rule="evenodd" clip-rule="evenodd" d="M88.4941 58.4383C88.4941 58.4383 92.1646 71.3691 93.2254 73.9994C94.2862 76.6298 95.782 83.0092 95.782 83.0092L94.3096 72.4359C94.3096 72.4359 92.1412 64.8009 93.2254 62.8874C93.2254 62.8874 91.4012 65.6728 91.4012 64.714C91.4012 63.7553 88.4941 58.4383 88.4941 58.4383Z" fill="#4181D5"/>
<path fill-rule="evenodd" clip-rule="evenodd" d="M46.9116 119.249C46.9116 119.249 50.6441 119.249 54.8836 119.249C59.1232 119.249 66.997 116.162 69.1345 114.81C71.272 113.458 88.2118 103.11 89.8324 100.438C91.453 97.7653 93.4073 88.6935 93.4073 88.6935C93.4073 88.6935 93.6101 87.4567 95.0501 85.899C95.0501 85.899 90.7883 88.1264 88.6826 94.2821C86.577 100.438 72.6563 110.599 70.8954 110.599C69.1345 110.599 62.8557 117.826 54.8836 117.826C46.9116 117.826 46.9116 119.249 46.9116 119.249Z" fill="#4181D5"/>
<path fill-rule="evenodd" clip-rule="evenodd" d="M27.9583 70.9285L36.2604 53.8275L38.0128 48.8653C38.0128 48.8653 36.6342 49.93 36.2604 50.4568C34.2435 53.2994 33.2471 55.7708 32.6321 57.1689C32.1178 58.3379 30.6629 61.0455 29.3237 65.1299C28.7645 66.8355 27.9583 70.9285 27.9583 70.9285Z" fill="#5E9EF1"/>
<path fill-rule="evenodd" clip-rule="evenodd" d="M97.6753 85.8873C97.6753 85.8873 103.145 84.5218 104.74 83.5458C106.334 82.5697 112.267 80.6244 113.473 80.6244C114.679 80.6244 117.402 79.137 117.402 80.0971C117.402 81.0572 114.571 82.6166 113.473 82.6166C112.375 82.6166 105.781 85.0924 104.74 86.5505C103.698 88.0086 102.6 91.0391 101.669 91.0391C101.32 91.0391 100.673 90.5238 99.8733 89.4348C99.6099 89.0764 99.3133 88.2896 98.7917 87.4296C98.4937 86.9382 97.6753 85.8873 97.6753 85.8873Z" fill="#4181D5"/>
<path fill-rule="evenodd" clip-rule="evenodd" d="M99.8099 96.1366C99.8099 96.1366 102.227 94.7845 102.72 94.7845L103.102 93.9452C103.102 93.9452 101.191 94.9605 101.191 94.7845C101.191 94.6085 101.191 94.1788 101.191 94.1788L103.102 93.2554V92.7483C103.102 92.7483 100.985 93.3536 100.695 93.788C100.405 94.2224 99.8099 96.1366 99.8099 96.1366Z" fill="#4181D5"/>
<path fill-rule="evenodd" clip-rule="evenodd" d="M93.623 106.084L95.0876 104.48C95.0876 104.48 93.7849 102.627 93.7849 102.376C93.7849 102.254 93.6808 102.844 93.623 104.223C93.6018 104.729 93.623 106.084 93.623 106.084Z" fill="#4181D5"/>
<path fill-rule="evenodd" clip-rule="evenodd" d="M53.7388 43.3625C53.7388 43.3625 54.5712 48.5918 58.7869 49.878C63.0026 51.1642 70.7372 52.1781 72.4093 51.3992C74.0815 50.6203 77.6362 48.6782 77.6362 46.9636C77.6362 46.9636 77.7648 48.7846 75.9601 49.878C74.1554 50.9714 72.4521 52.0066 71.0567 52.1411C69.6613 52.2756 60.1471 51.0609 58.2735 50.3698C57.611 50.1254 55.873 49.0181 54.8976 47.8395C53.7293 46.4281 53.4091 44.9159 53.3195 44.4305C53.2264 43.9268 53.1957 43.5498 53.1957 43.5498L53.7388 43.3625Z" fill="#4181D5"/>
<path fill-rule="evenodd" clip-rule="evenodd" d="M46.2279 136.162C46.2279 136.162 51.2736 133.19 51.8544 132.549C52.4353 131.909 54.3188 129.13 53.9333 127.333C53.9333 127.333 54.5203 126.845 55.0124 126.845C55.5046 126.845 55.4902 125.315 55.4902 125.315V127.333C55.4902 127.333 58.7823 127.798 60.6742 127.798C62.566 127.798 65.245 127.333 65.6043 127.333L61.3765 128.166L55.4902 127.798L55.0124 129.23C55.0124 129.23 54.1616 132.616 52.6528 133.523C51.1439 134.429 46.2279 137.094 46.2279 137.54C46.2279 137.985 46.2279 136.162 46.2279 136.162Z" fill="#1B3549"/>
<path fill-rule="evenodd" clip-rule="evenodd" d="M46.5316 135.531C46.5316 135.531 45.4212 131.61 45.9764 130.888C46.5316 130.166 51.2938 129.253 51.6378 129.253C51.9819 129.253 51.6378 131.539 51.6378 131.539L52.5 129.253L52.2504 128.872C52.2504 128.872 50.0769 129.191 48.8607 129.481C47.6445 129.77 45.6276 130.514 45.6276 130.514C45.6276 130.514 45.388 131.277 45.6276 132.685C45.8672 134.092 46.5316 135.531 46.5316 135.531Z" fill="#1B3549"/>
</svg>
