<svg width="270" height="532" viewBox="0 0 270 532" fill="none" xmlns="http://www.w3.org/2000/svg">
<path fill-rule="evenodd" clip-rule="evenodd" d="M192.128 432.173C192.128 432.173 210.376 421.049 218.193 419.834C226.011 418.618 235.362 422.507 235.362 422.507C235.362 422.507 261.867 425.966 263.898 427.206C265.929 428.446 264.363 432.173 262.089 432.173C259.814 432.173 238.621 441.529 238.621 441.529L223.526 438.067L218.193 439.337L192.128 432.173Z" fill="#151D27"/>
<path fill-rule="evenodd" clip-rule="evenodd" d="M193.317 432.5C192.867 432.376 192.783 431.775 193.182 431.534C193.182 431.534 206.931 432.634 213.649 433.712C221.757 435.014 237.66 438.674 237.66 438.674C249.309 432.173 263.073 426.702 263.898 427.206C265.379 428.11 264.948 430.335 263.725 431.476C263.27 431.9 262.739 432.121 262.072 432.257C261.404 432.392 259.329 433.244 255.851 434.613C254.169 435.275 252.472 436.329 250.12 437.168L251.53 440.586C251.53 440.586 246.415 443.289 244.903 443.948C244.903 443.948 241.508 440.259 240.762 440.586C240.065 440.892 238.621 441.529 238.621 441.529L223.526 438.067L218.194 439.337L193.317 432.5Z" fill="#07090D"/>
<path fill-rule="evenodd" clip-rule="evenodd" d="M248.619 481.74C248.619 481.74 250.115 484.357 251.371 484.357C252.626 484.357 258.511 484.357 258.511 484.357L253.565 478.601L248.619 481.74Z" fill="#191E28"/>
<path fill-rule="evenodd" clip-rule="evenodd" d="M150.21 474.297C150.21 474.297 148.815 474.985 148.815 476.432C148.815 477.879 148.117 481.783 148.815 482.167C149.512 482.55 181.334 491.748 184.578 491.748C187.822 491.748 194.139 495.392 210.484 491.748C226.828 488.104 252.05 480.398 252.05 480.398C252.05 480.398 255.445 485.498 259.588 483.832C263.732 482.167 271.371 478.1 268.12 457.874L269.671 456.345L268.12 437.275C268.12 437.275 270.814 433.416 268.738 432.39C266.663 431.363 262.515 432.029 262.515 432.029L249.992 436.711L253.356 442.646L210.484 480.398L150.21 474.297Z" fill="#07090D"/>
<path fill-rule="evenodd" clip-rule="evenodd" d="M151.373 472.639C151.373 472.639 148.323 476.007 152.622 477.702C156.922 479.396 191.284 486.068 193.827 486.068C196.37 486.068 202.061 483.327 203.466 487.956C203.466 487.956 218.057 486.391 221.521 483.344C224.986 480.297 256.791 438.736 256.791 438.736C256.791 438.736 257.245 437.695 257.159 437.247C256.769 435.21 255.957 434.976 252.499 435.874C251.799 436.055 251.113 436.277 250.6 436.454C250.123 436.618 249.893 437.148 250.08 437.616L251.323 440.72L244.896 443.77C244.896 443.77 242.723 441.213 241.721 440.72C240.719 440.226 238.922 441.246 238.922 441.246L223.641 437.512C222.931 437.338 222.189 437.339 221.478 437.514L219.872 437.911C219.23 438.069 218.56 438.085 217.91 437.957L204.184 435.256C203.965 435.213 203.933 434.913 204.138 434.825L205.099 434.41C205.31 434.319 205.268 434.009 205.04 433.978L192.025 432.207C192.025 432.207 177.378 440.19 174.019 441.98C174.019 441.98 160.148 449.13 158.581 451.565C157.013 454 151.373 472.639 151.373 472.639Z" fill="#D5E6FD"/>
<path fill-rule="evenodd" clip-rule="evenodd" d="M203.78 488.247C203.78 488.247 209.13 487.948 211.44 487.413C245.491 479.53 262.651 474.805 264.647 472.198C267.845 468.019 264.063 456.963 261.933 450.014C259.803 443.065 267.696 437.946 267.696 437.946C267.696 437.946 270.872 433.219 268.312 432.312C265.753 431.406 262.869 432.014 262.869 432.014C262.869 432.014 255.224 434.429 253.332 435.606L252.406 441.316C252.406 441.316 217.804 482.459 216.922 482.459C216.041 482.459 203.78 488.247 203.78 488.247Z" fill="#15191E"/>
<path fill-rule="evenodd" clip-rule="evenodd" d="M185.615 484.764C189.933 485.549 193.118 486.068 193.827 486.068C196.37 486.068 202.061 483.327 203.467 487.956C203.467 487.956 218.057 486.391 221.522 483.344C224.986 480.297 256.791 438.736 256.791 438.736C256.791 438.736 257.245 437.695 257.159 437.247C256.77 435.21 255.957 434.976 252.499 435.874C251.799 436.055 251.113 436.277 250.6 436.454C250.123 436.618 249.893 437.148 250.08 437.616L251.006 439.929C251.184 440.373 250.986 440.88 250.553 441.085L245.525 443.471C245.154 443.647 244.711 443.553 244.438 443.247C243.745 442.472 242.435 441.072 241.721 440.72C240.719 440.226 238.922 441.246 238.922 441.246C238.922 441.246 206.347 454.666 199.864 458.286C193.382 461.907 185.615 484.764 185.615 484.764Z" fill="#C0D5F2"/>
<path fill-rule="evenodd" clip-rule="evenodd" d="M166.621 451.375C169.807 451.375 182.295 454.343 188.707 455.921C190.778 456.43 191.938 458.613 191.227 460.624L185.392 477.112C184.563 479.453 182.138 480.828 179.704 480.337L158.466 476.052C157.196 475.795 156.401 474.532 156.745 473.282C158.408 467.241 163.108 451.375 166.621 451.375Z" fill="#C0D5F2"/>
<path fill-rule="evenodd" clip-rule="evenodd" d="M75.8063 196.014C75.8063 196.014 79.1324 252.168 79.1324 265.941C79.1324 279.715 88.9941 298.495 88.9941 339.154C88.9941 379.813 68.7804 423.509 96.4519 449.022C104.854 456.769 116.374 459.079 130.211 462.286C144.773 465.66 182.485 468.373 182.485 468.373C182.485 468.373 187.931 464.231 182.485 458.875L150.42 454.987C150.42 454.987 103.91 451.415 96.4519 430.496C88.9941 409.577 92.0592 392.97 95.0075 379.246C97.9557 365.522 101.021 318.191 95.0075 299.996C93.672 295.955 93.0723 289.925 91.9929 282.214C89.8321 266.78 86.4415 214.01 86.4415 214.01V161.474L79.1324 169.872L75.8063 196.014Z" fill="#061D2C"/>
<path fill-rule="evenodd" clip-rule="evenodd" d="M180.477 255.755C180.477 255.755 180.612 276.208 177.475 291.915C176.152 298.538 173.736 311.692 170.416 325.003C166.866 339.241 162.73 353.96 161.082 363.268C160.617 365.894 160.35 368.089 160.35 369.721C160.35 371.245 159.671 373.311 160.35 374.51C161.03 375.71 160.87 378.022 158.938 379.206C157.005 380.391 156.726 385.253 157.411 386.232C158.096 387.212 156.726 390.014 157.411 390.89C158.096 391.766 158.501 391.732 157.411 394.043C156.321 396.353 155.738 401.209 155.738 401.209L143.751 442.366C143.751 442.366 141.061 449.907 141.061 451.524C141.061 453.142 139.961 460.67 139.368 460.67C138.775 460.67 139.368 461.571 139.368 461.571L137.225 471.685C137.225 471.685 121.65 470.807 114.394 465.467C114.394 465.467 116.147 455.699 116.147 454.076C116.147 452.453 115.02 451.524 116.147 451.524C117.275 451.524 117.454 450.516 117.454 450.516C117.454 450.516 117.336 444.891 118.72 442.366C120.104 439.841 119.657 434.641 120.645 433.443C121.632 432.245 122.43 423.712 122.43 421.597C122.43 419.483 124.477 405.098 126.179 400.3C127.88 395.501 141.061 323.868 141.061 323.868L138.353 291.915C138.353 291.915 139.988 289.545 141.061 287.925C146.531 279.656 141.669 269.907 143.333 262.503C144.586 256.924 146.178 254.814 144.949 252.087C144.396 250.861 141.878 250.293 141.061 248.312L177.475 238.862C177.475 238.862 181.736 243.393 180.477 248.312C179.219 253.23 180.477 255.755 180.477 255.755Z" fill="#3A5971"/>
<path fill-rule="evenodd" clip-rule="evenodd" d="M117.541 467.176C117.541 467.176 115.456 474.087 114.363 476.486C113.27 478.884 113.443 483.285 113.443 485.413L133.609 488.276C132.777 486.712 132.201 485.289 132.201 484.445C132.201 482.023 132.201 482.1 132.201 480.752C132.201 479.403 131.823 479.279 131.823 477.878C131.823 476.478 131.487 474.368 132.876 471.189L117.541 467.176Z" fill="#F9C5B4"/>
<path fill-rule="evenodd" clip-rule="evenodd" d="M117.541 467.176C117.541 467.176 115.456 474.087 114.363 476.486C113.269 478.884 113.369 483.029 113.369 485.157C113.369 487.285 111.453 496.394 112.908 498.247C112.908 498.247 112.992 495.253 113.676 492.49C114.162 490.524 115.887 488.398 116.392 485.471C116.759 483.343 116.314 480.944 116.843 478.181C117.275 475.926 120.283 467.894 120.283 467.894C118.455 467.415 117.541 467.176 117.541 467.176Z" fill="#FFDFD4"/>
<path fill-rule="evenodd" clip-rule="evenodd" d="M116.383 470.925C115.982 472.075 114.674 475.803 114.363 476.485C113.27 478.884 113.134 483.455 113.134 485.583L133.609 488.276C132.777 486.712 132.201 485.289 132.201 484.445C132.201 482.023 132.201 482.1 132.201 480.752C132.201 479.403 131.803 476.644 131.803 475.243C131.803 475.243 124.563 475.271 120.892 474.312C119.111 473.846 116.383 470.925 116.383 470.925Z" fill="#DFDEDE"/>
<path fill-rule="evenodd" clip-rule="evenodd" d="M155.695 513.546C155.695 515.248 155.595 516.709 151.934 518.802C148.273 520.895 139.012 523.376 134.008 519.621C129.003 515.865 128.297 510.355 123.075 508.358C117.853 506.361 109.631 503.92 108.881 501.891C108.695 501.388 108.616 498.851 108.629 496.858L155.695 513.546Z" fill="#E0E0E0"/>
<path fill-rule="evenodd" clip-rule="evenodd" d="M121.973 485.524C128.885 484.376 132.05 483.092 134.636 486.003C137.222 488.915 138.403 493.332 141.632 496.46C144.861 499.588 150.234 505.375 152.146 507.246C154.058 509.116 158.542 513.447 154.112 516.082C149.682 518.717 140.315 519.838 135.31 516.082C130.306 512.326 128.297 506.055 123.075 504.058C117.853 502.061 109.418 499.415 108.668 497.386C107.918 495.356 110.493 477.214 112.264 479.353C114.036 481.492 115.061 486.671 121.973 485.524Z" fill="#4B4B4B"/>
<path fill-rule="evenodd" clip-rule="evenodd" d="M139.368 461.571L137.225 471.685C137.225 471.685 121.65 470.807 114.394 465.467C114.394 465.467 116.147 455.699 116.147 454.076C116.147 452.453 115.02 451.524 116.147 451.524C116.698 451.524 120.654 454.204 128.711 457.479C131.648 458.672 139.368 461.571 139.368 461.571Z" fill="#9D9A91"/>
<path fill-rule="evenodd" clip-rule="evenodd" d="M115.174 466.012C114.906 465.834 114.646 465.653 114.394 465.467C114.394 465.467 116.147 455.699 116.147 454.076C116.147 452.453 115.02 451.524 116.147 451.524C116.385 451.524 117.257 452.023 118.819 452.854L115.174 466.012Z" fill="#716F67"/>
<path fill-rule="evenodd" clip-rule="evenodd" d="M88.2719 250.559C88.2719 250.559 90.0811 270.664 91.1688 278.16C94.8793 303.731 98.2949 317.334 100.224 324.436C103.966 338.211 116.155 369.974 116.155 374.604C116.155 379.235 118.239 382.727 118.992 383.455C119.744 384.184 119.067 389.07 120.043 389.834C121.832 391.235 120.887 392.601 121.832 394.402C122.879 396.396 124.475 398.104 125.025 398.805C126.073 400.14 159.771 472.343 159.771 472.343V475.063L165.534 487.862C165.534 487.862 183.454 484.689 187.427 477.076L181.093 459.28H179.584C179.584 459.28 167.989 422.817 163.88 416.608C159.771 410.399 155.567 400.773 155.567 400.773C155.567 400.773 154.909 394.63 152.277 391.439C149.645 388.247 153.159 384.175 152.277 382.08C151.396 379.985 148.551 379.448 149.523 376.282C150.496 373.116 149.622 369.447 148.711 368.168C147.8 366.889 147.81 357.648 147.81 355.583C147.81 353.519 141.453 334.39 141.453 329.929C141.453 325.467 139.135 293.793 139.135 292.714C139.135 292.112 141.453 289.556 143.208 284.47C144.962 279.384 142.779 263.572 144.168 260.976C147.315 255.092 146.258 251.362 141.453 248.195C141.453 248.195 175.838 243.076 176.569 245.028C176.569 245.028 181.093 248.2 181.093 245.028C181.093 241.857 178.029 238.978 178.029 238.978L88.2719 250.559Z" fill="#304D63"/>
<path fill-rule="evenodd" clip-rule="evenodd" d="M88.0205 249.223C88.0205 249.223 90.0811 270.664 91.1688 278.16C93.4572 293.93 95.6333 305.148 97.4179 313.097C98.5269 318.037 99.4847 321.714 100.224 324.436C101.576 329.413 100.148 324.65 100.224 309.443C100.242 305.863 101.517 301.487 101.587 296.771C101.632 293.778 103.186 289.84 103.358 284.708C103.464 281.508 100.234 276.84 100.224 270.003C100.221 267.848 96.7534 264.203 97.4179 259.944C97.6007 258.773 101.607 257.96 101.841 256.629C102.263 254.218 103.358 249.223 103.358 249.223H88.0205Z" fill="#254054"/>
<path fill-rule="evenodd" clip-rule="evenodd" d="M169.92 486.478C169.92 486.478 179.614 502.294 182.2 503.548C183.411 504.135 192.444 506.004 194.979 502.507C197.859 498.534 197.664 493.46 196.818 493.04C195.226 492.25 191.747 488.383 190.658 487.058C189.57 485.733 184.849 479.123 184.849 479.123L169.92 486.478Z" fill="#F9C5B4"/>
<path fill-rule="evenodd" clip-rule="evenodd" d="M169.921 486.55C169.921 486.55 182.476 506.67 185.062 507.924L186.195 505.683C180.359 502.595 171.375 485.766 171.375 485.766L169.921 486.55Z" fill="#EFAC96"/>
<path fill-rule="evenodd" clip-rule="evenodd" d="M171.926 489.749C172.254 490.248 174.144 493.421 174.363 493.783C178.397 500.46 180.839 502.888 182.2 503.548C183.411 504.135 192.444 506.004 194.979 502.507C197.859 498.534 197.664 493.46 196.818 493.04C195.226 492.25 191.986 488.531 190.898 487.206C190.562 486.797 188.685 484.578 187.948 483.448C187.948 483.448 188.468 488.217 185.764 489.749C181.644 492.084 171.926 489.749 171.926 489.749Z" fill="#DFDEDE"/>
<path fill-rule="evenodd" clip-rule="evenodd" d="M179.509 503.876C180.262 506.896 182.037 508.675 183.386 509.503C186.463 511.393 193.639 523.014 196.597 527.638C199.555 532.261 206.79 532.427 213.56 530.254C220.33 528.082 215.308 518.505 213.56 517.429L179.509 503.876Z" fill="#E0E0E0"/>
<path fill-rule="evenodd" clip-rule="evenodd" d="M175 494.848C175 494.848 179.387 505.939 182.464 507.828C185.54 509.718 192.587 521.073 196.135 525.509C199.682 529.945 206.35 529.07 212.616 527.573C218.882 526.075 216.118 520.842 214.542 516.993C212.966 513.143 207.636 507.828 203.849 502.736C200.062 497.644 195.802 490.667 194.825 490.667C193.848 490.667 197.498 495.942 194.825 498.614C192.152 501.285 185.94 503.02 181.798 501.262C177.655 499.504 175 494.848 175 494.848Z" fill="#4B4B4B"/>
<path fill-rule="evenodd" clip-rule="evenodd" d="M159.771 472.343L159.081 473.571L165.534 487.862C165.534 487.862 183.454 484.689 187.427 477.076L181.093 459.28H179.584L159.771 472.343Z" fill="#9D9A91"/>
<path fill-rule="evenodd" clip-rule="evenodd" d="M159.771 472.344L159.081 473.571L165.534 487.863C165.534 487.863 166.438 487.699 166.88 487.614L161.429 471.25L159.771 472.344Z" fill="#716F67"/>
<path fill-rule="evenodd" clip-rule="evenodd" d="M112.537 84.3145C112.537 84.3145 111.112 83.5365 110.241 84.3145C109.37 85.0925 106.629 87.407 103.083 87.407C99.5369 87.407 74.9592 96.127 72.3004 100.06C69.6416 103.992 57.8376 123.503 55.739 138.737C55.739 138.737 49.1168 165.291 46.0251 168.319C42.9335 171.347 39.059 184.298 42.6109 189.164L86.1061 161.651C86.1061 161.651 86.2141 190.559 84.4713 196.625C82.7286 202.691 81.9452 211.548 81.7937 216.047C81.695 218.978 81.9452 221.149 82.1889 223.552C82.3273 224.917 81.9452 227.075 81.2372 229.943C80.5292 232.811 80.6847 235.127 81.2372 236.795C81.754 238.355 83.3635 238.369 83.7635 240.12C84.8471 244.865 85.4788 250.025 89.3517 250.025C96.182 250.025 122.513 250.025 127.753 250.025C132.994 250.025 150.953 246.815 154.235 245.472C157.517 244.128 176.597 239.964 180.237 237.517L179.001 232.665C179.001 232.665 174.395 217.827 176.698 212.391C177.687 210.057 180.146 210.386 181.981 207.876C184.418 204.543 186.201 198.325 186.329 194.916C186.552 188.939 186.219 187.263 186.169 184.248C186.123 181.432 185.481 179.122 185.673 177.266C185.894 175.138 187.008 173.616 187.925 172.776C189.632 171.211 191.446 171.281 192.678 171.257C194.203 171.228 195.568 172.711 196.916 175.709C199.353 181.126 202.993 182.334 202.993 182.334C202.993 182.334 199.071 189.059 199.071 191.23C199.071 193.401 186.329 201.526 186.329 205.532C186.329 209.538 186.329 212.391 186.329 212.391L182.578 216.047C182.578 216.047 186.335 217.608 187.742 218.488C190.112 219.971 191.587 221.673 192.38 222.466C194.349 224.437 194.759 226.672 194.26 227.656C193.741 228.679 191.908 230.564 191.908 230.564C191.908 230.564 193.528 231.267 194.607 229.943C195.687 228.619 199.746 224.253 199.746 224.253C199.746 224.253 204.961 226.353 209.724 221.344C214.486 216.336 219.868 209.4 222.196 206.218C224.525 203.035 227.895 199.2 227.245 195.988C227.245 195.988 234.251 188.181 233.938 180.928C233.624 173.674 233.938 162.718 233.938 159.63C233.938 156.542 230.207 156.332 228.876 154.628C228.081 153.61 223.256 143.908 216.134 135.058C211.337 129.096 204.534 124.537 200.862 119.443C196.561 113.477 194.052 112.971 191.231 109.551C187.122 104.573 185.258 101.253 175.507 96.4868C165.485 91.5874 162.036 92.5606 157.831 90.1656C153.626 87.7706 151.398 84.3145 147.595 84.3145C143.792 84.3145 112.537 84.3145 112.537 84.3145Z" fill="#4993F3"/>
<path fill-rule="evenodd" clip-rule="evenodd" d="M112.864 20.685C112.864 20.685 103.264 34.9786 103.264 37.8983C103.264 38.5006 103.508 39.0127 103.585 39.699C103.661 40.3769 103.445 40.6722 103.585 41.7222C103.724 42.7722 104.447 43.7268 104.474 44.4952C104.514 45.6272 104.214 46.6866 103.754 47.4871C102.992 48.8152 101.662 50.855 101.571 52.385C101.505 53.4796 102.099 54.366 103.264 54.7566C103.264 54.7566 102.995 55.0389 102.362 56.2351C102.084 56.7596 101.823 57.4989 101.74 58.2143C101.634 59.1303 101.974 60.0583 102.166 60.8073C102.642 62.6689 104.572 64.9374 103.264 68.4401C101.957 71.9429 101.388 77.9904 108.487 79.5057C111.364 80.12 113.152 80.2961 114.548 80.2884C116.596 80.277 114.805 82.9453 112.864 84.067C112.054 84.5351 111.106 85.3401 110.663 86.2626C109.872 87.9076 111.976 91.2711 113.136 92.5643C114.824 94.446 121.031 97.8359 125.494 98.7815C129.638 99.6596 137.438 100.676 142.267 99.7838C147.096 98.8915 150.503 94.2515 151.163 91.9455C151.833 89.6066 149.01 87.0824 147.35 83.3977C146.191 80.8243 146.216 77.1876 146.004 74.7243C145.388 67.5438 146.621 62.226 146.701 61.6978C147.145 58.7813 151.695 55.766 152.97 50.915C154.145 46.4454 151.714 42.9396 150.554 42.9396C147.202 42.9396 135.471 35.7198 133.127 34.0983C133.127 34.0983 137.248 31.0975 136.11 24.7918C135.6 21.9604 131.855 20.393 126.913 19.8966C123.165 19.5202 112.864 20.685 112.864 20.685Z" fill="#F9C5B4"/>
<path fill-rule="evenodd" clip-rule="evenodd" d="M112.864 20.6851C112.864 20.6851 103.264 34.9786 103.264 37.8983C103.264 38.5007 103.508 39.0127 103.585 39.6991C103.661 40.3769 103.445 40.6722 103.585 41.7222C103.724 42.7723 104.447 43.7268 104.474 44.4953C104.514 45.6272 104.214 46.6866 103.754 47.4872C102.992 48.8152 101.662 50.855 101.571 52.385C101.505 53.4796 102.099 54.3661 103.264 54.7567C103.264 54.7567 102.995 55.0389 102.362 56.2351C102.084 56.7597 101.823 57.4989 101.74 58.2143C101.634 59.1303 101.967 60.0864 102.158 60.8355C102.634 62.697 104.572 64.9374 103.264 68.4402C103.14 68.7748 104.25 66.9083 104.474 64.1031C104.568 62.9332 103.383 61.7961 103.264 60.3863C103.127 58.7553 104.172 56.7116 104.254 55.0053C104.349 53.0288 102.577 54.0624 102.974 51.6906C103.61 47.8855 107.021 44.684 108.046 39.8603C108.403 38.1788 106.576 36.2389 106.576 36.2389C107.87 31.0265 114.901 20.6851 114.901 20.6851L112.864 20.6851Z" fill="#FFDFD4"/>
<path fill-rule="evenodd" clip-rule="evenodd" d="M114.548 80.2883C116.596 80.277 114.805 82.9453 112.864 84.067C112.054 84.5351 111.106 85.3401 110.662 86.2625C109.872 87.9076 111.976 91.2711 113.136 92.5643C114.824 94.4459 121.031 97.8359 125.494 98.7815C129.638 99.6596 132.419 75.5802 123.225 78.8083C118.496 80.469 114.074 80.291 114.548 80.2883Z" fill="#EFAC96"/>
<path fill-rule="evenodd" clip-rule="evenodd" d="M112.84 20.7231C112.84 20.7231 107.566 14.5298 114.31 7.75913C114.31 7.75913 113.95 9.63432 113.95 9.85906C113.95 9.85906 117.728 1.96784 122.881 0.679463C128.035 -0.608916 127.586 3.00612 130.089 3.34771C132.591 3.6893 135.129 2.41421 138.897 4.92961C142.665 7.44501 144.999 10.9139 151.624 10.3172C151.624 10.3172 150.775 12.9005 148.031 14.4121C148.031 14.4121 148.067 16.5804 151.881 17.0258C155.696 17.4711 155.712 21.1977 156.939 22.1838C158.165 23.1699 159.758 25.4493 160.248 28.7068C160.738 31.9643 163.439 36.6097 163.439 37.7899C163.439 38.9702 162.678 41.2601 163.439 43.5258C164.2 45.7916 159.673 47.8389 159.673 51.0244C159.673 54.2099 156.422 55.9633 153.289 60.8483C149.726 66.4026 146.093 72.4701 146.093 74.3519C146.093 77.8887 144.774 62.5813 148.031 58.8902C151.289 55.1992 153.289 51.8037 153.289 48.8949C153.289 45.9861 151.804 42.4705 149.917 42.9982C148.031 43.5258 143.249 46.6132 141.342 48.4654C139.435 50.3175 138.457 55.0029 138.158 56.4936C137.858 57.9842 137.572 59.2463 137.356 61.4754C137.089 64.2226 136.98 67.14 136.818 68.2243C136.524 70.1886 128.545 78.2864 121.196 79.7475C118.113 80.3604 114.25 80.3604 111.409 80.0625C107.581 79.6611 104.481 78.3126 103.487 76.5481C102.74 75.2243 102.35 73.5987 102.497 71.6383C102.596 70.3321 103.362 68.1294 103.362 68.1294C103.362 68.1294 103.977 69.713 103.977 71.339C103.977 72.9649 105.745 72.7855 105.745 71.0142C105.745 69.2429 103.694 67.3186 106.039 67.3186C106.54 67.3186 107.247 67.6579 107.787 67.6019C108.41 67.5372 108.908 67.3286 109.409 67.3186C110.506 67.2969 111.489 67.8539 110.406 68.9079C109.366 69.919 108.892 71.1264 109.213 71.9372C109.378 72.3541 109.991 72.5203 110.923 72.2346C111.804 71.9646 113.437 71.4046 114.778 70.1586C116.785 68.2939 118.197 67.1058 118.59 65.7443C118.737 65.2328 118.675 64.6808 118.331 64.0314C117.071 61.6531 110.94 60.7067 108.553 59.7985C107.92 59.5574 106.718 59.6368 106.039 59.7985C104.16 60.2458 102.838 61.6194 102.214 60.8483C101.602 60.0933 101.427 58.0037 102.214 56.4936C102.521 55.9039 102.734 55.2013 103.487 55.0029C103.957 54.8791 104.42 54.7359 104.936 54.7269C105.653 54.7144 106.432 54.8555 107.138 54.7269C107.989 54.5719 108.635 54.3579 109.409 54.2099C110.164 54.0655 111.049 53.9824 111.695 54.2099C113.95 55.0029 114.906 57.3429 118.113 57.3429C121.319 57.3429 120.571 63.3409 120.571 64.0314C120.571 64.7218 121.521 65.4814 122.201 64.0314C122.881 62.5813 127.086 56.5385 130.695 55.0029C134.303 53.4674 137.439 42.4598 136.521 39.3123C135.604 36.1649 133.241 34.225 133.241 34.225C133.241 34.225 135.376 32.367 135.94 30.0094C136.504 27.6517 136.504 23.9056 134.329 22.1838C132.095 20.4152 128.41 19.995 124.354 19.9081C120.887 19.8339 112.84 20.7231 112.84 20.7231Z" fill="#2A150F"/>
<path fill-rule="evenodd" clip-rule="evenodd" d="M112.854 20.7327C112.854 20.7327 107.566 14.5298 114.31 7.75913C114.31 7.75913 113.95 9.63432 113.95 9.85906C113.95 9.85906 117.727 1.96784 122.881 0.679463C128.035 -0.608916 127.586 3.00612 130.089 3.34771C132.591 3.6893 135.129 2.41421 138.897 4.92961C142.664 7.44501 144.998 10.9139 151.624 10.3172C151.624 10.3172 146.848 11.3595 143.016 9.34204C140.563 8.05076 137.822 7.14694 135.559 6.24231C133.499 5.41872 130.327 5.97129 129.223 5.75221C125.414 4.99577 125.306 4.36723 123.688 4.42366C120.456 4.53637 118.944 10.2228 118.226 10.5679C112.449 13.3455 116.793 20.3216 116.793 20.3216C115.567 20.419 112.854 20.7327 112.854 20.7327Z" fill="#533126"/>
<path fill-rule="evenodd" clip-rule="evenodd" d="M104.187 35.0222C104.187 35.0222 105.555 35.4381 106.069 35.8407C108.311 37.5946 108.572 39.5332 107.518 41.5135C105.574 45.166 102.614 49.4234 102.614 49.4234C102.614 49.4234 104.657 45.5532 104.187 43.3588C103.718 41.1644 103.553 40.5368 103.635 39.8069C103.718 39.077 103.083 37.9259 103.635 36.4741C104.187 35.0222 104.187 35.0222 104.187 35.0222Z" fill="#EFAC96"/>
<path fill-rule="evenodd" clip-rule="evenodd" d="M113.275 38.0881C113.275 38.0881 111.78 37.8397 112.274 36.6564C112.769 35.4731 114.589 34.7925 116.247 35.3638C117.906 35.9351 120.104 35.2232 121.173 35.9398C122.241 36.6564 125.165 39.3953 125.165 40.6981C125.165 41.5965 124.093 40.2492 122.228 39.1645C121.389 38.6762 120.439 38.2243 119.252 38.2061C118.157 38.1894 116.088 38.2229 115.161 38.2061C114.235 38.1894 113.275 38.0881 113.275 38.0881Z" fill="#0A1420"/>
<path fill-rule="evenodd" clip-rule="evenodd" d="M103.43 38.5235C103.43 38.5235 105.794 38.1375 106.036 37.5659C106.278 36.9942 106.584 35.9924 106.036 35.6938C105.488 35.3952 104.31 34.9364 104.31 34.9364C104.31 34.9364 103.724 35.8371 103.43 37.0331C103.309 37.5283 103.43 38.5235 103.43 38.5235Z" fill="#0A1420"/>
<path fill-rule="evenodd" clip-rule="evenodd" d="M140.036 58.9182C140.036 58.9182 140.234 61.1888 141.287 61.1888L139.452 61.4945L140.036 58.9182Z" fill="#EFAC96"/>
<path fill-rule="evenodd" clip-rule="evenodd" d="M144.571 51.1414C144.571 51.1414 143.974 50.874 143.601 51.4369C143.227 51.9998 143.666 52.6617 143.024 53.3589C142.383 54.056 141.572 54.9867 142.214 55.5741C142.641 55.9646 143.081 55.929 143.459 55.5741C143.649 55.3951 143.718 55.1253 143.976 54.8074C144.744 53.8591 146.217 55.3404 147.535 54.8074C148.853 54.2744 150.029 52.0127 149.477 51.1414" fill="#EFAC96"/>
<path fill-rule="evenodd" clip-rule="evenodd" d="M146.487 47.1741C146.487 47.1741 148.354 44.507 149.877 44.791C151.4 45.075 152.547 47.29 152.236 48.7222C151.925 50.1543 151.452 52.7993 149.387 55.0019C149.387 55.0019 150.599 51.752 150.872 50.5552C151.263 48.8463 151.225 48.2786 151.049 47.6229C150.872 46.9672 150.353 46.4802 150.028 46.2433C149.492 45.8526 148.592 45.6639 148.272 46.2433C147.759 47.1741 148.214 47.63 147.351 47.963C146.487 48.2959 146.487 47.1741 146.487 47.1741Z" fill="#EFAC96"/>
<path fill-rule="evenodd" clip-rule="evenodd" d="M75.7841 151.669C75.7841 151.669 80.0183 120.873 89.9942 114.217C99.9701 107.56 106.476 120.734 106.476 120.734V126.783H96.5032L93.6585 123.699L85.3466 150.019L75.7841 151.669Z" fill="#061D2C"/>
<path fill-rule="evenodd" clip-rule="evenodd" d="M73.2651 154.911C73.2651 154.911 72.3844 167.381 81.3623 168.764C81.3623 168.764 83.3609 165.863 85.5608 162.696C87.7607 159.529 88.9803 157.026 90.2212 157.026C91.4621 157.026 97.5277 154.18 98.7185 152.496C99.9094 150.812 103.85 148.461 106.172 148.461C108.493 148.461 110.189 149.182 110.189 144.148C110.189 144.148 112.894 141.652 111.541 138.781C111.541 138.781 113.828 135.593 111.541 133.301C111.541 133.301 113.034 129.036 110.784 127.776C110.784 127.776 104.396 125.588 101.952 125.588C99.5079 125.588 96.1046 126.096 92.9355 127.202C92.9355 127.202 92.9355 124.825 92.9355 122.675C92.9355 122.675 96.3381 118.322 96.3381 116.169C96.3381 114.015 94.169 113.216 93.5523 114.086C93.0289 114.824 90.5669 117.86 88.591 119.429C88.3117 119.651 88.0091 120.129 87.8956 120.318C87.864 120.371 87.8355 120.425 87.8101 120.481C87.7238 120.671 87.5225 121.145 87.4968 121.493C87.1615 126.023 86.7662 128.781 86.3109 129.768C85.5608 131.394 86.6423 137.526 85.5608 139.94C84.4792 142.354 80.575 143.805 79.3691 145.707C78.1632 147.608 73.2651 154.911 73.2651 154.911Z" fill="#F3B7A3"/>
<path fill-rule="evenodd" clip-rule="evenodd" d="M73.2651 154.911C73.2651 154.911 73.1629 158.196 73.3233 159.601C73.4161 160.414 75.0234 161.944 77.4297 160.497C79.2347 159.412 81.3696 157.815 83.2003 155.306C83.8974 154.351 85.033 152.902 85.9914 152.401C87.5939 151.562 88.3288 151.562 89.8934 150.381C91.7855 148.952 94.8092 146.819 95.8868 145.346C99.1062 140.945 95.263 141.083 96.3382 137.001C97.057 134.272 95.1007 133.239 94.8116 131.528C94.5926 130.232 94.1108 128.167 90.8791 128.167C88.5115 128.167 89.0839 124.898 89.5593 122.743C89.7328 121.957 89.7328 121.272 89.8934 121.044C89.8934 121.044 90.4338 120.427 90.688 120.134C94.0554 116.252 95.5443 114.201 95.1547 113.981C94.5409 113.634 93.8571 113.656 93.5523 114.086C93.1073 114.713 91.261 117.002 89.5036 118.638C89.3126 118.815 89.0778 119.01 88.8389 119.197C88.0724 119.797 87.557 120.674 87.4853 121.646C87.4808 121.708 87.4764 121.766 87.4725 121.818C87.1425 126.155 86.7553 128.805 86.3109 129.768C85.5608 131.394 86.6424 137.526 85.5608 139.94C84.4793 142.354 80.5751 143.805 79.3692 145.707C78.1632 147.608 73.2651 154.911 73.2651 154.911Z" fill="#F9C5B4"/>
<path fill-rule="evenodd" clip-rule="evenodd" d="M92.9356 127.202C92.9356 127.202 92.9356 124.825 92.9356 122.675C92.9356 122.675 96.3381 118.322 96.3381 116.169C96.3381 115.481 96.117 114.932 95.7959 114.53C95.7959 114.53 95.597 115.784 95.453 116.345C95.1256 117.622 94.6915 118.328 94.135 119.298C93.0978 121.105 91.4119 121.175 91.0696 121.917C90.688 122.744 91.3473 125.488 90.718 128.207C92.8009 127.352 94.4923 126.658 92.9356 127.202Z" fill="#DB967E"/>
<path fill-rule="evenodd" clip-rule="evenodd" d="M97.0856 131.122C98.0878 130.83 99.4676 130.874 100.531 131.23C101.594 131.585 103.713 131.87 106.377 132.407C109.041 132.944 111.577 133.457 111.577 133.457L111.818 132.407C111.818 132.407 109.546 132.52 108.096 131.985C106.646 131.451 104.469 131.379 103.451 130.848C102.433 130.318 100.89 129.082 99.3141 129.082C97.7378 129.082 96.4975 130.019 95.7658 130.767C95.0342 131.515 96.0835 131.414 97.0856 131.122Z" fill="#DB967E"/>
<path fill-rule="evenodd" clip-rule="evenodd" d="M98.5398 136.974C98.5398 136.974 97.0647 137.731 97.7655 136.402C98.4663 135.073 99.8188 135.1 100.945 135.575C102.07 136.05 103.652 136.675 104.931 136.675C106.209 136.675 107.735 136.691 108.712 137.283C109.689 137.875 111.628 138.371 111.628 138.371V138.83C111.628 138.83 108.609 137.827 107.851 137.827C107.092 137.827 103.171 137.678 102.036 137.283C100.902 136.887 98.5398 136.974 98.5398 136.974Z" fill="#DB967E"/>
<path fill-rule="evenodd" clip-rule="evenodd" d="M97.5529 154.073C97.5529 154.073 98.3205 159.51 97.5529 163.265C96.7853 167.021 92.3939 193.099 92.3939 193.099C92.3939 193.099 94.8848 193.834 96.1633 194.044C97.4418 194.254 100.158 194.373 100.158 194.373L102.356 182.706C102.356 182.706 105.097 179.914 105.097 177.094C105.097 174.274 107.035 158.906 107.035 155.632C107.035 152.357 107.035 148.558 107.035 148.558C107.035 148.558 104.57 148.013 101.831 149.574C99.0925 151.136 97.5529 154.073 97.5529 154.073Z" fill="#061D2C"/>
<path fill-rule="evenodd" clip-rule="evenodd" d="M97.7724 155.902C98.0493 158.74 97.9762 161.194 97.5529 163.265C96.7853 167.021 92.3939 193.099 92.3939 193.099C92.3939 193.099 93.458 193.407 93.9224 193.532L96.3952 180.092C96.3952 180.092 99.7144 180.553 99.7144 177.733C99.7144 176.813 100.528 172.296 100.981 169.853C101.148 168.953 100.622 168.067 99.7504 167.787L98.6947 167.447C98.6947 165.869 99.7144 159.082 99.7144 157.338C99.7144 155.595 97.7424 155.595 97.7724 155.902Z" fill="#0E2A3C"/>
<path fill-rule="evenodd" clip-rule="evenodd" d="M73.4838 160.301C73.4838 160.301 75.6472 163.844 77.3158 163.844C78.9844 163.844 80.0487 161.263 81.3571 159.813C82.6655 158.364 84.4703 158.033 85.2306 157.423C85.9909 156.814 88.0643 154.69 88.861 155.221C89.6577 155.752 91.6931 155.752 92.7036 155.221C93.644 154.727 96.4953 152.371 97.5463 150.793C97.6247 150.675 97.6931 150.562 97.7499 150.454C98.5684 148.899 99.5936 148.496 101.319 147.56C103.045 146.623 105.3 147.237 106.832 147.17C108.364 147.103 109.892 147 109.892 147C109.892 147 109.897 148.883 106.667 148.537C105.544 148.417 104.337 148.763 103.047 149.358C101.864 149.904 99.2882 151.791 99.2882 151.791C99.2882 151.791 98.6212 152.66 98.1945 153.035C96.5993 154.436 94.5844 155.432 92.9537 156.114C91.7604 156.614 90.8816 156.954 89.981 157.12C89.5199 157.205 89.1463 157.604 88.7915 158.001C88.2459 158.613 87.7603 159.388 87.1903 160.301C85.8991 162.371 81.3571 169.002 81.3571 169.002C81.3571 169.002 76.8363 168.053 75.523 165.759C74.2098 163.466 73.4838 160.301 73.4838 160.301Z" fill="#E69F87"/>
<path fill-rule="evenodd" clip-rule="evenodd" d="M97.8187 141.781C97.8187 141.781 98.9317 140.34 100.788 141.267C102.645 142.194 102.107 142.582 103.298 142.582C104.489 142.582 105.572 142.582 106.613 142.582C107.653 142.582 109.007 142.842 109.698 143.371C110.389 143.9 110.355 144.075 110.355 144.075C110.355 144.075 109.96 144.182 108.286 143.659C106.613 143.136 105.541 143.136 104.578 143.136C103.614 143.136 102.774 143.405 102.249 142.851C101.724 142.296 100.222 142.056 99.2121 142.319C98.202 142.582 97.8187 141.781 97.8187 141.781Z" fill="#DB967E"/>
<path fill-rule="evenodd" clip-rule="evenodd" d="M72.8641 154.816H72.0826L65.2917 162.182C65.2917 162.182 62.3183 160.835 59.5094 162.182C56.7006 163.528 55.3552 167.718 53.7844 169.857C52.2136 171.995 46.0556 172.947 43.8026 179.022C41.5496 185.097 41.5 192.365 44.5624 199.102C44.5624 199.102 48.598 198.534 50.8727 200.941C53.1474 203.348 54.4729 206.845 57.7605 205.096C61.0482 203.348 63.9716 204.398 66.5468 204.398C69.122 204.398 74.9295 197.249 75.5619 196.153C76.1943 195.057 84.0061 179.404 84.0061 178.243C84.0061 177.083 82.7225 174.121 82.7225 174.121L85.9091 166.938L84.3593 164.393L81.3871 168.898C81.3871 168.898 76.6687 167.513 74.6073 164.393C72.5459 161.272 72.8641 154.816 72.8641 154.816Z" fill="#60A2F8"/>
<path opacity="0.2" fill-rule="evenodd" clip-rule="evenodd" d="M59.5095 204.398C62.7972 202.649 63.9717 204.398 66.5469 204.398C69.1221 204.398 74.9296 197.249 75.562 196.153C76.1944 195.057 84.0062 179.404 84.0062 178.243C84.0062 177.083 82.7226 174.122 82.7226 174.122C82.7226 174.122 78.7288 189.26 69.1632 197.624C66.701 199.777 59.5095 204.398 59.5095 204.398Z" fill="#8EB1DB"/>
<path fill-rule="evenodd" clip-rule="evenodd" d="M43.7765 179.747C41.5235 185.822 42.8515 192.25 44.5624 199.102C44.5624 199.102 48.598 198.535 50.8727 200.941C53.1474 203.348 46.0295 173.672 43.7765 179.747Z" fill="#4181D5"/>
<path fill-rule="evenodd" clip-rule="evenodd" d="M72.8642 154.816H72.0826L65.2917 162.182C65.2917 162.182 65.9157 167.724 68.1046 169.699C75.5606 176.424 76.6687 167.513 74.6073 164.393C72.546 161.272 72.8642 154.816 72.8642 154.816Z" fill="#5E9EF1"/>
<path fill-rule="evenodd" clip-rule="evenodd" d="M73.182 154.816H72.0827L71.2303 155.741C71.2303 155.741 71.2303 163.45 75.4711 167.04C75.8108 167.328 75.3944 165.116 74.9446 164.435C72.8832 161.315 73.182 154.816 73.182 154.816Z" fill="#4181D5"/>
<path fill-rule="evenodd" clip-rule="evenodd" d="M55.8276 166.336C55.0981 167.629 54.4622 168.934 53.7844 169.857C53.3337 170.47 52.5053 170.986 51.4998 171.553C49.0011 172.963 47.8103 182.295 50.8727 189.031C50.8727 189.031 52.5491 194.806 53.197 194.815C55.634 194.849 54.9238 186.449 54.9238 176.637C54.9238 173.159 55.8276 166.336 55.8276 166.336Z" fill="#4181D5"/>
<path fill-rule="evenodd" clip-rule="evenodd" d="M180.936 216.227C180.936 216.227 177.705 213.421 176.587 212.661C175.469 211.901 169.933 213.636 169.063 214.259C168.192 214.882 167.648 216.552 167.727 216.801C167.805 217.051 168.109 218.251 170.487 217.065C172.864 215.88 180.936 216.227 180.936 216.227Z" fill="#F3B7A3"/>
<path fill-rule="evenodd" clip-rule="evenodd" d="M176.22 214.72C174.476 214.626 171.002 214.875 170.132 215.498C169.261 216.12 167.862 217.289 168.245 217.472C168.629 217.654 169.299 217.658 170.487 217.065C171.959 216.331 174.438 216.061 179.187 216.208C179.187 216.208 177.965 214.813 176.22 214.72Z" fill="#E69F87"/>
<path fill-rule="evenodd" clip-rule="evenodd" d="M182.934 216.289C182.934 216.289 176.897 215.872 174.727 215.872C172.557 215.872 172.009 215.848 170.833 216.74C169.657 217.632 161.946 223.941 161.367 225.14C160.787 226.339 162.929 228.157 164.455 227.265C165.981 226.372 172.44 221.838 173.1 221.358C173.76 220.878 175.595 219.892 176.702 220.738C176.702 220.738 176.241 221.108 175.431 221.526C174.621 221.945 169.272 226.184 168.644 226.536C168.016 226.889 165.271 228.474 165.903 229.866C166.536 231.258 167.884 231.932 169.358 231.067C170.833 230.201 176.326 226.74 177.479 226.129C178.633 225.518 179.972 225.221 181.522 225.676C183.072 226.131 181.501 226.502 179.671 227.036C177.84 227.57 176.354 228.071 174.727 228.568C173.1 229.065 172.29 230.905 173.508 231.607C174.727 232.308 180.416 231.067 182.334 231.607C184.251 232.147 188.074 232.971 191.864 230.753C191.864 230.753 194.203 228.338 194.47 227.036C194.692 225.952 193.982 224.504 192.71 222.824C191.439 221.143 188.599 218.754 185.853 217.494C183.899 216.598 182.934 216.289 182.934 216.289Z" fill="#F3B7A3"/>
<path fill-rule="evenodd" clip-rule="evenodd" d="M177.483 231.682C179.349 231.524 181.344 231.328 182.334 231.607C184.251 232.147 188.074 232.971 191.864 230.753C191.864 230.753 194.203 228.338 194.47 227.036C194.47 227.036 192.639 228.633 190.025 229.769C188.993 230.217 187.665 231.032 186.527 231.062C184.965 231.103 184.284 230.871 182.936 230.753C180.366 230.527 175.734 231.831 177.483 231.682Z" fill="#E69F87"/>
<path fill-rule="evenodd" clip-rule="evenodd" d="M42.9304 454.116H42.1684L37.869 478.604L46.6956 480.057L51.2074 457.017L50.3886 456.124L42.9304 454.116Z" fill="#061D2C"/>
<path opacity="0.5" fill-rule="evenodd" clip-rule="evenodd" d="M174.727 215.872C172.557 215.872 172.009 215.848 170.833 216.74C169.933 217.422 165.21 221.274 162.78 223.584C162.78 223.584 163.667 223.584 164.11 224.099C164.11 224.099 165.321 223.237 165.806 222.816C168.487 220.487 169.884 219.107 170.257 218.836C170.917 218.357 176.897 215.872 174.727 215.872Z" fill="#FFDFD4"/>
<path fill-rule="evenodd" clip-rule="evenodd" d="M92.4335 192.896L43.0118 454.047C43.0118 454.047 43.6243 458.271 50.2014 456.889L100.662 194.074C100.662 194.074 98.5185 194.322 96.4766 194.074C94.4346 193.826 92.4335 192.896 92.4335 192.896Z" fill="#E8E8E8"/>
<path fill-rule="evenodd" clip-rule="evenodd" d="M102.382 182.542C102.382 182.542 103.819 195.83 107.562 200.814C111.304 205.797 116.405 223.781 116.405 223.781V230.806C116.405 230.806 111.893 213.716 107.562 210.27C103.23 206.824 100.058 194.934 100.058 194.934L102.382 182.542Z" fill="#5E9EF1"/>
<path fill-rule="evenodd" clip-rule="evenodd" d="M48.0461 457.204C48.7014 457.158 49.4198 457.053 50.2014 456.889L100.658 194.081C100.658 194.081 98.8501 194.224 97.9666 194.195L48.0461 457.204Z" fill="#ADACAC"/>
<path fill-rule="evenodd" clip-rule="evenodd" d="M1.10486 508.062V510.631C1.10486 510.631 3.48943 510.991 4.97514 511.105C5.64792 511.156 6.55546 511.049 7.2799 511.105C10.1349 511.323 10.3842 511.484 12.3989 511.513C12.8444 511.519 13.3867 511.054 14.0509 511.105C17.7184 511.386 17.933 511.921 21.5876 512.202C24.5014 512.425 25.2688 512.555 27.2093 512.557C27.7027 512.557 28.3529 512.149 29.0384 512.202C32.4201 512.461 31.8438 512.988 35.6604 513.281C38.7759 513.52 39.3065 513.694 41.521 513.718C42.0193 513.724 42.6806 513.226 43.3879 513.281C47.2387 513.576 47.4297 514.183 50.9952 514.456C53.9232 514.681 54.3445 514.754 56.3921 514.781C56.8379 514.787 57.3979 514.407 58.036 514.456C61.605 514.73 62.9224 515.371 65.2642 515.55C65.6498 515.58 66.1948 515.521 66.6579 515.55C68.0695 515.641 71.852 515.91 71.852 515.91L75.2269 511.986V509.313L1.10486 508.062Z" fill="#ECECEC"/>
<path fill-rule="evenodd" clip-rule="evenodd" d="M0.310547 501.407V506.275C0.310547 507.226 1.04118 508.015 1.98991 508.083C12.5607 508.841 69.5108 512.92 71.3272 512.92C73.3297 512.92 76.1523 508.052 76.1523 506.974C76.1523 505.896 74.7313 501.407 74.7313 501.407H0.310547Z" fill="#061D2C"/>
<path fill-rule="evenodd" clip-rule="evenodd" d="M20.6159 495.554H5.76493C5.76493 495.554 -0.905566 500.873 0.760619 502.339C2.4268 503.804 69.2163 507.715 70.7063 507.715C72.1964 507.715 74.6375 502.029 74.6375 501.033C74.6375 500.037 60.8831 499.072 60.8831 499.072L20.6159 495.554Z" fill="#041724"/>
<path fill-rule="evenodd" clip-rule="evenodd" d="M68.7298 318.336C68.5125 318.27 68.3797 318.054 68.4163 317.831L69.7573 309.632C69.8136 309.288 70.2227 309.133 70.5103 309.331C70.5935 309.388 70.6742 309.44 70.7446 309.48C71.8691 310.117 73.3909 310.447 75.0456 310.594C76.0448 310.682 78.1067 310.548 79.1401 310.47C79.4467 310.447 79.6891 310.728 79.6208 311.027L77.6552 319.657C77.6061 319.872 77.41 320.021 77.1894 320.006C76.3937 319.953 74.5313 319.812 73.3553 319.582C72.1237 319.341 69.6688 318.617 68.7298 318.336ZM77.1618 317.25C77.2693 317.254 77.363 317.181 77.388 317.076L78.0987 314.091C78.1357 313.936 78.0046 313.792 77.8461 313.812C76.5731 313.969 75.5635 313.954 73.8797 313.768C72.8513 313.655 71.0507 313.143 70.4012 312.952C70.2715 312.914 70.1371 312.996 70.1122 313.129L69.6134 315.786C69.5956 315.881 69.6397 315.977 69.7254 316.022C70.4754 316.411 71.6225 316.73 73.1669 316.978C74.143 317.135 76.4887 317.226 77.1618 317.25Z" fill="#061D2C"/>
<path fill-rule="evenodd" clip-rule="evenodd" d="M20.2189 501.968C20.2189 501.968 19.2497 495.572 21.6974 493.457H34.3396C34.3396 493.457 33.7382 490.126 34.9331 488.298C36.128 486.469 44.2832 486.283 46.7356 489.129C49.1879 491.975 48.1986 494.538 48.1986 494.538C48.1986 494.538 59.0726 494.963 60.1706 496.28C61.2685 497.597 60.8472 498.995 60.8472 498.995L57.0467 503.859L20.2189 501.968Z" fill="#061D2C"/>
<path opacity="0.5" fill-rule="evenodd" clip-rule="evenodd" d="M60.1706 496.28C61.2686 497.597 60.8472 498.995 60.8472 498.995L57.0467 503.859C57.0467 503.859 56.4053 504.575 55.7069 503.79C54.7233 502.685 59.0726 494.963 60.1706 496.28Z" fill="#0C2D42"/>
<path fill-rule="evenodd" clip-rule="evenodd" d="M33.5179 493.453C33.5179 493.453 33.3383 489.519 33.5179 487.6C33.8514 484.037 35.0472 480.681 35.7909 479.895C37.2249 478.379 39.948 478.981 43.0716 479.43C45.376 479.761 47.1836 479.922 48.1626 480.669C49.9192 482.009 51.0544 485.396 51.2015 489.518C51.2585 491.116 51.2955 492.765 50.971 494.537H48.1626C48.1626 494.537 48.3109 488.224 43.4208 487.407C38.5306 486.591 34.53 487.768 34.53 489.518C34.53 491.268 34.53 493.453 34.53 493.453H33.5179Z" fill="#D8D8D8"/>
<path opacity="0.5" fill-rule="evenodd" clip-rule="evenodd" d="M48.1625 480.669C49.9191 482.009 51.0543 485.396 51.2014 489.518C51.2584 491.116 51.2954 492.765 50.9709 494.537H48.1625C48.1625 494.537 48.3656 491.938 48.1625 491.045C47.7159 489.081 45.9709 487.681 45.8084 486.801C45.0639 482.766 45.7396 481.211 45.8084 480.345C45.8823 479.415 47.9494 480.507 48.1625 480.669Z" fill="#B1B1B1"/>
<path fill-rule="evenodd" clip-rule="evenodd" d="M175.988 116.877C175.988 116.877 183.329 142.738 185.451 147.999C187.572 153.26 190.564 166.018 190.564 166.018L187.619 144.872C187.619 144.872 183.282 129.602 185.451 125.775C185.451 125.775 181.802 131.346 181.802 129.428C181.802 127.511 175.988 116.877 175.988 116.877Z" fill="#4181D5"/>
<path fill-rule="evenodd" clip-rule="evenodd" d="M92.823 238.497C92.823 238.497 100.288 238.497 108.767 238.497C117.246 238.497 132.994 232.325 137.269 229.62C141.544 226.916 175.423 206.22 178.665 200.876C181.906 195.531 185.814 177.387 185.814 177.387C185.814 177.387 186.22 174.913 189.1 171.798C189.1 171.798 180.576 176.253 176.365 188.564C172.154 200.876 144.312 221.197 140.791 221.197C137.269 221.197 124.711 235.651 108.767 235.651C92.823 235.651 92.823 238.497 92.823 238.497Z" fill="#4181D5"/>
<path fill-rule="evenodd" clip-rule="evenodd" d="M54.9163 141.857L71.5206 107.655L75.0253 97.7306C75.0253 97.7306 72.2682 99.8599 71.5206 100.914C67.4868 106.599 65.4941 111.542 64.2639 114.338C63.2354 116.676 60.3256 122.091 57.6472 130.26C56.5287 133.671 54.9163 141.857 54.9163 141.857Z" fill="#5E9EF1"/>
<path fill-rule="evenodd" clip-rule="evenodd" d="M194.35 171.775C194.35 171.775 205.289 169.044 208.479 167.092C211.669 165.139 223.533 161.249 225.946 161.249C228.358 161.249 233.803 158.274 233.803 160.194C233.803 162.114 228.142 165.233 225.946 165.233C223.749 165.233 210.562 170.185 208.479 173.101C206.395 176.017 204.2 182.078 202.338 182.078C201.64 182.078 200.347 181.048 198.746 178.87C198.22 178.153 197.626 176.579 196.583 174.859C195.987 173.876 194.35 171.775 194.35 171.775Z" fill="#4181D5"/>
<path fill-rule="evenodd" clip-rule="evenodd" d="M198.62 192.273C198.62 192.273 203.454 189.569 204.439 189.569L205.204 187.89C205.204 187.89 201.382 189.921 201.382 189.569C201.382 189.217 201.382 188.358 201.382 188.358L205.204 186.511V185.497C205.204 185.497 200.969 186.707 200.389 187.576C199.809 188.445 198.62 192.273 198.62 192.273Z" fill="#4181D5"/>
<path fill-rule="evenodd" clip-rule="evenodd" d="M186.246 212.169L189.175 208.961C189.175 208.961 186.57 205.253 186.57 204.753C186.57 204.508 186.361 205.687 186.246 208.446C186.203 209.458 186.246 212.169 186.246 212.169Z" fill="#4181D5"/>
<path fill-rule="evenodd" clip-rule="evenodd" d="M106.477 86.7251C106.477 86.7251 108.142 97.1837 116.574 99.756C125.005 102.328 140.474 104.356 143.818 102.798C147.163 101.241 154.272 97.3565 154.272 93.9273C154.272 93.9273 154.529 97.5691 150.92 99.756C147.311 101.943 143.904 104.013 141.113 104.282C138.322 104.551 119.294 102.122 115.547 100.74C114.222 100.251 110.746 98.0361 108.795 95.6791C106.458 92.8563 105.818 89.8317 105.639 88.8611C105.453 87.8535 105.391 87.0996 105.391 87.0996L106.477 86.7251Z" fill="#4181D5"/>
<path fill-rule="evenodd" clip-rule="evenodd" d="M91.4556 272.325C91.4556 272.325 101.547 266.379 102.709 265.098C103.87 263.817 107.637 258.259 106.866 254.667C106.866 254.667 108.04 253.689 109.025 253.689C110.009 253.689 109.98 250.629 109.98 250.629V254.667C109.98 254.667 116.564 255.595 120.348 255.595C124.132 255.595 129.49 254.667 130.208 254.667L121.753 256.332L109.98 255.595L109.025 258.461C109.025 258.461 107.323 265.233 104.305 267.045C101.288 268.858 91.4556 274.188 91.4556 275.079C91.4556 275.971 91.4556 272.325 91.4556 272.325Z" fill="#1B3549"/>
<path fill-rule="evenodd" clip-rule="evenodd" d="M92.0631 271.062C92.0631 271.062 89.8423 263.22 90.9527 261.776C92.0631 260.332 101.587 258.505 102.276 258.505C102.964 258.505 102.276 263.078 102.276 263.078L104 258.505L103.501 257.744C103.501 257.744 99.1538 258.382 96.7213 258.961C94.2889 259.541 90.2551 261.028 90.2551 261.028C90.2551 261.028 89.7759 262.554 90.2551 265.369C90.7342 268.185 92.0631 271.062 92.0631 271.062Z" fill="#1B3549"/>
</svg>
