<svg width="263" height="333" viewBox="0 0 263 333" fill="none" xmlns="http://www.w3.org/2000/svg">
<path fill-rule="evenodd" clip-rule="evenodd" d="M123.44 127.004L123.738 136.847C123.738 136.847 133.906 136.254 134.551 135.865C135.196 135.476 140.234 133.03 141.708 133.03C143.182 133.03 145.475 131.018 145.475 131.018V121.74L123.44 127.004Z" fill="#826E65"/>
<path fill-rule="evenodd" clip-rule="evenodd" d="M118.976 101.446C118.976 101.446 118.907 99.7382 120.374 99.234C121.841 98.7297 122.425 96.3254 123.737 94.2945C125.05 92.2636 127.575 89.5987 129.093 88.8101C130.611 88.0214 136.437 86.3111 142.833 89.3327C149.23 92.3543 150.608 95.9157 150.608 99.0904C150.608 102.265 150.403 106.986 151.285 108.304C152.166 109.621 151.285 110.858 151.285 110.858C151.285 110.858 150.692 107.948 149.33 106.597C147.968 105.246 141.839 100.463 132.953 99.6052C124.067 98.7475 120.609 99.6052 120.609 99.6052C120.609 99.6052 119.446 100.684 119.446 101.897C119.446 104.366 120.409 106.606 120.374 107.497C120.31 109.15 120.484 110.299 120.374 110.422C120.228 110.588 119.557 109.498 119.257 106.983C119.09 105.589 118.976 101.446 118.976 101.446Z" fill="#4993F3"/>
<path fill-rule="evenodd" clip-rule="evenodd" d="M129.121 89.0061V92.0912C129.121 92.7984 129.495 93.4547 130.141 93.7415C131.178 94.2016 132.883 94.8071 134.673 94.8071C136.583 94.8071 138.007 94.0109 138.753 93.472C139.15 93.1848 139.35 92.7174 139.373 92.228L139.515 89.2062L129.121 89.0061Z" fill="#4B76AE"/>
<path fill-rule="evenodd" clip-rule="evenodd" d="M128.03 99.3469C128.03 99.3469 122.829 100.449 122.239 103.556C121.648 106.662 121.563 110.977 121.236 111.596C120.909 112.214 120.455 110.545 119.888 111.596C119.322 112.646 119.888 116.015 119.888 117.499C119.888 118.982 120.877 120.138 121.236 120.138C121.236 120.138 123.573 128.224 124.925 130.157C126.278 132.09 131.529 133.653 134.647 133.004C137.765 132.354 144.644 125.838 145.523 121.668C145.523 121.668 147.251 122.488 147.887 120.417C148.523 118.347 148.78 118.112 149.767 117.499C150.754 116.885 150.894 115.671 150.824 115.257C150.754 114.842 149.325 111.596 149.325 111.596L147.228 104.824C147.228 104.824 140.898 101.136 137.618 100.201C134.338 99.265 128.03 99.3469 128.03 99.3469Z" fill="#AD8979"/>
<path fill-rule="evenodd" clip-rule="evenodd" d="M131.684 118.42C131.684 118.42 131.077 117.439 129.993 117.766C128.91 118.093 127.902 119.256 127.309 119.256C126.716 119.256 125.214 120.615 125.629 121.7C126.044 122.785 126.628 122.205 127.309 121.7C127.989 121.195 128.504 120.447 129.405 119.999C130.307 119.552 130.857 119.999 131.684 119.999C132.51 119.999 133.985 119.428 134.443 119.999C134.901 120.571 135.656 121.7 136.25 121.7C136.845 121.7 138.472 119.999 138.472 119.999C138.472 119.999 136.079 119.679 135.524 119.256C134.969 118.832 134.083 117.269 132.821 118.104C132.58 118.263 132.514 118.335 132.349 118.42C131.936 118.634 131.684 118.42 131.684 118.42Z" fill="#251D19"/>
<ellipse cx="134.328" cy="88.9587" rx="5.18459" ry="2.94565" fill="#7AB3FC"/>
<path fill-rule="evenodd" clip-rule="evenodd" d="M139.562 100.895C139.562 100.895 148.308 106.794 149.384 111.831L151.132 110.963C151.132 110.963 151.593 107.721 147.194 104.813C142.794 101.905 139.562 100.895 139.562 100.895Z" fill="#484D48"/>
<path fill-rule="evenodd" clip-rule="evenodd" d="M147.064 104.739L145.004 115.249C145.004 115.249 142.781 129.323 134.755 132.984C134.755 132.984 139.836 131.358 142.682 126.421C145.528 121.483 147.367 107.645 148.07 105.445L147.064 104.739Z" fill="#131720"/>
<path fill-rule="evenodd" clip-rule="evenodd" d="M35.8314 286.722C35.8314 286.722 39.7939 278.479 46.6794 274.441C49.6605 272.693 53.1633 271.609 56.6641 272.562C59.8409 273.427 60.819 276.549 60.819 276.549C60.819 276.549 60.988 260.004 62.0112 257.938C63.0344 255.873 64.1952 235.311 64.1952 235.311C64.1952 235.311 77.8949 216.655 89.8788 216.655C101.863 216.655 98.2089 228.478 107.301 230.411C116.394 232.344 128.711 225.761 133.807 221.969C138.903 218.176 146.682 215.621 146.682 211.687C146.682 207.752 148.921 186.802 135.455 178.953C121.989 171.104 75.1185 199.324 75.1185 199.324C75.1185 199.324 53.5416 212.94 48.9461 218.801C44.3507 224.662 36.5637 230.937 36.5637 235.311C36.5637 236.5 35.9871 242.251 35.8314 247.942C35.7263 251.783 35.4632 258.074 35.1166 263.115C34.8803 266.552 34.5223 268.813 34.4736 271.656C34.4292 274.24 35.0538 275.818 35.1166 277.781C35.1604 279.153 34.8713 280.68 34.8785 281.795C34.899 284.978 35.8314 286.722 35.8314 286.722Z" fill="#304D63"/>
<path fill-rule="evenodd" clip-rule="evenodd" d="M61.9044 236.878C61.9044 236.878 57.6119 229.522 59.7582 220.795C61.9044 212.068 70.5531 206.031 77.7726 205.146C84.9921 204.261 98.3346 202.481 110.654 211.288C122.974 220.095 117.57 236.878 117.57 236.878H61.9044Z" fill="#DEDDDA"/>
<path fill-rule="evenodd" clip-rule="evenodd" d="M66.2545 271.666C66.2545 271.666 61.4464 235.516 61.4464 230.961C61.4464 226.407 61.0755 215.4 72.5438 211.542C84.0121 207.684 102.323 207.328 112.471 218.156C116.625 222.588 117.292 225.872 117.646 229.41C117.868 231.634 117.646 236.253 117.646 236.253L116.393 274.493L66.2545 271.666Z" fill="#F7F6F0"/>
<ellipse cx="91.3053" cy="273.24" rx="25.3011" ry="17.7047" fill="#E1E0D9"/>
<ellipse cx="91.6156" cy="273.738" rx="17.3754" ry="12.2099" fill="#E6E4DC"/>
<path fill-rule="evenodd" clip-rule="evenodd" d="M121.899 122.388C121.899 122.388 121.071 122.299 121.071 123.186C121.071 123.531 120.964 123.979 121.071 124.475C121.184 124.992 121.509 125.271 121.65 125.582C122.002 126.364 122.139 126.61 122.751 126.61C122.948 126.61 123.225 126.4 123.225 126.4L121.899 122.388Z" fill="#484D48"/>
<path fill-rule="evenodd" clip-rule="evenodd" d="M123.718 135.927C123.718 135.927 112.907 140.76 110.291 142.611C107.676 144.463 99.3661 147.556 97.8992 149.16C96.4323 150.764 90.9577 161.012 88.921 163.051C86.8842 165.09 86.5372 168.066 85.8413 168.066C85.1453 168.066 82.6193 171.659 81.5211 172.352C80.7755 172.823 78.6894 173.195 77.6227 174.39C77.118 174.956 76.8394 175.705 77.043 176.736C77.3429 178.255 76.0397 178.016 75.5724 178.016C75.1052 178.016 73.1963 178.371 73.1963 179.563C73.1963 180.754 70.3308 180.174 69.9646 180.331C69.5984 180.487 56.0304 190.53 56.0304 190.53C56.0304 190.53 57.5658 193.18 59.0417 193.18C59.0417 193.18 59.212 196.293 65.1489 197.714C71.0858 199.134 73.6908 199.782 74.9918 198.94C76.2928 198.098 119.056 172.352 119.056 172.352L132.113 182.099C132.113 182.099 150.89 181.27 155.811 179.563C166.909 175.71 166.655 169.939 165.973 169.347C164.497 168.066 164.488 166.813 165.23 166.294C165.973 165.776 168.198 164.536 166.933 162.23C166.933 162.23 168.158 160.908 167.545 159.465C167.545 159.465 170.962 159.709 171.71 158.394C172.458 157.08 177.247 152.411 182.042 149.65C186.836 146.889 186.929 143.986 187.701 142.611C188.474 141.237 192.242 138.01 190.95 131.032C190.95 131.032 193.991 125.185 194.336 123.249C194.681 121.313 197.01 116.983 197.01 116.001C197.01 115.019 197.815 109.645 197.815 108.358C197.815 107.071 198.957 101.817 197.436 100.736C197.436 100.736 196.924 107.642 189.291 106.667C181.657 105.692 182.575 100.857 183.045 100.038C183.515 99.2183 184.438 97.4127 184.438 97.4127C184.438 97.4127 182.314 98.0417 181.217 100.736C180.12 103.43 179.334 106.327 178.881 107.737C178.428 109.146 175.639 113.377 175.051 115.497C174.464 117.618 172.305 121.113 172.305 122.561C172.305 122.561 168.62 125.141 167.545 125.937C167.545 125.937 162.777 125.581 158.328 129.101C158.328 129.101 154.138 129.858 152.746 131.932L150.129 132.933L145.44 131.032L123.718 135.927Z" fill="#4993F3"/>
<path fill-rule="evenodd" clip-rule="evenodd" d="M70.3705 182.794C70.3705 182.794 69.5035 181.339 70.3705 181.339C71.2374 181.339 73.5717 182.78 73.5717 183.45C73.5717 184.119 74.1639 185.459 74.1639 185.945C74.1639 186.431 73.624 190.748 72.9082 191.208C72.1924 191.667 72.4672 192.935 72.0504 192.935C71.6337 192.935 71.4869 191.581 71.4869 190.654C71.4869 189.728 71.158 188.785 71.158 188.404C71.158 188.022 71.4692 184.704 71.158 184.077C70.8469 183.45 70.3705 182.794 70.3705 182.794Z" fill="#4181D5"/>
<path fill-rule="evenodd" clip-rule="evenodd" d="M62.4031 196.651C62.4031 196.651 66.6231 196.044 66.9718 195.432C67.3205 194.82 69.5528 193.484 69.5528 192.341C69.5528 191.198 70.0891 189.254 70.0891 189.254C70.0891 189.254 70.9921 190.345 70.5406 191.649C70.0891 192.953 69.8541 195.771 68.4129 196.211C66.9718 196.651 62.4031 196.651 62.4031 196.651Z" fill="#4181D5"/>
<path fill-rule="evenodd" clip-rule="evenodd" d="M71.0806 198.046C71.0806 198.046 72.3212 195 72.6911 193.663C73.0609 192.327 74.5446 189.198 74.5446 188.153C74.5446 187.108 74.5446 186.442 74.5446 186.442C74.5446 186.442 75.6293 189.133 75.2974 190.917C74.9656 192.701 75.5982 194.738 73.868 196.164C72.1378 197.59 71.0806 198.046 71.0806 198.046Z" fill="#4181D5"/>
<path fill-rule="evenodd" clip-rule="evenodd" d="M76.0161 193.116C76.0161 193.116 76.509 187.242 76.0161 186.655C75.5231 186.068 72.9057 181.425 71.8842 181.06C71.8842 181.06 73.4404 181.152 74.0734 181.705C74.7064 182.257 77.124 184.613 77.124 185.19C77.124 185.766 77.4864 188.833 77.124 189.841C76.7615 190.849 76.0161 193.116 76.0161 193.116Z" fill="#4181D5"/>
<path fill-rule="evenodd" clip-rule="evenodd" d="M59.3922 193.792C59.3922 193.792 64.6426 194.246 65.4021 193.451C66.1615 192.657 67.271 191.866 67.271 191.275C67.271 190.685 66.5806 186.925 66.5806 186.925C66.5806 186.925 63.3316 190.074 63.3316 190.423C63.3316 190.773 59.3922 193.792 59.3922 193.792Z" fill="#4181D5"/>
<path fill-rule="evenodd" clip-rule="evenodd" d="M98.1252 230.293C98.1252 230.293 96.5592 217.991 81.0501 217.991C73.9162 217.991 69.9606 218.761 69.1835 220.301C69.1835 220.301 71.8464 205.645 73.0403 202.613C74.2343 199.581 79.1179 194.782 80.2976 192.121C81.4773 189.46 81.2663 179.287 83.6357 175.171C86.005 171.055 91.9399 168.15 97.3468 168.15C102.754 168.15 103.295 163.991 106.438 163.991C109.581 163.991 111.827 162.92 114.025 165.922C116.222 168.923 118.78 167.455 121.278 168.967C123.776 170.478 128.711 175.162 131.649 179.941C134.587 184.719 145.801 200.847 141.05 209.687C138.958 213.578 134.587 221.827 125.365 224.66C121.161 225.952 113.766 213.433 111.527 211.671C109.004 209.687 109.622 207.684 109.004 207.146C109.004 207.146 108.203 208.885 107.833 209.687C106.369 212.862 105.23 215.332 104.416 217.097C102.307 221.673 98.1252 230.293 98.1252 230.293Z" fill="#304D63"/>
<path opacity="0.5" fill-rule="evenodd" clip-rule="evenodd" d="M98.14 230.349C98.14 230.349 96.5592 217.991 81.0501 217.991C73.9162 217.991 69.9606 218.761 69.1835 220.3C69.1835 220.3 71.8464 205.645 73.0403 202.613C74.2343 199.581 79.8704 196.195 81.0501 193.534C82.2298 190.873 81.8585 180.239 84.2279 176.123C84.7011 175.301 83.7301 177.883 84.2279 180.771C84.6569 183.259 86.4753 185.731 87.7426 189.301C89.0034 192.852 92.8631 195.449 94.134 199.411C95.2439 202.871 95.8713 206.45 96.9081 209.494C99.0394 215.75 103.165 219.676 102.695 220.695C100.585 225.271 98.14 230.349 98.14 230.349Z" fill="#213D53"/>
<path fill-rule="evenodd" clip-rule="evenodd" d="M81.5033 218.013C81.5033 218.013 80.697 221.723 81.0475 223.215C81.398 224.706 80.6073 226.501 80.6073 226.501C80.6073 226.501 77.4924 223.971 76.0768 223.971C74.6612 223.971 68.5413 223.268 69.2055 220.363C69.8697 217.458 81.5033 218.013 81.5033 218.013Z" fill="#1B3345"/>
<path fill-rule="evenodd" clip-rule="evenodd" d="M81.4487 218.147C81.4487 218.147 80.304 222.54 80.6856 226.398C81.0672 230.257 80.6856 232.164 80.6856 232.164C80.6856 232.164 83.6755 233.945 85.1717 234.976C86.6679 236.007 88.3948 237.476 88.3948 237.476C88.3948 237.476 89.4245 239.168 90.3209 239.797C91.2172 240.426 95.0716 242.163 95.0716 242.163C95.0716 242.163 95.0716 240.728 95.0716 238.677C95.0716 236.625 98.1403 230.155 98.1403 230.155C98.1403 230.155 98.1403 224.326 92.6994 220.993C87.2584 217.66 81.4487 218.147 81.4487 218.147Z" fill="#F0EEEE"/>
<path fill-rule="evenodd" clip-rule="evenodd" d="M0.752575 298.443C0.752575 298.443 -0.878631 306.63 2.93801 311.91C6.75464 317.191 21.1449 325.165 24.0304 326.023C26.9159 326.881 29.2127 326.823 30.4495 327.851C31.6863 328.88 34.419 330.531 38.5148 331.708C42.6106 332.884 45.9272 333.52 47.5 332.343C49.0728 331.166 50.3458 326.808 50.0618 326.151C49.7778 325.493 0.752575 298.443 0.752575 298.443Z" fill="#9DA0A3"/>
<path fill-rule="evenodd" clip-rule="evenodd" d="M52.5022 242.827C52.5022 242.827 54.532 238.043 58.6299 237.487C62.7278 236.931 67.0097 237.385 71.2821 236.126C75.5544 234.867 76.8399 231.909 79.3386 232.312C81.8372 232.715 83.4288 231.394 85.5935 233.76C87.7582 236.126 89.4357 239.209 90.8027 239.939C92.1698 240.669 94.6463 242.006 95.5344 242.006C96.4225 242.006 95.0214 246.768 95.5344 248.013C96.0474 249.258 97.3359 259.49 95.5344 260.786C95.5344 260.786 73.8819 246.657 69.4575 245.206L52.5022 242.827Z" fill="#C0C0C0"/>
<path fill-rule="evenodd" clip-rule="evenodd" d="M95.6272 260.698L95.153 263.668C95.153 263.668 69.1231 245.029 68.4203 244.601C68.4203 244.601 77.2697 248.638 80.9264 250.904C82.9729 252.172 85.087 253.714 87.5341 255.329C92.4236 258.555 95.6272 260.698 95.6272 260.698Z" fill="#D8D8D9"/>
<path fill-rule="evenodd" clip-rule="evenodd" d="M32.517 297.348C32.517 297.348 18.6492 300.096 15.9455 301.461C13.2418 302.826 9.16836 298.8 8.33986 298.074C7.51136 297.348 2.8294 295.151 1.36663 297.348C-0.0961409 299.544 2.08973 308.23 10.8258 313.691C19.5619 319.152 27.4166 319.496 30.4278 321.558C33.4389 323.62 41.8694 327.927 45.7666 327.927C49.6637 327.927 50.5885 327.101 50.5885 323.748C50.5885 320.396 51.7097 316.493 50.5885 314.327C49.4672 312.161 52.4871 310.935 50.5885 308.484C50.2429 308.038 49.541 308.038 49.541 307.504C49.541 304.83 32.517 297.348 32.517 297.348Z" fill="#C0C0C0"/>
<path fill-rule="evenodd" clip-rule="evenodd" d="M53.3422 249.238C53.3422 249.238 52.0249 256.199 56.535 259.546C61.045 262.893 60.7566 262.402 60.7566 262.402L61.914 257.262L53.3422 249.238Z" fill="#213D53"/>
<path fill-rule="evenodd" clip-rule="evenodd" d="M76.6334 263.858C75.1319 262.483 75.3468 258.98 72.9152 258.98C70.4835 258.98 61.237 258.129 57.6518 255.026C54.0667 251.922 48.8665 242.594 54.5491 241.807C60.2317 241.019 70.5733 245.032 74.8819 248.467C79.1906 251.902 94.3716 262.239 95.1002 263.529C95.8288 264.82 89.1879 268.768 84.0164 267.349C78.8449 265.929 78.135 265.234 76.6334 263.858Z" fill="#9DA0A3"/>
<path fill-rule="evenodd" clip-rule="evenodd" d="M53.2605 290.076C53.2605 290.076 60.223 285.034 60.8789 277.247C60.8789 277.247 60.8789 274.073 58.4739 273.219C58.4739 273.219 53.5765 285.886 53.5765 289.094L53.2605 290.076Z" fill="#1B3345"/>
<path fill-rule="evenodd" clip-rule="evenodd" d="M37.7284 283.003C37.7284 283.003 48.0849 268.531 58.4539 273.22C58.4539 273.22 54.3971 284.422 53.8795 287.078C53.8795 287.078 51.3052 284.245 46.0744 282.894C40.8435 281.544 37.7284 283.003 37.7284 283.003Z" fill="#BD9A8A"/>
<path fill-rule="evenodd" clip-rule="evenodd" d="M32.6085 297.295C32.6085 297.295 36.6949 306.442 39.4207 307.519C42.1464 308.597 47.8217 303.729 49.5652 307.519C49.5652 307.519 51.5812 292.578 53.8288 289.092C56.0763 285.605 46.2075 282.308 43.2187 282.308C40.2298 282.308 35.2119 280.469 35.2119 291.455C35.2119 292.971 34.3933 294.588 33.7806 295.804C33.49 296.382 32.6085 297.295 32.6085 297.295Z" fill="#F0EEEE"/>
<path d="M52.1145 244.049V245.873C48.2325 256.563 47.6207 264.817 46.0779 268.821C44.5249 272.851 34.9958 280.45 34.9958 280.45C36.6538 275.471 37.9291 271.277 39.4876 267.232C41.0563 263.161 45.8011 254.549 52.1145 244.049Z" fill="#213D53"/>
<path d="M35.5587 268.142L35.1052 268.013C35.1052 268.013 37.5233 259.825 38.0707 258.186C38.3194 257.441 38.635 257.008 38.6783 256.943C39.2727 256.043 39.9385 255.039 40.66 253.959C42.7216 250.873 47.4292 244.028 47.728 243.602C53.1143 235.914 56.4813 231.639 57.4953 231.639V232.11C56.7483 232.11 39.0116 258.274 39.3129 259.084C39.6142 259.893 35.5587 268.142 35.5587 268.142Z" fill="#213D53"/>
<path fill-rule="evenodd" clip-rule="evenodd" d="M56.3365 215.649C55.3376 216.103 48.3765 219.713 48.3765 219.713C48.3765 219.713 53.484 216.158 56.5104 214.637C59.5369 213.117 65.0033 211.163 65.0033 211.163C65.0033 211.163 57.3355 215.196 56.3365 215.649Z" fill="#213D53"/>
<path fill-rule="evenodd" clip-rule="evenodd" d="M105.975 174.527C105.975 174.527 112.488 195.518 110.317 201.577C110.317 201.577 111.276 195.775 111.276 194.952C111.276 194.128 110.701 189.774 111.276 188.913C111.852 188.052 111.889 183.243 111.583 181.652C111.276 180.061 111.209 178.887 109.555 177.747C107.9 176.608 107.821 175.493 106.898 174.527C105.975 173.561 105.467 173.034 105.467 173.034L105.975 174.527Z" fill="#28455B"/>
<path fill-rule="evenodd" clip-rule="evenodd" d="M123.78 177.828C123.78 177.828 121.969 189.599 117.904 194.559C113.839 199.518 114.384 200.868 114.112 202.387C113.839 203.905 111.037 205.498 111.037 205.498C111.037 205.498 114.065 204.432 115.264 201.665C116.463 198.897 118.204 195.006 119.991 194.559C121.779 194.111 124.214 190.872 124.868 189.565C125.522 188.258 124.214 185.973 124.868 183.564C125.522 181.155 123.78 177.828 123.78 177.828Z" fill="#28455B"/>
<path fill-rule="evenodd" clip-rule="evenodd" d="M165.333 173.407C165.333 173.407 166.463 178.122 166.428 179.978C166.211 191.688 161.673 199.572 154.705 205.174C142.595 214.908 142.6 216.699 142.6 216.699C142.6 216.699 139.111 200.236 137.111 193.875C133.59 182.682 128.846 175.796 124.961 171.875C124.961 171.875 133.13 174.355 137.339 174.426C146.745 174.584 165.333 173.407 165.333 173.407Z" fill="#3A5971"/>
<path fill-rule="evenodd" clip-rule="evenodd" d="M171.845 123.664C171.845 123.664 170.043 134.472 170.043 139.884C170.043 145.297 164.762 137.805 167.123 131.774C169.484 125.744 171.845 123.664 171.845 123.664Z" fill="#4181D5"/>
<path fill-rule="evenodd" clip-rule="evenodd" d="M165.37 127.172C165.37 127.172 157.569 137.396 161.47 146.662C161.47 146.662 156.594 138.503 159.032 133.702C161.47 128.902 165.37 127.172 165.37 127.172Z" fill="#4181D5"/>
<path fill-rule="evenodd" clip-rule="evenodd" d="M157.637 147.818C159.925 145.04 157.319 142.255 157.319 140.907C157.319 139.559 156.833 137.974 157.319 136.202C157.805 134.43 159.218 130.689 160.589 129.066C161.961 127.443 165.169 126.592 162.729 127.274C160.288 127.957 157.637 130.689 157.637 130.689C157.637 130.689 149.564 142.897 153.601 150.695C157.637 158.493 155.35 150.596 157.637 147.818Z" fill="#4181D5"/>
<path fill-rule="evenodd" clip-rule="evenodd" d="M124.692 158.968C124.692 158.968 135.202 158.614 138.25 159.393C141.298 160.172 149.503 164.085 152.373 164.637C152.896 164.737 153.447 164.863 154.011 165.01C156.539 165.67 159.31 166.747 160.845 167.779C162.721 169.04 164.724 169.385 164.724 169.385V168.56C164.724 168.56 161.788 166.273 160.419 164.637C160.419 164.637 160.432 166.832 159.908 166.832C159.908 166.832 153.429 164.121 151.897 164.121C150.364 164.121 140.091 159.407 137.952 158.968C135.814 158.529 124.692 158.968 124.692 158.968Z" fill="#4181D5"/>
<path d="M166.944 143.708C166.944 143.708 168.232 147.848 168.484 149.606C168.616 150.527 169.04 152.025 168.994 153.121C168.919 154.898 167.683 158.652 167.683 158.652C168.13 156.373 168.301 150.5 166.944 143.708Z" fill="#4181D5"/>
<path fill-rule="evenodd" clip-rule="evenodd" d="M107.025 132.329C107.025 132.329 104.793 132.635 104.793 134.117C104.793 135.599 104.113 142.9 104.545 143.194C104.978 143.487 105.852 143.518 105.852 143.518L110.042 141.418L112.147 139.746V136.771C112.147 136.771 111.648 134.039 110.042 134.327C108.437 134.616 107.025 132.329 107.025 132.329Z" fill="#446891"/>
<path d="M108.249 132.105L106.622 0" stroke="#979797" stroke-width="1.64957"/>
<path fill-rule="evenodd" clip-rule="evenodd" d="M106.966 132.538C106.966 132.103 107.318 131.75 107.754 131.75H109.229C109.664 131.75 110.017 132.101 110.017 132.536C110.017 133.859 110.017 136.511 110.017 137.78C110.017 139.51 110.017 141.404 110.017 141.404L105.83 144.582V142.274V141.193V136.16L106.966 134.734V132.538Z" fill="#234872"/>
<path d="M105.131 136.284C105.131 136.284 102.384 139.692 102.384 144.647C102.384 149.602 101.873 164.38 99.9869 167.57" stroke="#979797" stroke-width="1.64957" stroke-linecap="round"/>
<path d="M113.233 147.301L113.061 146.947C118.459 144.331 119.742 142.151 121.728 141.066C122.033 140.899 126.062 138.513 130.129 136.808C133.109 135.559 137.092 134.619 137.092 134.619C135.64 135.16 133.616 136.074 130.897 137.673C130.619 137.836 126.928 139.692 123.093 141.819C119.505 143.808 115.845 146.035 113.233 147.301Z" fill="#4181D5"/>
<path fill-rule="evenodd" clip-rule="evenodd" d="M150.139 132.923C150.139 132.923 148.786 138.378 150.433 146.174C152.08 153.971 150.433 168.584 150.433 168.584H145.149C145.149 168.584 146.494 152.991 146.494 150.981C146.494 148.972 144.109 135.566 145.453 131.026L150.139 132.923Z" fill="#FFE186"/>
<path fill-rule="evenodd" clip-rule="evenodd" d="M98.6578 151.025C98.7414 150.374 99.0919 149.788 99.6255 149.405L105.776 144.999C106.513 144.471 107.485 144.411 108.281 144.843L110.976 146.307C111.825 146.768 112.307 147.699 112.196 148.658L111.012 158.793C110.934 159.466 110.569 160.074 110.012 160.46L103.875 164.716C102.815 165.452 101.36 165.2 100.608 164.152L98.0669 160.608C97.7186 160.122 97.5672 159.523 97.6433 158.93L98.6578 151.025Z" stroke="#CDCDCD" stroke-width="1.57547" stroke-linecap="round" stroke-linejoin="round"/>
<path fill-rule="evenodd" clip-rule="evenodd" d="M185.202 92.8279C185.202 92.8279 185.821 95.6509 184.482 97.3083C183.144 98.9656 180.889 103.076 184.482 105.129C188.076 107.182 193.667 108.361 195.907 105.129C198.147 101.898 196.903 101.029 198.072 97.3083C199.24 93.5871 199.537 92.725 198.456 91.6515C197.374 90.5779 191.272 87.6309 188.542 89.1044C187.665 89.5779 186.699 89.5779 185.849 90.776C185 91.9741 185.202 92.8279 185.202 92.8279Z" fill="#4181D5"/>
<path d="M37.9712 199.681C37.9712 199.681 40.8012 201.356 39.8579 203.426" stroke="#979797" stroke-width="1.17826" stroke-linecap="round"/>
<path d="M39.1495 199.209C39.1495 199.209 41.9796 200.884 41.0362 202.955" stroke="#979797" stroke-width="1.17826" stroke-linecap="round"/>
<path d="M40.3279 198.738C40.3279 198.738 43.1579 200.413 42.2146 202.483" stroke="#979797" stroke-width="1.17826" stroke-linecap="round"/>
<path d="M36.3838 203.962C36.3838 203.962 37.447 202.674 39.0387 202.674" stroke="#979797" stroke-width="1.17826" stroke-linecap="round"/>
<path d="M36.3838 203.019C36.3838 203.019 37.447 201.732 39.0387 201.732" stroke="#979797" stroke-width="1.17826" stroke-linecap="round"/>
<path d="M36.3838 202.077C36.3838 202.077 37.447 200.789 39.0387 200.789" stroke="#979797" stroke-width="1.17826" stroke-linecap="round"/>
<path d="M37.3688 204.096C37.3688 204.096 36.2936 206.814 35.5129 207.68C34.7323 208.547 35.8383 210.548 37.3688 208.404C38.8992 206.26 38.1278 204.096 38.1278 204.096" stroke="#979797" stroke-width="1.17826"/>
<path d="M81.6315 183.306L81.4815 184.589L33.387 204.976L26.6736 206.286L29.0061 203.936L81.8024 181.911L81.6315 183.201L31.583 204.138L32.9829 203.867L81.6315 183.306Z" fill="#979797"/>
<path fill-rule="evenodd" clip-rule="evenodd" d="M50.0103 182.713C50.0103 182.713 49.3485 183.555 49.3485 184.546C49.3485 185.538 49.5377 186.911 50.2131 187.215L51.5696 186.159L50.0103 182.713Z" fill="#BD9A8A"/>
<path fill-rule="evenodd" clip-rule="evenodd" d="M188.137 89.361C188.137 89.361 185.762 91.4894 186.149 93.6423C186.537 95.7951 185.841 98.721 190.404 99.1532C194.968 99.5854 197.651 97.5895 198.062 97.0121C198.474 96.4347 200.148 92.9291 198.062 91.4165C195.977 89.9038 188.137 89.361 188.137 89.361Z" fill="#6C86A9"/>
<path fill-rule="evenodd" clip-rule="evenodd" d="M52.884 189.369L54.0777 188.437L64.7551 180.352L69.5485 176.683L71.455 175.315C71.455 175.315 71.9659 176.882 70.7572 178.118C69.5485 179.353 68.5339 181.272 68.5339 182.453C68.5339 183.633 67.0092 185.572 67.0092 185.572C67.0092 185.572 64.3669 188.939 62.3728 189.703C60.3787 190.468 58.6821 190.827 56.9968 190.662C55.3115 190.498 52.884 189.369 52.884 189.369Z" fill="#AB8675"/>
<path d="M28.4722 207.909C27.7799 208.433 26.7937 208.298 26.2674 207.607L25.8899 207.112C25.3617 206.418 25.497 205.428 26.1917 204.901L120.911 133.131L206.458 68.3099L208.745 71.3123L123.205 136.128L28.4722 207.909Z" fill="#D8D8D8"/>
<path d="M28.4722 207.909C27.7799 208.433 26.7937 208.298 26.2674 207.607L25.8899 207.112C25.3617 206.418 25.497 205.428 26.1917 204.901L120.911 133.131L206.458 68.3099L208.745 71.3123L123.205 136.128L28.4722 207.909Z" fill="#D8D8D8"/>
<path d="M207.995 70.3286L208.745 71.3122L123.205 136.128C123.205 136.128 122.445 135.72 122.164 135.506L207.995 70.3286Z" fill="#ADACAC"/>
<path d="M28.4722 207.909C27.78 208.433 26.7937 208.298 26.2674 207.607L25.8899 207.112C25.3617 206.418 25.497 205.428 26.1917 204.901L120.911 133.131C120.911 133.131 121.093 134.202 121.615 134.903C122.138 135.603 123.205 136.128 123.205 136.128L28.4722 207.909Z" fill="#00223C"/>
<path fill-rule="evenodd" clip-rule="evenodd" d="M57.8427 187.546C57.8427 187.546 57.3182 189.061 56.2677 189.061C55.2171 189.061 53.9801 188.378 53.6106 188.144C53.2411 187.909 50.4936 185.116 50.4936 185.116C50.4936 185.116 49.9995 184.526 49.9995 183.806C49.9995 183.086 49.8705 180.679 50.341 180.284C50.8115 179.888 52.1472 179.137 52.3577 179.137L57.8427 187.546Z" fill="#BD9A8A"/>
<path fill-rule="evenodd" clip-rule="evenodd" d="M57.8428 187.546C57.8428 187.546 57.7836 187.71 57.7522 187.786C57.6874 187.945 57.1867 187.428 56.4306 186.828C55.802 186.329 54.9779 185.842 54.2545 184.985C53.5414 184.14 53.1043 183.355 52.3578 182.39C51.5215 181.309 50.9596 179.852 50.9596 179.852C51.5242 179.498 52.2118 179.137 52.3578 179.137L57.8428 187.546Z" fill="#AB8675"/>
<path d="M28.4722 207.909C27.78 208.433 26.7937 208.298 26.2674 207.607L25.8899 207.112C25.3617 206.418 25.497 205.428 26.1917 204.901L34.5777 198.547C34.5777 198.547 34.6572 199.562 35.2479 200.301C35.8387 201.04 36.8115 201.59 36.8115 201.59L28.4722 207.909Z" fill="#3C658A"/>
<path fill-rule="evenodd" clip-rule="evenodd" d="M60.7454 185.652C60.7454 185.652 60.3506 186.744 59.6024 187.123C58.8542 187.502 57.8162 187.548 57.8162 187.548C57.8162 187.548 55.1091 185.599 54.3241 184.577C53.5391 183.555 52.6535 181.939 52.6535 181.61C52.6535 181.282 52.03 179.892 52.4864 178.466C52.9427 177.04 55.1741 176.839 55.3588 176.839C55.5435 176.839 60.7454 185.652 60.7454 185.652Z" fill="#BD9A8A"/>
<path fill-rule="evenodd" clip-rule="evenodd" d="M60.7454 185.652C60.7454 185.652 60.6695 185.851 60.6281 185.943C60.6281 185.943 60.1479 185.896 60.0046 185.796C58.8725 185 58.3034 184.263 57.9472 183.918C56.7987 182.804 56.0967 181.911 55.639 181.008C55.355 180.448 55.2 179.844 54.985 179.303C54.7344 178.672 53.7206 177.241 53.7206 177.241C54.4582 176.907 55.2518 176.839 55.3588 176.839C55.5434 176.839 60.7454 185.652 60.7454 185.652Z" fill="#AB8675"/>
<path fill-rule="evenodd" clip-rule="evenodd" d="M63.1412 183.412C63.1412 183.412 63.0381 184.799 62.2902 185.215C61.5422 185.631 60.4219 185.674 60.1689 185.652C59.9158 185.631 57.4038 183.064 56.9501 182.116C56.4964 181.168 55.3385 179.616 55.3385 178.079C55.3385 176.541 55.241 175.345 55.9099 175.033C56.2826 174.858 56.9754 174.682 57.6616 174.801C58.2069 174.896 58.7746 175.245 58.9846 175.453C59.4587 175.924 63.1412 183.412 63.1412 183.412Z" fill="#BD9A8A"/>
<path fill-rule="evenodd" clip-rule="evenodd" d="M63.1413 183.412C63.1413 183.412 63.1275 183.571 63.1182 183.647C63.1182 183.647 62.0729 183.306 61.3551 182.781C60.9992 182.52 60.7749 182.029 60.4014 181.312C60.2058 180.937 60.0962 180.511 59.9106 180.106C59.7828 179.827 59.6028 179.502 59.4808 179.328C58.9937 178.632 58.9937 178.445 58.6284 176.977C58.4554 176.281 57.6616 174.801 57.6616 174.801C58.207 174.896 58.7747 175.245 58.9846 175.453C59.4587 175.924 63.1413 183.412 63.1413 183.412Z" fill="#AB8675"/>
<path fill-rule="evenodd" clip-rule="evenodd" d="M64.0017 176.225C64.0017 176.225 62.0581 173.987 61.3367 173.987C60.6154 173.987 59.004 175.195 59.004 175.71C59.004 176.225 59.3248 178.572 59.9196 179.222C60.5144 179.873 61.2755 182.42 61.6932 182.625C62.1109 182.83 63.2351 183.725 64.0017 183.462C64.7683 183.199 65.5439 182.739 65.1561 181.55C64.9685 180.974 64.5252 179.986 64.2045 178.376C64.0834 177.768 64.0017 176.225 64.0017 176.225Z" fill="#BD9A8A"/>
<path d="M145.959 178.492C145.959 178.492 138.234 170.315 140.445 166.709C140.445 166.709 143.652 166.486 145.357 166.709C145.722 166.757 148.799 167.044 150.525 168.083C151.62 168.743 151.899 170.123 151.473 170.483C150.376 171.41 149.686 169.765 147.169 172.545C144.651 175.324 140.627 173.826 138.002 173.528" stroke="#CDCDCD" stroke-width="0.942609" stroke-linecap="round"/>
<path fill-rule="evenodd" clip-rule="evenodd" d="M203.141 69.5928C203.141 69.5928 203.516 68.4772 204.637 68.4772C205.759 68.4772 205.403 69.8684 205.403 69.8684L203.141 69.5928Z" fill="#AB8675"/>
<path fill-rule="evenodd" clip-rule="evenodd" d="M201.074 71.3248C201.074 70.8813 201.509 69.6304 202.122 69.6304C202.735 69.6304 202.977 69.4678 204.433 69.4678C205.89 69.4678 207.54 71.666 207.897 72.2649C208.131 72.6571 208.444 74.8226 208.424 76.6026C208.414 77.5407 208.238 78.4615 208.068 78.764C207.576 79.6403 206.869 79.7987 206.869 79.7987C206.869 80.6338 205.489 82.7086 204.07 83.8212C203.79 84.0405 201.734 86.1886 201.531 86.4139C200.357 87.7146 199.248 88.7044 198.481 90.3563C197.714 92.0081 197.928 92.3397 197.583 93.2967C197.238 94.2537 196.577 96.5064 195.133 97.5978C193.689 98.6891 191.327 98.3035 190.104 97.9687C188.882 97.6339 188.366 97.418 187.83 96.5413C187.295 95.6645 187.421 94.5772 187.518 93.7322C187.695 92.1874 187.886 91.0345 188.339 90.3563C188.339 90.3563 188.154 84.8822 190.104 84.0838C190.104 84.0838 190.666 81.9802 191.327 81.9802C191.327 81.9802 191.175 80.5981 190.104 80.5981C189.034 80.5981 188.882 79.7717 190.104 78.182C190.553 77.5991 190.967 77.4248 191.327 77.2636C191.622 77.1317 192.113 77.0936 192.113 77.0936C192.113 77.0936 192.215 75.9611 192.828 75.5696C193.44 75.1782 194.642 74.2761 195.261 74.2761C195.88 74.2761 195.803 73.4232 196.143 73.1343C196.482 72.8454 198.882 71.6969 199.728 71.5109C200.574 71.3248 201.074 71.3248 201.074 71.3248Z" fill="#BD9A8A"/>
<path fill-rule="evenodd" clip-rule="evenodd" d="M208.424 76.6027C208.414 77.5407 208.238 78.4616 208.068 78.764C207.576 79.6404 206.869 79.7988 206.869 79.7988C206.869 80.6339 205.489 82.7087 204.07 83.8212C203.79 84.0406 201.734 86.1887 201.531 86.414C200.357 87.7147 199.248 88.7045 198.481 90.3563C197.714 92.0082 197.944 92.2688 197.583 93.2968C197.421 93.7575 197.119 94.7144 196.5 95.8647C196.338 96.1661 196.097 96.6107 195.718 97.0487C195.547 97.2457 195.11 97.606 195.11 97.606C195.11 97.606 196.083 92.1533 196.94 90.3563C198.991 86.0594 201.872 84.4429 204.379 82.0765C206.112 80.4397 208.424 76.6027 208.424 76.6027Z" fill="#AB8675"/>
<path d="M197.645 81.2778C197.716 81.3229 196.285 80.4641 195.672 80.0722C195.508 79.9678 195.353 79.8665 195.205 79.7683C194.399 79.2308 193.868 78.8121 193.659 78.5095C193.342 78.0515 192.861 77.4995 192.1 77.1143C192.1 77.1143 192.646 77.0651 192.95 77.2282C193.351 77.4439 193.907 78.04 194.046 78.2413C194.209 78.4755 194.714 78.8746 195.467 79.3761C195.612 79.4726 195.765 79.5723 195.926 79.6752C196.504 80.0452 197.645 81.2778 197.645 81.2778Z" fill="#AB8675"/>
<path d="M195.464 74.2302C196.16 74.1929 196.804 74.4482 197.446 75.2392C197.94 75.8486 198.391 76.3841 198.796 76.8358C199.485 77.6053 200.205 78.7741 200.205 78.7741C199.494 78.359 198.462 77.2395 197.08 75.5361C196.524 74.8514 195.464 74.2302 195.464 74.2302Z" fill="#AB8675"/>
<path d="M197.616 74.7507C197.873 74.6706 198.024 74.3383 198.096 74.3109C198.155 74.2887 198.283 74.3109 198.283 74.3109C198.222 75.3213 198.416 76.2057 198.694 76.6052L198.307 76.8743C198.002 76.4363 196.711 74.883 196.809 74.7507C196.932 74.5832 197.359 74.8308 197.616 74.7507Z" fill="#AB8675"/>
<path d="M201.057 71.344C201.057 71.344 201.774 71.381 202.083 71.6004C202.728 72.0575 203.191 72.8994 203.294 73.2458C203.527 74.0327 204.628 75.7848 205.255 76.591C205.764 77.2446 206.863 79.8364 206.863 79.8364C206.863 79.6713 205.294 77.4085 204.883 76.8803C204.222 76.0293 203.097 74.2404 202.842 73.3796C202.655 72.7482 202.021 71.8693 201.057 71.344Z" fill="#AB8675"/>
<path fill-rule="evenodd" clip-rule="evenodd" d="M199.172 23.9656C199.172 23.9656 204.279 13.9316 209.174 15.0629C214.069 16.1942 224.207 33.7351 227.523 37.8627C230.838 41.9903 245.978 64.4095 251.116 69.3812C256.253 74.3529 263.694 87.4017 262.813 88.4036C261.932 89.4056 256.042 96.2796 251.838 94.1997C247.633 92.1198 246.772 85.0175 236.156 71.2328C225.539 57.4481 220.424 49.7797 217.963 47.3182C215.503 44.8568 199.172 23.9656 199.172 23.9656Z" fill="#B5C3CF"/>
<path fill-rule="evenodd" clip-rule="evenodd" d="M224.089 54.9813L205.09 68.5615C205.09 68.5615 205.384 68.7862 205.436 69.0506C205.489 69.315 205.436 69.754 205.436 69.754C205.436 69.754 207.698 71.4564 208.052 72.7333L227.054 59.0421L224.089 54.9813Z" fill="#3C658A"/>
<path fill-rule="evenodd" clip-rule="evenodd" d="M140.847 186.32V192.825C140.847 192.825 144.279 197.335 143.135 206.087C141.991 214.839 142.501 226.618 144.275 231.265C144.275 231.265 144.566 223.402 145.229 216.097C145.892 208.793 146.184 201.304 145.229 196.203C144.275 191.103 140.847 186.32 140.847 186.32Z" fill="#FFE186"/>
<path fill-rule="evenodd" clip-rule="evenodd" d="M144.378 232.068C144.378 232.068 147.969 245.748 149.528 246.448C151.088 247.147 152.419 244.702 152.419 244.702C152.419 244.702 151.298 245.564 149.528 241.39C147.759 237.217 144.378 232.068 144.378 232.068Z" fill="#FFE186"/>
<path fill-rule="evenodd" clip-rule="evenodd" d="M150.668 246.749C150.668 246.749 154.747 246.34 155.98 244.586C157.213 242.832 158.926 240.167 157.083 232.544C155.239 224.922 148.924 215.252 148.924 215.252C148.924 215.252 150.116 218.372 150.116 219.594C150.116 220.816 150.116 223.523 150.116 223.523C150.116 223.523 154.427 232.437 154.986 235.615C155.367 237.773 155.561 239.511 154.986 241.018C154.285 242.856 152.667 244.586 152.667 244.586L150.668 246.749Z" fill="#FFE186"/>
<path fill-rule="evenodd" clip-rule="evenodd" d="M148.489 214.577C148.489 214.577 149.233 206.475 149.233 205.83C149.233 205.184 149.248 204.285 149.578 199.011C149.908 193.738 150.556 186.653 149.034 184.039L148.032 181.504C148.032 181.504 150.25 184.478 150.25 185.709C150.25 186.939 150.521 193.949 150.894 195.658C151.268 197.367 152.052 205.563 151.525 209.202C150.998 212.841 150.727 218.143 150.727 218.143L148.489 214.577Z" fill="#FFE186"/>
<path fill-rule="evenodd" clip-rule="evenodd" d="M121.227 118.227C121.227 118.227 121.772 107.578 121.954 106.085C122.136 104.591 123.56 100.83 129.76 99.3472C129.76 99.3472 122.1 98.4909 120.239 99.7683C118.379 101.046 120.022 106.928 120.022 106.928C120.022 106.928 120.736 113.853 120.736 114.994C120.736 116.135 121.227 118.227 121.227 118.227Z" fill="#484D48"/>
<path fill-rule="evenodd" clip-rule="evenodd" d="M104.769 163.121C104.769 163.121 113.969 165.073 115.48 165.988C116.992 166.902 121.39 168.958 121.39 168.958C121.39 168.958 117.261 163.636 115.48 162.377C113.699 161.118 109.703 159.714 109.703 159.714L104.769 163.121Z" fill="#FFE186"/>
<path fill-rule="evenodd" clip-rule="evenodd" d="M98.5914 160.067L101.488 164.03C101.488 164.03 97.8236 166.547 97.8236 167.645L94.0134 168.291L98.5914 160.067Z" fill="#FFE186"/>
<path d="M103.561 163.739C103.561 163.739 110.182 151.722 112.323 154.198C114.464 156.673 110.462 158.757 110.462 158.757" stroke="#E7E7E7" stroke-width="2.35652" stroke-linecap="round"/>
<path d="M150.569 146.822C150.569 146.822 152.911 151.139 153.37 152.304C154.681 155.632 155.992 159.149 157.215 162.697C158.113 165.3 158.93 167.824 159.648 170.235C161.593 176.772 162.723 182.175 162.822 186.085C162.83 186.41 162.573 186.681 162.248 186.689C161.923 186.697 161.652 186.44 161.644 186.115C161.548 182.334 160.436 177.016 158.518 170.571C157.806 168.177 156.994 165.669 156.102 163.081C154.884 159.55 153.578 156.049 152.273 152.736C151.817 151.577 151.365 150.573 150.985 149.646L150.569 146.822Z" fill="#C0C0C0"/>
<path fill-rule="evenodd" clip-rule="evenodd" d="M144.139 183.213C144.139 183.213 144.122 180.534 145.996 180.534C147.87 180.534 148.274 183.983 148.274 184.62C148.274 185.258 148.754 192.584 148.754 192.584H145.107L144.139 183.213Z" fill="#68859A"/>
<path fill-rule="evenodd" clip-rule="evenodd" d="M145.42 193.357C144.841 192.995 144.708 191.847 146.256 191.432C147.804 191.017 149.18 192.051 148.668 192.939C148.156 193.827 145.998 193.719 145.42 193.357Z" fill="#8FA9BB"/>
<path d="M146.724 192.854C146.724 192.659 146.883 192.501 147.078 192.501C147.274 192.501 147.433 192.659 147.433 192.854V199.307C147.433 199.502 147.274 199.661 147.078 199.661C146.883 199.661 146.724 199.502 146.724 199.307V192.854Z" fill="#68859A"/>
<path fill-rule="evenodd" clip-rule="evenodd" d="M155.878 202.719C155.878 202.719 155.234 195.605 155.234 194.55C155.234 193.495 157.431 191.218 157.431 190.364C157.431 189.51 161.497 188.274 161.497 186.499C161.497 184.725 159.588 180.154 161.77 179.763C163.953 179.373 163.774 180.421 164.439 179.433C165.104 178.446 166.768 180.612 165.358 182.034C163.948 183.456 162.957 184.481 162.957 186.13C162.957 187.779 162.724 187.842 162.36 187.842C161.997 187.842 161.702 188.829 162.031 190.364C162.36 191.899 162.565 192.76 162.031 193.496C161.497 194.232 161.447 196.359 160.866 196.739C160.286 197.119 159.808 198.76 159.057 199.28C158.306 199.8 155.878 202.719 155.878 202.719Z" fill="#28455B"/>
<path fill-rule="evenodd" clip-rule="evenodd" d="M133.529 164.933L136.25 168.017L137.211 166.475L133.529 164.933Z" fill="#FFE186"/>
<path fill-rule="evenodd" clip-rule="evenodd" d="M137.942 167.754C137.315 168.101 135.661 169.665 135.661 169.665L134.908 172.161L137.001 172.821C137.001 172.821 138.57 167.406 137.942 167.754Z" fill="#FFE186"/>
<path fill-rule="evenodd" clip-rule="evenodd" d="M136.745 175.786C136.745 175.786 135.206 174.467 134.657 174.907C134.108 175.346 135.279 176.821 135.279 176.821L138.037 180.004C138.037 180.004 137.358 179.403 136.745 177.4C136.631 177.03 136.745 175.786 136.745 175.786Z" fill="#FFE186"/>
<path fill-rule="evenodd" clip-rule="evenodd" d="M136.632 179.072C136.632 179.072 136.113 181.909 136.632 182.507C137.151 183.106 138.673 187.527 138.673 188.373C138.673 189.219 139.273 190.031 139.273 190.031L139.854 185.456C139.854 185.456 139.273 184.598 139.273 182.507C139.273 180.417 136.632 179.072 136.632 179.072Z" fill="#FFE186"/>
<path fill-rule="evenodd" clip-rule="evenodd" d="M144.876 133.892C144.876 133.892 136.956 138.336 133.093 144.238C129.229 150.141 125.051 152.351 125.051 152.351C125.051 152.351 112.46 151.517 114.179 148.88C115.898 146.243 125.826 141.22 125.826 141.22C125.826 141.22 134.476 136.519 136.886 135.205C139.296 133.892 144.876 133.174 144.876 133.174V133.892Z" fill="#4181D5"/>
<path fill-rule="evenodd" clip-rule="evenodd" d="M114.607 159.06C114.607 159.06 119.929 155.69 122.542 155.69C125.155 155.69 130.621 151.898 133.712 151.898C136.803 151.898 145.408 147.762 145.408 147.762V159.06C145.408 159.06 134.645 155.69 130.008 155.69C125.37 155.69 114.607 159.06 114.607 159.06Z" fill="#4181D5"/>
<path d="M180.381 102.984C181.033 100.847 181.785 99.5972 181.785 99.5972C181.426 101.668 181.209 103.942 181.323 105.877C181.444 107.923 182.097 109.76 182.708 111.441C182.708 111.441 180.609 109.567 180.292 108.619C180.273 108.562 180.308 108.192 180.292 108.135C179.518 105.338 179.729 105.121 180.381 102.984Z" fill="#4181D5"/>
<path fill-rule="evenodd" clip-rule="evenodd" d="M58.5116 221.897C58.5116 221.897 54.8822 223.211 53.5603 223.795C52.2383 224.38 47.7627 227.495 46.6446 227.82C45.5264 228.146 42.2938 230.649 44.0694 229.699C45.8451 228.75 47.315 228.159 47.9176 227.82C48.5202 227.482 51.8037 225.643 52.5127 225.041C53.2216 224.439 54.1164 224.058 54.4843 223.795C54.8522 223.533 56.558 222.55 57.5348 222.825C58.5116 223.1 58.9533 222.825 58.9533 222.825L58.5116 221.897Z" fill="#213D53"/>
<path fill-rule="evenodd" clip-rule="evenodd" d="M78.6351 177.79C78.6351 177.79 77.3007 174.943 79.548 174.481C81.7953 174.02 82.4885 174.102 82.4885 174.481C82.4885 174.861 82.7124 176.402 81.808 177.79C81.4743 178.302 81.2795 179.39 80.6672 179.335C80.1732 179.291 78.6351 177.79 78.6351 177.79Z" fill="#4181D5"/>
<path fill-rule="evenodd" clip-rule="evenodd" d="M92.8735 169.813C92.8735 169.813 96.7838 169.316 97.5217 169.813C98.2595 170.31 100.399 170.268 101.414 170.289C102.428 170.31 104.103 171.233 104.607 171.604C104.607 171.604 102.409 169.222 98.7405 169.222C95.0718 169.222 92.8735 169.813 92.8735 169.813Z" fill="#28455B"/>
<path fill-rule="evenodd" clip-rule="evenodd" d="M109.01 206.441C109.01 206.441 111.911 203.564 112.655 202.493C113.399 201.421 114.36 198.34 114.765 197.411C115.169 196.483 117.769 193.306 117.769 192.997C117.769 192.688 116.437 192.086 116.437 192.086C116.437 192.086 113.056 194.597 112.655 196.004C112.253 197.411 110.938 198.846 110.938 199.263C110.938 199.68 109.01 206.441 109.01 206.441Z" fill="#28455B"/>
<path fill-rule="evenodd" clip-rule="evenodd" d="M105.149 188.03C105.149 188.03 100.172 187.067 100.172 186.415C100.172 185.763 100.764 185.369 98.8731 183.787C96.9823 182.205 95.9651 181.727 95.9651 181.429C95.9651 181.131 91.7717 177.385 91.7717 176.272C91.7717 175.158 88.4121 170.967 90.8458 172.247C93.2796 173.526 94.3751 174.544 95.9651 174.544C97.555 174.544 97.5744 173.647 98.8731 175.369C100.172 177.091 101.519 178.243 102.482 181.007C103.446 183.772 102.271 184.629 103.71 185.818C105.149 187.007 105.149 188.03 105.149 188.03Z" fill="#28455B"/>
<path fill-rule="evenodd" clip-rule="evenodd" d="M110.369 196.589C110.369 196.589 107.841 188.204 107.841 187.864C107.841 187.524 105.146 183.381 105.146 182.95C105.146 182.519 99.9355 175.101 101.062 175.408C102.188 175.715 102.875 175.432 103.767 176.853C104.66 178.274 105.214 179.184 105.636 181.067C106.057 182.95 106.236 183.801 106.855 184.897C107.474 185.994 108.139 186.496 108.139 186.496L110.369 196.589Z" fill="#28455B"/>
<path fill-rule="evenodd" clip-rule="evenodd" d="M101.45 168.293C101.45 168.293 105.659 166.883 107.041 168.293C108.423 169.703 112.521 173.446 112.521 174.146C112.521 174.846 113.384 178.153 113.384 178.452C113.384 178.752 114.554 183.278 114.554 183.278C114.554 183.278 113.285 173.697 112.521 172.697C111.757 171.696 109.637 170.369 108.819 169.331C108.002 168.293 106.931 167.221 104.832 167.221C102.733 167.221 101.45 168.293 101.45 168.293Z" fill="#28455B"/>
<path d="M137.615 195.59C137.615 195.59 133.795 210.591 135.19 213.646C136.584 216.701 140.682 226.245 147.023 223.026C153.365 219.808 156.456 213.696 155.754 210.532C155.051 207.369 155.893 196.726 151.458 196.726" stroke="#E4E4E4" stroke-width="0.942609" stroke-linecap="round"/>
</svg>
