<svg width="413" height="456" viewBox="0 0 413 456" fill="none" xmlns="http://www.w3.org/2000/svg">
<path fill-rule="evenodd" clip-rule="evenodd" d="M55.2791 0C51.4022 0 48.2593 3.14289 48.2593 7.01983V197.027C48.2593 200.904 51.4022 204.047 55.2791 204.047H146.023C149.9 204.047 153.043 200.904 153.043 197.027V7.01984C153.043 3.1429 149.9 0 146.023 0H55.2791Z" fill="#F4F7F9"/>
<path fill-rule="evenodd" clip-rule="evenodd" d="M48.4946 223.318C48.4946 219.441 51.6375 216.298 55.5145 216.298H145.237C149.114 216.298 152.256 219.441 152.256 223.318V324.188C152.256 328.065 149.114 331.208 145.237 331.208H55.5144C51.6375 331.208 48.4946 328.065 48.4946 324.188V223.318Z" fill="#F4F7F9"/>
<path fill-rule="evenodd" clip-rule="evenodd" d="M180.146 196.883C180.146 200.76 183.289 203.903 187.166 203.903H273.694C277.571 203.903 280.714 200.76 280.714 196.883V7.01983C280.714 3.14288 277.571 0 273.694 0H187.166C183.289 0 180.146 3.14288 180.146 7.01983V196.883Z" fill="#F4F7F9"/>
<path fill-rule="evenodd" clip-rule="evenodd" d="M257.054 205.039H273.694C277.571 205.039 280.714 201.896 280.714 198.02V8.15643C280.714 4.27948 277.571 1.1366 273.694 1.1366H230.494L257.054 205.039Z" fill="url(#paint0_linear_124_8)"/>
<path fill-rule="evenodd" clip-rule="evenodd" d="M314.195 0C310.318 0 307.175 3.14289 307.175 7.01983V197.639C307.175 201.515 310.318 204.658 314.195 204.658H403.396C407.273 204.658 410.416 201.515 410.416 197.639V7.01984C410.416 3.14289 407.273 0 403.396 0H314.195Z" fill="#F4F7F9"/>
<path fill-rule="evenodd" clip-rule="evenodd" d="M73.3246 272.526C73.3246 272.526 80.9568 251.327 80.9568 249.002C80.9568 249.002 83.7675 247.393 85.2088 244.122C86.6502 240.85 86.6153 236.328 87.5334 234.81C88.4514 233.292 99.5993 201.334 99.5993 201.334L100.459 162.233C100.459 162.233 91.2227 160.657 89.378 162.233C87.5334 163.809 88.0806 167.262 85.2088 168.768C82.337 170.275 76.1564 190.199 76.1564 193.04C76.1564 195.881 76.5329 203.316 75.3104 205.668C74.0878 208.021 72.5797 214.98 72.5797 224.895C72.5797 224.895 71.7582 229.344 69.5462 232.077C67.3342 234.81 57.5723 261.509 57.5723 268.395C57.5723 268.395 54.1382 281.977 54.4814 285.108C54.6778 286.9 56.8496 287.728 57.5723 287.962C57.5723 287.962 58.5429 285.108 58.9722 283.806C58.9722 283.806 66.2265 285.534 69.5462 288.388C69.5462 288.388 72.1527 278.702 73.3246 273.782C73.4122 273.414 73.3246 272.526 73.3246 272.526Z" fill="#3A5971"/>
<path fill-rule="evenodd" clip-rule="evenodd" d="M114.552 285.388C114.552 285.388 104.253 280.729 99.5773 281.414C99.5773 281.414 98.782 258.439 99.5773 255.908C100.372 253.377 98.2836 251.735 99.1816 249.574C100.08 247.412 100.08 242.376 100.08 239.698C100.08 237.02 100.885 228.612 101.772 226.698C102.66 224.783 100.875 209.241 100.875 207.32C100.875 205.399 97.2593 193.191 95.5061 190.415C93.7528 187.638 92.6788 177.313 95.5061 170.451C98.3333 163.589 100.08 162.188 100.08 162.188C100.08 162.188 110.507 164.613 114.301 165.275C118.095 165.937 127.6 169.989 129.107 174.663C129.107 174.663 127.775 180.064 127.775 180.879C127.775 181.695 128.309 193.677 125.815 206.436C123.321 219.194 118.95 242.315 118.95 243.891C118.95 245.467 117.936 248.359 116.937 249.574C115.938 250.789 117.407 254.012 117.851 257.26C118.295 260.509 114.763 273.662 114.763 276.363C114.763 279.065 114.552 285.388 114.552 285.388Z" fill="#304D63"/>
<path fill-rule="evenodd" clip-rule="evenodd" d="M100.389 176.583C100.389 176.583 100.389 192.741 100.389 193.609C100.389 194.477 108.596 197.415 108.596 197.415L117.432 196.807L120.213 180.697C120.213 180.697 110.557 178.876 107.918 177.73C105.28 176.583 100.389 176.583 100.389 176.583Z" fill="#254054"/>
<path fill-rule="evenodd" clip-rule="evenodd" d="M56.1261 274.38C54.8565 279.952 54.3082 283.528 54.4814 285.108C54.6778 286.901 56.8496 287.728 57.5723 287.962C57.5723 287.962 58.5429 285.108 58.9722 283.806C58.9722 283.806 66.2265 285.534 69.5462 288.388C69.5462 288.388 71.775 279.947 72.2066 278.277C72.2479 278.117 66.945 275.409 62.8724 274.38C58.9035 273.377 56.2484 273.843 56.1261 274.38Z" fill="#9D9A91"/>
<path fill-rule="evenodd" clip-rule="evenodd" d="M70.7785 277.466C70.2255 280.003 68.563 287.627 68.563 287.627C68.9153 287.874 69.2431 288.128 69.5462 288.388C69.5462 288.388 70.6798 284.114 71.1292 282.405C71.5774 280.701 71.9453 279.297 72.2361 278.174L70.7785 277.466Z" fill="#716F67"/>
<path fill-rule="evenodd" clip-rule="evenodd" d="M54.4812 285.108C54.6391 286.548 56.0721 287.366 57.0041 287.752C57.2321 287.847 57.8641 288.038 58.0062 288.083C58.0062 288.083 69.4273 288.894 69.5506 288.379C69.6323 288.038 68.6198 287.386 67.1868 286.821C64.0455 285.583 58.9028 284.24 58.972 283.806C58.972 283.806 54.1381 281.977 54.4812 285.108Z" fill="#504F4D"/>
<path fill-rule="evenodd" clip-rule="evenodd" d="M100.459 162.233C100.459 162.233 91.2227 160.657 89.378 162.233C87.9614 163.444 87.9555 165.761 86.7283 167.453C86.7283 167.453 90.8695 167.636 92.9377 167.945C95.3572 168.307 100.196 169.605 100.196 169.605L100.459 162.233Z" fill="#304D63"/>
<path fill-rule="evenodd" clip-rule="evenodd" d="M96.2893 168.607C97.8178 165.129 100.08 162.188 100.08 162.188C100.08 162.188 110.142 164.661 114.753 165.402C119.365 166.143 127.6 169.989 129.107 174.663C129.107 174.663 128.213 178.384 127.998 179.444C127.998 179.444 119.071 173.797 115.448 172.559C111.934 171.358 108.159 171.294 102.177 170.081C100.277 169.696 96.2893 168.607 96.2893 168.607Z" fill="#304D63"/>
<path fill-rule="evenodd" clip-rule="evenodd" d="M193.46 92.0075C193.46 92.0075 188.71 90.9625 189.197 88.2534C189.684 85.5443 187.318 84.3087 186.167 83.1102C185.015 81.9117 180.189 77.0308 180.931 74.3848C181.672 71.7387 179.76 69.1854 181.923 67.3691C184.087 65.5529 179.642 62.218 182.604 58.784C185.567 55.3501 188.529 55.3187 189.724 57.0514C190.918 58.784 192.156 61.2172 194.845 61.7463C197.534 62.2753 197.052 60.3889 200.032 59.8475C203.013 59.3062 207.956 61.0903 205.754 64.9131C203.552 68.736 201.514 66.733 203.532 70.349C205.551 73.9651 207.59 72.1662 208.583 75.3726C209.102 77.0453 210.57 78.018 210.942 79.3516C211.283 80.5745 210.598 82.186 209.632 83.1102C207.613 85.0423 203.795 83.0357 202.793 84.771C201.791 86.5062 201.873 87.5543 201.106 87.5543C200.338 87.5543 193.46 92.0075 193.46 92.0075Z" fill="white"/>
<path fill-rule="evenodd" clip-rule="evenodd" d="M193.362 87.2145C193.362 87.2145 190.9 84.8479 191.202 83.1807C191.504 81.5134 189.13 80.753 188.416 80.0155C187.702 79.2779 181.541 71.9566 182.001 70.3281C182.461 68.6997 185.348 71.4459 186.69 70.3281C188.032 69.2104 182.525 63.9016 184.363 61.7883C186.201 59.675 188.581 64.0055 189.322 65.0718C190.063 66.1381 187.257 58.9919 188.925 59.3174C189.176 59.3664 190.937 60.083 191.202 60.6777C191.944 62.3429 192.067 65.4818 192.831 66.0985C193.076 66.2964 193.074 63.9323 193.233 63.4613C193.462 62.7797 193.492 62.5119 194.108 62.2449C194.724 61.9778 195.363 62.84 195.496 63.1743C196.33 65.2844 196.203 70.5857 196.523 70.3281C197.109 69.8556 196.199 65.0718 197.657 65.0718C199.003 65.0718 200.921 66.7029 200.24 69.7014C199.559 72.6998 200.833 73.2471 201.647 75.5357C202.461 77.8242 201.73 78.7233 201.013 80.7596C200.296 82.7958 202.705 85.5553 200.24 87.2145C198.636 88.2947 193.362 87.2145 193.362 87.2145Z" fill="#E0E0E0"/>
<path fill-rule="evenodd" clip-rule="evenodd" d="M193.665 88.1458C193.665 88.1458 192.557 84.0228 191.797 82.6477C190.874 80.9792 189.256 80.1023 188.881 79.5536C187.857 78.0521 183.998 72.4994 182.43 70.9882C180.862 69.477 183.292 69.1877 184.466 70.0879C185.639 70.9882 187.714 71.7926 187.714 71.7926C187.714 71.7926 184.466 63.3168 184.466 61.8884C184.466 60.4599 185.85 60.1934 186.896 61.8884C187.943 63.5834 189.985 68.904 189.985 68.904L188.881 59.8501C188.881 59.8501 188.792 59.4002 189.118 59.0463C189.548 58.5797 190.472 58.2968 191.027 59.5987C191.493 60.6914 191.73 62.5982 192.22 65.1702C192.346 65.8319 193.049 68.5082 193.049 68.5082C193.049 68.5082 193.058 67.0535 193.049 66.7536C192.963 63.682 193.284 62.3897 194.156 62.3897C194.944 62.3897 195.337 64.0749 195.879 67.4355C196.028 68.3627 196.57 70.5961 196.57 70.5961C196.57 70.5961 196.679 65.861 197.682 65.861C197.959 65.861 198.515 66.1424 198.757 66.7536C199.392 68.3572 199.392 71.4499 199.107 73.8146C198.739 76.8673 200.822 88.1458 200.822 88.1458H193.665Z" fill="#EDB79F"/>
<path opacity="0.5" fill-rule="evenodd" clip-rule="evenodd" d="M193.665 88.1459C193.665 88.1459 192.629 84.0731 191.931 82.8002C190.83 80.7912 189.299 80.1664 188.881 79.5537C187.857 78.0521 183.998 72.4995 182.43 70.9883C180.862 69.477 186.196 73.0539 189.333 78.7239C189.812 79.5885 191.867 80.7749 192.852 82.4582C193.746 83.9872 194.838 88.1459 194.838 88.1459H193.665Z" fill="#D5987C"/>
<path fill-rule="evenodd" clip-rule="evenodd" d="M103.153 109.08C103.153 109.08 106.379 104.072 108.192 102.936C110.006 101.799 111.786 101.454 112.549 101.454C113.313 101.454 115.5 98.8688 116.75 98.8688C117.999 98.8688 116.75 101.454 116.75 101.454C116.75 101.454 118.277 100.026 119.327 100.026C120.378 100.026 120.604 101.454 120.604 101.454L117.553 105.953L103.153 109.08Z" fill="#EDB79F"/>
<path fill-rule="evenodd" clip-rule="evenodd" d="M91.1861 161.683C91.1861 161.683 100.645 151.601 103.013 149.287C105.38 146.974 108.468 138.313 109.38 135.931C110.292 133.548 114.259 124.726 112.948 122.996C111.638 121.266 109.38 122.996 109.38 122.996C109.38 122.996 108.555 128.348 106.56 128.348C104.566 128.348 101.478 130.023 100.109 131.251C98.7412 132.48 95.6831 131.251 92.3892 131.251C89.0952 131.251 81.1528 132.866 78.0239 128.348C74.895 123.83 83.9297 117.219 88.1594 117.219C92.3892 117.219 98.816 113.532 100.109 111.678C101.403 109.824 112.911 101.499 115.91 101.499C118.908 101.499 127.098 102.118 127.881 103.546C128.665 104.974 150.668 108.932 150.668 108.932C150.668 108.932 152.325 110.641 153.547 110.641C154.77 110.641 157.46 110.471 157.46 111.678C157.46 112.885 160.488 113.79 163.03 113.79C165.572 113.79 170.281 114.816 173.347 114.816C174.993 114.816 179.919 114.712 184.65 113.79C188.735 112.993 192.631 111.432 194.641 110.641C194.641 110.641 194.947 94.1678 193.371 92.002C191.796 89.8362 192.847 87.4604 194.641 87.4604C196.434 87.4604 202.532 87.0575 202.532 89.5297C202.532 92.002 201.899 95.6619 203.416 98.1034C204.933 100.545 206.524 112.414 206.524 114.816C206.524 117.219 190.4 125.524 182.368 126.936C174.337 128.348 162.815 128.083 153.547 143.465C144.279 158.847 139.591 164.386 139.591 167.184C139.591 169.982 135.683 171.092 134.44 174.462C133.196 177.833 132.484 181.65 127.881 180.847L129.172 174.462C129.172 174.462 124.87 167.7 117.257 166.068C109.645 164.435 108.25 164.05 104.301 163.242C93.5616 161.045 91.1861 161.683 91.1861 161.683Z" fill="#4993F3"/>
<path fill-rule="evenodd" clip-rule="evenodd" d="M112.948 122.996C111.304 121.184 109.38 122.996 109.38 122.996C109.38 122.996 108.555 128.348 106.56 128.348C104.566 128.348 101.478 130.023 100.109 131.252C98.7412 132.48 95.6831 131.252 92.3892 131.252C92.3892 131.252 98.3076 128.259 100.109 126.936C102.669 125.056 105.679 123.618 106.56 122.996C107.211 122.537 109.091 121.041 110.21 121.041C111.328 121.041 112.948 122.996 112.948 122.996Z" fill="#4181D5"/>
<path fill-rule="evenodd" clip-rule="evenodd" d="M91.186 161.683C91.186 161.683 92.3673 160.425 92.9256 159.831C92.9256 159.831 99.9247 159.318 105.886 160.668C110.373 161.683 116.296 162.364 120.391 164.022C129.172 167.576 133.483 177.394 132.812 178.596C131.897 180.236 130.537 181.311 127.881 180.847L129.172 174.462C129.172 174.462 127.011 171.66 125.729 170.552C123.204 168.37 120.23 166.922 117.284 166.026C114.493 165.177 112.478 164.988 110.787 164.659C108.442 164.204 106.722 163.748 104.428 163.279C93.6882 161.081 91.186 161.683 91.186 161.683Z" fill="#EDB79F"/>
<path fill-rule="evenodd" clip-rule="evenodd" d="M132.812 178.596C131.897 180.236 130.373 181.387 127.718 180.923C127.718 180.923 128.426 176.554 128.881 174.45C129.103 173.422 129.75 171.526 129.75 171.526C129.75 171.526 131.188 173.228 131.711 174.45C132.561 176.435 133.102 178.077 132.812 178.596Z" fill="#2A538A"/>
<path fill-rule="evenodd" clip-rule="evenodd" d="M160.291 97.5339C160.291 97.5339 154.002 109.987 151.65 109.225C149.299 108.464 148.8 107.862 148.8 107.862L154.685 97.5339H160.291Z" fill="#EDB79F"/>
<path fill-rule="evenodd" clip-rule="evenodd" d="M131.735 111.937C129.631 111.937 127.944 110.547 129.459 107.844C130.974 105.141 131.145 104.64 132.515 101.928C133.885 99.2151 134.522 97.4235 135.263 95.3298C136.004 93.236 136.439 91.5345 136.928 89.6686C137.417 87.8027 138.607 84.3428 140.821 81.5197C143.035 78.6966 144.481 78.1395 146.709 76.4C148.937 74.6605 153.833 72.8029 157.897 74.6014C161.961 76.4 167.368 82.3976 165.492 89.1258C163.616 95.8539 161.971 95.8539 161.438 96.3858C160.905 96.9177 160.412 97.5439 157.897 98.7866C157.897 98.7866 155.026 100.781 154.046 103.047C153.065 105.314 152.582 108.616 149.572 108.616C146.562 108.616 146.873 108.858 143.45 110.712C140.028 112.566 139.67 110.712 137.572 110.712C135.475 110.712 133.839 111.937 131.735 111.937Z" fill="#4F3737"/>
<path fill-rule="evenodd" clip-rule="evenodd" d="M134.236 98.1762C135.636 94.6561 136.262 92.1479 136.753 90.275C137.244 88.4022 137.752 86.2864 139.986 82.6488C142.22 79.0112 144.481 78.1395 146.709 76.4C148.937 74.6605 153.833 72.8029 157.897 74.6014C159.936 75.5039 162.331 77.5093 163.965 80.1106C164.412 80.8228 161.497 76.4 156.263 76.4C152.286 76.4 151.084 78.9109 149.091 80.1106C147.098 81.3104 145.46 81.2328 142.871 82.1363C139.791 83.2116 140.745 86.6003 138.616 89.3962C137.581 90.7551 137.313 93.4885 136.347 94.4638C135.696 95.1207 134.236 98.1762 134.236 98.1762Z" fill="#685353"/>
<path fill-rule="evenodd" clip-rule="evenodd" d="M115.901 126.732C116.339 123.736 119.959 118.533 123.163 115.34C125.795 112.717 126.857 111.097 127.903 109.857C130.163 107.179 130.822 105.432 131.403 104.14C131.403 104.14 132.58 104.498 134.425 104.498C137.572 104.498 138.561 100.301 140.998 98.7865C142.846 97.6385 147.538 99.921 149.572 98.7865C152.017 97.423 153.587 94.0394 155.657 92.5722C157.408 91.331 159.825 93.3435 161.248 92.5722C164.645 90.7314 165.829 87.2729 165.492 89.1257C164.866 92.5722 163.431 94.7794 161.754 96.2618C160.078 97.7442 160.365 97.5486 157.897 98.7865C157.897 98.7865 154.911 100.873 154.046 103.047C153.18 105.222 152.59 106.14 152.108 110.446C151.996 111.445 151.865 114.215 152.301 117.314C152.94 121.862 157.222 125.623 154.046 133.651C151.433 140.254 142.408 141.289 137.721 141.826C126.751 143.082 121.078 139.428 118.547 137.712C116.017 135.997 115.132 131.994 115.901 126.732Z" fill="#3F2727"/>
<path fill-rule="evenodd" clip-rule="evenodd" d="M188.434 217.466C184.557 217.466 181.414 220.609 181.414 224.486V324.373C181.414 328.25 184.557 331.393 188.434 331.393H273.863C277.74 331.393 280.882 328.25 280.882 324.373V224.486C280.882 220.609 277.74 217.466 273.863 217.466H188.434Z" fill="#F4F7F9"/>
<path fill-rule="evenodd" clip-rule="evenodd" d="M20.3336 442.197C20.3336 442.197 18.762 446.977 14.51 445.384C10.258 443.791 13.5509 438.54 13.5509 438.54L78.7723 288.125L81.8751 281.789H86.1574L88.2325 286.458L20.3336 442.197Z" fill="#C6C6C6"/>
<path fill-rule="evenodd" clip-rule="evenodd" d="M58.9613 283.8C58.9613 283.8 57.1807 292.208 54.5865 295.524C53.518 296.89 54.3632 298.361 55.5517 299.813C57.2485 301.887 60.1067 303.768 60.8737 304.653C62.1779 306.159 62.6141 308.294 64.9415 309.399C67.2689 310.504 72.0831 309.76 72.0831 309.76C72.0831 309.76 74.8226 308.275 72.7638 305.891C70.7049 303.508 68.0135 298.704 68.0135 297.711C68.0135 297.339 67.0625 295.879 67.0625 293.712C67.0625 292.017 68.0135 287.173 68.0135 287.173C68.0135 287.173 66.2374 286.095 63.6895 285.182C61.1416 284.27 58.9613 283.8 58.9613 283.8Z" fill="#DFDEDE"/>
<path fill-rule="evenodd" clip-rule="evenodd" d="M58.9527 283.8C58.9527 283.8 58.714 284.945 58.6077 285.382C58.6077 285.382 60.0284 285.336 60.8852 285.743C61.7432 286.15 63.2708 287.853 64.6254 288.845C65.5657 289.533 67.5075 289.845 67.5075 289.845C67.6093 289.277 68.0133 287.173 68.0133 287.173C68.0133 287.173 66.2372 286.095 63.6894 285.182C61.1415 284.27 58.9527 283.8 58.9527 283.8Z" fill="#EDB79F"/>
<path fill-rule="evenodd" clip-rule="evenodd" d="M54.6244 298.403C55.8668 300.997 59.9352 303.57 60.8736 304.653C62.1778 306.159 62.3306 308.122 64.6579 309.227C66.9853 310.332 71.1478 310.154 71.1478 310.154C70.2337 309.699 68.6024 309.317 67.9077 308.513C67.2146 307.711 65.856 306.195 64.4306 303.866C63.2556 301.947 62.1249 299.296 59.9256 298.403C55.8668 296.755 54.4375 298.013 54.6244 298.403Z" fill="#D5987C"/>
<path fill-rule="evenodd" clip-rule="evenodd" d="M53.4126 296.893L54.2599 294.931C54.2599 294.931 54.8195 294.095 54.9661 293.738C55.1127 293.382 56.9454 288.77 57.1848 287.714C57.4243 286.659 57.7127 287.458 58.4718 287.458C59.2309 287.458 59.5365 287.087 60.3443 287.714C60.8346 288.096 62.7491 290.9 65.6062 292.739C66.7295 293.462 67.2666 292.398 67.9666 292.398C69.7472 292.398 68.4876 299.014 69.8746 301.136C71.2616 303.257 75.6668 307.187 75.6668 308.609C75.6668 310.031 75.0296 311.196 74.5732 311.196C74.1168 311.196 69.2139 311.196 69.2139 311.196L53.4126 296.893Z" fill="#868686"/>
<path fill-rule="evenodd" clip-rule="evenodd" d="M53.4126 296.893L54.2508 294.908C54.2508 294.908 56.0118 294.59 57.0084 294.76C59.195 295.134 60.2731 295.963 61.4352 297.128C62.4694 298.166 63.1683 299.59 63.5449 300.166C64.3254 301.36 66.9181 305.585 69.2139 307.997C70.9088 309.778 74.5732 311.196 74.5732 311.196C74.1168 311.196 69.2139 311.196 69.2139 311.196L53.4126 296.893Z" fill="#D9D9D9"/>
<path fill-rule="evenodd" clip-rule="evenodd" d="M53.7755 298.972C53.2243 298.006 53.265 297.014 53.5728 296.502C54.0707 295.674 55.6705 295.511 57.3697 296.073C61.4942 297.44 62.8991 301.168 63.7793 302.774C64.6596 304.38 68.933 309.425 70.4184 310.282C71.9038 311.139 72.6543 311.215 72.6543 311.215H64.1895C64.1895 311.215 62.2718 308.726 61.141 306.201C60.6472 305.098 58.0739 303.522 56.2201 301.865C55.2436 300.991 54.3267 299.938 53.7755 298.972Z" fill="#9DA0A3"/>
<path fill-rule="evenodd" clip-rule="evenodd" d="M20.3336 442.197C20.3336 442.197 18.762 446.977 14.51 445.384C10.258 443.791 13.5509 438.54 13.5509 438.54L20.3336 442.197Z" fill="#2F2F2F"/>
<path fill-rule="evenodd" clip-rule="evenodd" d="M157.084 446.702C157.084 446.702 158.487 451.533 162.792 450.09C167.097 448.646 163.99 443.284 163.99 443.284L100.646 281.534L95.3592 281.533L94.6612 288.688L157.084 446.702Z" fill="#C6C6C6"/>
<path fill-rule="evenodd" clip-rule="evenodd" d="M101.134 294.775C101.134 294.775 100.393 303.233 100.004 305.527C99.4305 308.919 98.0947 310.022 99.7931 311.069C100.841 311.715 118.963 311.644 118.963 311.644C118.963 311.644 120.583 312.042 120.583 310.053C120.583 308.064 111.671 305.601 110.674 304.512C109.678 303.423 109.602 297.955 109.602 297.955L109.43 294.113L101.334 291.816L101.134 294.775Z" fill="#DFDEDE"/>
<path fill-rule="evenodd" clip-rule="evenodd" d="M101.134 294.775C101.134 294.775 102.066 296.731 104.323 297.179C106.58 297.627 109.613 298.321 109.613 298.321L109.476 294.025L101.334 291.816L101.134 294.775Z" fill="#EDB79F"/>
<path fill-rule="evenodd" clip-rule="evenodd" d="M99.7527 299.801C99.7527 299.801 99.2106 301.933 98.9268 303.206C98.2591 306.201 97.8386 308.325 97.9042 309.206C97.9734 310.139 98.955 311.475 99.5325 311.475C101.348 311.475 120.934 311.751 120.934 311.751C120.934 311.751 122.366 309.576 120.934 308.18C119.502 306.784 111.767 304.188 111.767 303.206C111.767 302.225 111.911 300.868 110.797 300.868C109.682 300.868 109.866 302.681 108.133 302.681C106.4 302.681 105.855 301.509 103.49 300.18C102.935 299.868 101.687 299.344 100.489 299.364C100.146 299.37 99.7527 299.801 99.7527 299.801Z" fill="#868686"/>
<path fill-rule="evenodd" clip-rule="evenodd" d="M98.0662 309.857C98.3826 310.659 99.081 311.475 99.5325 311.475C101.348 311.475 120.934 311.751 120.934 311.751C120.934 311.751 121.372 311.001 121.491 310.654L98.0662 309.857Z" fill="#D9D9D9"/>
<path fill-rule="evenodd" clip-rule="evenodd" d="M99.2581 281.272L98.1638 293.166L112.749 297.706C113.42 292.094 114.148 288.02 114.68 285.398C114.68 285.398 108.458 281.757 102.231 280.843C100.125 280.534 99.2581 281.272 99.2581 281.272Z" fill="#9D9A91"/>
<path fill-rule="evenodd" clip-rule="evenodd" d="M112.749 297.705C113.42 292.093 114.231 287.996 114.688 285.398C114.688 285.398 113.368 284.655 112.812 284.364C112.812 284.364 111.788 292.973 111.276 297.278L112.749 297.705Z" fill="#716F67"/>
<path fill-rule="evenodd" clip-rule="evenodd" d="M157.081 446.701C157.081 446.701 158.484 451.532 162.789 450.088C167.094 448.645 163.987 443.283 163.987 443.283L157.081 446.701Z" fill="#2F2F2F"/>
<path fill-rule="evenodd" clip-rule="evenodd" d="M315.075 217.369C311.198 217.369 308.055 220.512 308.055 224.389V325.087C308.055 328.964 311.198 332.107 315.075 332.107H405.827C409.704 332.107 412.847 328.964 412.847 325.087V224.389C412.847 220.512 409.704 217.369 405.827 217.369H315.075Z" fill="#F4F7F9"/>
<path fill-rule="evenodd" clip-rule="evenodd" d="M10.53 417.363C10.53 416.744 11.0124 416.232 11.6304 416.195L23.2766 415.501H27.8922C29.2921 415.501 29.5104 417.513 28.1432 417.814L24.6937 418.571C24.6113 418.589 24.5271 418.598 24.4427 418.598H11.7C11.0538 418.598 10.53 418.075 10.53 417.428V417.363Z" fill="#DCDCDC"/>
<rect x="10.53" y="416.261" width="14.0397" height="2.3376" rx="1.1688" fill="#2C2A2B"/>
<path fill-rule="evenodd" clip-rule="evenodd" d="M25.7395 383.468C25.7395 382.849 26.2218 382.337 26.8398 382.3L38.4861 381.606H43.1017C44.5015 381.606 44.7199 383.618 43.3527 383.918L39.9032 384.676C39.8207 384.694 39.7366 384.703 39.6522 384.703H26.9095C26.2633 384.703 25.7395 384.179 25.7395 383.533V383.468Z" fill="#DCDCDC"/>
<rect x="25.7395" y="382.366" width="14.0397" height="2.3376" rx="1.1688" fill="#2C2A2B"/>
<path fill-rule="evenodd" clip-rule="evenodd" d="M39.7793 349.573C39.7793 348.954 40.2616 348.442 40.8796 348.405L52.5259 347.711H57.1415C58.5413 347.711 58.7597 349.723 57.3925 350.023L53.943 350.781C53.8605 350.799 53.7764 350.808 53.692 350.808H40.9493C40.3031 350.808 39.7793 350.284 39.7793 349.638V349.573Z" fill="#DCDCDC"/>
<rect x="39.7793" y="348.47" width="14.0397" height="2.3376" rx="1.1688" fill="#2C2A2B"/>
<path fill-rule="evenodd" clip-rule="evenodd" d="M54.8962 312.96C54.8962 312.341 55.3786 311.829 55.9966 311.792L67.6428 311.098H72.2584C73.6583 311.098 73.8767 313.11 72.5094 313.411L69.0599 314.168C68.9775 314.186 68.8933 314.195 68.8089 314.195H56.0662C55.4201 314.195 54.8962 313.672 54.8962 313.025V312.96Z" fill="#EAE7E7"/>
<path fill-rule="evenodd" clip-rule="evenodd" d="M54.8962 313.027C54.8962 312.381 55.4195 311.858 56.065 311.858H67.7671C68.4126 311.858 68.9359 312.381 68.9359 313.027C68.9359 313.672 68.4126 314.195 67.7671 314.195H56.065C55.4195 314.195 54.8962 313.672 54.8962 313.027Z" fill="#2C2A2B"/>
<path fill-rule="evenodd" clip-rule="evenodd" d="M95.9192 313.523C95.9192 312.904 96.4015 312.392 97.0195 312.355L108.666 311.661H113.281C114.681 311.661 114.9 313.673 113.532 313.973L110.083 314.731C110 314.749 109.916 314.758 109.832 314.758H97.0892C96.443 314.758 95.9192 314.234 95.9192 313.588V313.523Z" fill="#EAE7E7"/>
<path fill-rule="evenodd" clip-rule="evenodd" d="M95.9192 313.589C95.9192 312.944 96.4425 312.421 97.088 312.421H108.79C109.436 312.421 109.959 312.944 109.959 313.589C109.959 314.235 109.436 314.758 108.79 314.758H97.088C96.4425 314.758 95.9192 314.235 95.9192 313.589Z" fill="#2C2A2B"/>
<path fill-rule="evenodd" clip-rule="evenodd" d="M107.638 350.742C107.638 350.122 108.12 349.611 108.738 349.574L120.384 348.879H125C126.4 348.879 126.618 350.892 125.251 351.192L121.801 351.95C121.719 351.968 121.635 351.977 121.55 351.977H108.808C108.162 351.977 107.638 351.453 107.638 350.807V350.742Z" fill="#EAE7E7"/>
<rect x="107.638" y="349.639" width="14.0397" height="2.3376" rx="1.1688" fill="#2C2A2B"/>
<path fill-rule="evenodd" clip-rule="evenodd" d="M121.677 385.806C121.677 385.186 122.16 384.674 122.778 384.638L134.424 383.943H139.039C140.439 383.943 140.658 385.956 139.29 386.256L135.841 387.014C135.758 387.032 135.674 387.041 135.59 387.041H122.847C122.201 387.041 121.677 386.517 121.677 385.871V385.806Z" fill="#DCDCDC"/>
<rect x="121.677" y="384.703" width="14.0397" height="2.3376" rx="1.1688" fill="#2C2A2B"/>
<path fill-rule="evenodd" clip-rule="evenodd" d="M134.547 419.701C134.547 419.081 135.029 418.57 135.647 418.533L147.293 417.838H151.909C153.309 417.838 153.527 419.851 152.16 420.151L148.711 420.909C148.628 420.927 148.544 420.936 148.46 420.936H135.717C135.071 420.936 134.547 420.412 134.547 419.766V419.701Z" fill="#DCDCDC"/>
<rect x="134.547" y="418.598" width="14.0397" height="2.3376" rx="1.1688" fill="#2C2A2B"/>
<path fill-rule="evenodd" clip-rule="evenodd" d="M150.854 451.989C150.854 451.989 152.174 456.844 156.503 455.476C160.833 454.108 157.819 448.692 157.819 448.692L96.7898 284.956L95.2119 282.58L86.1605 282.105L89.4197 288.53L150.854 451.989Z" fill="#D2D1D6"/>
<path fill-rule="evenodd" clip-rule="evenodd" d="M96.7942 284.958L95.3351 281.841L86.1406 281.84L89.4241 288.532L96.7942 284.958Z" fill="#2C2A2B"/>
<path fill-rule="evenodd" clip-rule="evenodd" d="M150.85 451.987C150.85 451.987 152.17 456.842 156.499 455.474C160.829 454.106 157.815 448.69 157.815 448.69L150.85 451.987Z" fill="#2F2F2F"/>
<path fill-rule="evenodd" clip-rule="evenodd" d="M8.63392 448.041C8.63392 448.041 7.06234 452.821 2.81034 451.228C-1.44166 449.635 1.85117 444.384 1.85117 444.384L71.3662 284.067L73.0663 281.776H82.1302L78.5392 288.022L8.63392 448.041Z" fill="#D2D1D6"/>
<path fill-rule="evenodd" clip-rule="evenodd" d="M71.3662 284.067L73.0663 281.776H82.1302L78.5391 288.022L71.3662 284.067Z" fill="#2C2A2B"/>
<path fill-rule="evenodd" clip-rule="evenodd" d="M8.63392 448.041C8.63392 448.041 7.06234 452.821 2.81034 451.228C-1.44166 449.635 1.85117 444.384 1.85117 444.384L8.63392 448.041Z" fill="#2F2F2F"/>
<rect x="71.3684" y="278.343" width="29.2493" height="3.50639" fill="#D8D8D8"/>
<path fill-rule="evenodd" clip-rule="evenodd" d="M176.472 418.278C176.472 418.278 174.656 417.981 174.199 417.518C173.742 417.055 173.745 415.518 173.745 415.518H212.177C212.177 415.518 212.164 416.911 211.702 417.518C211.24 418.125 209.975 418.925 209.975 418.925L206.019 455.174C206.019 455.174 197.383 455.868 192.961 455.868C188.538 455.868 180.992 455.174 180.992 455.174L176.472 418.278Z" fill="#D5E6FD"/>
<path fill-rule="evenodd" clip-rule="evenodd" d="M207.342 415.518H212.176C212.176 415.518 212.164 416.911 211.702 417.518C211.24 418.125 209.975 418.925 209.975 418.925L206.019 455.174C206.019 455.174 200.755 455.569 198.621 455.684L207.342 415.518Z" fill="#C0D5F2"/>
<path fill-rule="evenodd" clip-rule="evenodd" d="M176.472 418.278C176.472 418.278 174.656 417.981 174.199 417.518C173.742 417.055 173.745 415.518 173.745 415.518H212.177C212.177 415.518 212.164 416.911 211.702 417.518C211.24 418.125 209.975 418.925 209.975 418.925L176.472 418.278Z" fill="#A4BCDC"/>
<path d="M193.339 418.59C193.339 418.59 193.979 435.459 207.069 439.422" stroke="white" stroke-width="2.33994" stroke-linecap="round"/>
<defs>
<linearGradient id="paint0_linear_124_8" x1="230.494" y1="1.1366" x2="230.494" y2="205.039" gradientUnits="userSpaceOnUse">
<stop stop-color="#FAF9F9"/>
<stop offset="1" stop-color="#F2F0F0" stop-opacity="0.01"/>
</linearGradient>
</defs>
</svg>
