<svg width="207" height="229" viewBox="0 0 207 229" fill="none" xmlns="http://www.w3.org/2000/svg">
<path fill-rule="evenodd" clip-rule="evenodd" d="M27.6396 0.431458C25.7011 0.431458 24.1296 2.0029 24.1296 3.94137V98.9448C24.1296 100.883 25.7011 102.455 27.6396 102.455H73.0114C74.9498 102.455 76.5213 100.883 76.5213 98.9448V3.94138C76.5213 2.00291 74.9498 0.431458 73.0114 0.431458H27.6396Z" fill="#F6F6F6"/>
<path fill-rule="evenodd" clip-rule="evenodd" d="M24.2473 112.159C24.2473 110.221 25.8188 108.649 27.7572 108.649H72.6183C74.5568 108.649 76.1282 110.221 76.1282 112.159V162.594C76.1282 164.533 74.5568 166.104 72.6183 166.104H27.7572C25.8188 166.104 24.2473 164.533 24.2473 162.594V112.159Z" fill="#F2F0F0"/>
<path fill-rule="evenodd" clip-rule="evenodd" d="M90.0731 99.5098C90.0731 101.448 91.6446 103.02 93.583 103.02H136.847C138.785 103.02 140.357 101.448 140.357 99.5098V4.57827C140.357 2.6398 138.785 1.06836 136.847 1.06836H93.583C91.6446 1.06836 90.0731 2.6398 90.0731 4.57827V99.5098Z" fill="#F2F0F0"/>
<path fill-rule="evenodd" clip-rule="evenodd" d="M128.527 103.02H136.847C138.785 103.02 140.357 101.448 140.357 99.5098V4.57827C140.357 2.6398 138.785 1.06836 136.847 1.06836H115.247L128.527 103.02Z" fill="url(#paint0_linear_175_7666)"/>
<path fill-rule="evenodd" clip-rule="evenodd" d="M157.097 0.866333C155.159 0.866333 153.587 2.43778 153.587 4.37625V99.6856C153.587 101.624 155.159 103.196 157.097 103.196H201.698C203.636 103.196 205.208 101.624 205.208 99.6856V4.37625C205.208 2.43778 203.636 0.866333 201.698 0.866333H157.097Z" fill="#F6F6F6"/>
<path fill-rule="evenodd" clip-rule="evenodd" d="M36.6623 136.763C36.6623 136.763 40.4784 126.164 40.4784 125.001C40.4784 125.001 41.8838 124.196 42.6044 122.561C43.3251 120.925 43.3077 118.664 43.7667 117.905C44.2257 117.146 49.7996 101.167 49.7996 101.167L50.2295 81.6167C50.2295 81.6167 45.6113 80.8285 44.689 81.6167C43.7667 82.4048 44.0403 84.1309 42.6044 84.8842C41.1685 85.6375 38.0782 95.5994 38.0782 97.0199C38.0782 98.4404 38.2664 102.158 37.6552 103.334C37.0439 104.51 36.2898 107.99 36.2898 112.948C36.2898 112.948 35.8791 115.172 34.7731 116.538C33.6671 117.905 28.7861 131.254 28.7861 134.698C28.7861 134.698 27.0691 141.489 27.2407 143.054C27.3389 143.95 28.4248 144.364 28.7861 144.481C28.7861 144.481 29.2714 143.054 29.4861 142.403C29.4861 142.403 33.1133 143.267 34.7731 144.694C34.7731 144.694 36.0763 139.851 36.6623 137.391C36.7061 137.207 36.6623 136.763 36.6623 136.763Z" fill="#3A5971"/>
<path fill-rule="evenodd" clip-rule="evenodd" d="M57.2761 143.194C57.2761 143.194 52.1266 140.865 49.7886 141.207C49.7886 141.207 49.391 129.72 49.7886 128.454C50.1862 127.189 49.1418 126.368 49.5908 125.287C50.0398 124.206 50.0398 121.688 50.0398 120.349C50.0398 119.01 50.4423 114.806 50.8862 113.849C51.3301 112.891 50.4375 105.121 50.4375 104.16C50.4375 103.2 48.6297 97.0956 47.753 95.7073C46.8764 94.3191 46.3394 89.1565 47.753 85.7255C49.1667 82.2944 50.0398 81.5939 50.0398 81.5939C50.0398 81.5939 55.2536 82.8063 57.1507 83.1375C59.0477 83.4686 63.8001 85.4943 64.5534 87.8314C64.5534 87.8314 63.8876 90.5319 63.8876 90.9397C63.8876 91.3475 64.1546 97.3387 62.9075 103.718C61.6604 110.097 59.475 121.657 59.475 122.446C59.475 123.234 58.968 124.679 58.4684 125.287C57.9689 125.894 58.7034 127.506 58.9255 129.13C59.1477 130.755 57.3816 137.331 57.3816 138.682C57.3816 140.032 57.2761 143.194 57.2761 143.194Z" fill="#304D63"/>
<path fill-rule="evenodd" clip-rule="evenodd" d="M50.1943 88.7919C50.1943 88.7919 50.1943 96.8706 50.1943 97.3046C50.1943 97.7386 54.2978 99.2075 54.2978 99.2075L58.7162 98.9036L60.1067 90.8488C60.1067 90.8488 55.2783 89.9381 53.9592 89.365C52.6401 88.7919 50.1943 88.7919 50.1943 88.7919Z" fill="#254054"/>
<path fill-rule="evenodd" clip-rule="evenodd" d="M28.0631 137.69C27.4282 140.476 27.1541 142.264 27.2407 143.054C27.3389 143.95 28.4248 144.364 28.7861 144.481C28.7861 144.481 29.2714 143.054 29.4861 142.403C29.4861 142.403 33.1133 143.267 34.7731 144.694C34.7731 144.694 35.8875 140.473 36.1033 139.639C36.124 139.559 33.4725 138.204 31.4362 137.69C29.4517 137.189 28.1242 137.422 28.0631 137.69Z" fill="#9D9A91"/>
<path fill-rule="evenodd" clip-rule="evenodd" d="M35.3892 139.233C35.1127 140.501 34.2815 144.314 34.2815 144.314C34.4577 144.437 34.6215 144.564 34.7731 144.694C34.7731 144.694 35.3399 142.557 35.5646 141.702C35.7887 140.85 35.9727 140.149 36.118 139.587L35.3892 139.233Z" fill="#716F67"/>
<path fill-rule="evenodd" clip-rule="evenodd" d="M27.2406 143.054C27.3195 143.774 28.036 144.183 28.502 144.376C28.616 144.424 28.9321 144.519 29.0031 144.542C29.0031 144.542 34.7137 144.947 34.7753 144.69C34.8161 144.519 34.3099 144.193 33.5934 143.911C32.0228 143.292 29.4514 142.62 29.486 142.403C29.486 142.403 27.069 141.489 27.2406 143.054Z" fill="#504F4D"/>
<path fill-rule="evenodd" clip-rule="evenodd" d="M50.2295 81.6167C50.2295 81.6167 45.6113 80.8285 44.689 81.6167C43.9807 82.2219 43.9777 83.3804 43.3641 84.2266C43.3641 84.2266 45.4347 84.3179 46.4689 84.4726C47.6786 84.6535 50.0979 85.3028 50.0979 85.3028L50.2295 81.6167Z" fill="#304D63"/>
<path fill-rule="evenodd" clip-rule="evenodd" d="M48.1447 84.8037C48.9089 83.0644 50.0399 81.5939 50.0399 81.5939C50.0399 81.5939 55.0711 82.8306 57.3767 83.2011C59.6824 83.5716 63.8002 85.4943 64.5534 87.8314C64.5534 87.8314 64.1064 89.6918 63.9991 90.222C63.9991 90.222 59.5357 87.3985 57.7241 86.7794C55.9668 86.1789 54.0796 86.1468 51.0886 85.5406C50.1385 85.348 48.1447 84.8037 48.1447 84.8037Z" fill="#304D63"/>
<path fill-rule="evenodd" clip-rule="evenodd" d="M96.7302 46.5038C96.7302 46.5038 94.3551 45.9813 94.5986 44.6268C94.8421 43.2722 93.659 42.6544 93.0833 42.0552C92.5076 41.4559 90.0944 39.0155 90.4653 37.6924C90.8362 36.3694 89.8798 35.0928 90.9616 34.1846C92.0433 33.2765 89.821 31.609 91.3022 29.8921C92.7834 28.1751 94.2645 28.1594 94.8618 29.0258C95.4591 29.8921 96.078 31.1087 97.4225 31.3732C98.767 31.6377 98.5258 30.6945 100.016 30.4238C101.506 30.1532 103.978 31.0452 102.877 32.9566C101.776 34.868 100.757 33.8666 101.766 35.6746C102.775 37.4826 103.795 36.5831 104.292 38.1864C104.551 39.0227 105.285 39.509 105.471 40.1759C105.641 40.7873 105.299 41.5931 104.816 42.0552C103.807 43.0212 101.897 42.0179 101.396 42.8855C100.895 43.7532 100.936 44.2772 100.553 44.2772C100.169 44.2772 96.7302 46.5038 96.7302 46.5038Z" fill="white"/>
<path fill-rule="evenodd" clip-rule="evenodd" d="M96.6812 44.1073C96.6812 44.1073 95.4499 42.924 95.601 42.0904C95.752 41.2568 94.5651 40.8766 94.208 40.5078C93.8509 40.139 90.7705 36.4783 91.0005 35.6641C91.2306 34.8499 92.6739 36.223 93.3449 35.6641C94.0159 35.1052 91.2627 32.4509 92.1815 31.3942C93.1003 30.3376 94.2905 32.5028 94.661 33.036C95.0315 33.5691 93.6283 29.996 94.4623 30.1588C94.5878 30.1833 95.4685 30.5416 95.601 30.8389C95.9719 31.6715 96.0336 33.241 96.4154 33.5493C96.5378 33.6482 96.5372 32.4662 96.6163 32.2307C96.7308 31.8899 96.746 31.756 97.0539 31.6225C97.3618 31.489 97.6817 31.9201 97.7478 32.0872C98.165 33.1423 98.1015 35.7929 98.2613 35.6641C98.5543 35.4279 98.0996 33.036 98.8284 33.036C99.5017 33.036 100.461 33.8515 100.12 35.3507C99.7796 36.85 100.416 37.1236 100.823 38.2679C101.23 39.4121 100.865 39.8617 100.507 40.8799C100.148 41.898 101.353 43.2777 100.12 44.1073C99.3178 44.6474 96.6812 44.1073 96.6812 44.1073Z" fill="#E0E0E0"/>
<path fill-rule="evenodd" clip-rule="evenodd" d="M96.8324 44.573C96.8324 44.573 96.2784 42.5115 95.8984 41.8239C95.4372 40.9897 94.6278 40.5512 94.4406 40.2769C93.9285 39.5261 91.9991 36.7498 91.2151 35.9942C90.431 35.2386 91.6462 35.0939 92.2328 35.544C92.8193 35.9942 93.8568 36.3964 93.8568 36.3964C93.8568 36.3964 92.2328 32.1585 92.2328 31.4442C92.2328 30.73 92.9248 30.5968 93.4482 31.4442C93.9715 32.2917 94.9923 34.9521 94.9923 34.9521L94.4406 30.4251C94.4406 30.4251 94.3962 30.2002 94.5592 30.0232C94.7741 29.7899 95.2362 29.6485 95.5136 30.2994C95.7464 30.8458 95.865 31.7992 96.1099 33.0852C96.1729 33.416 96.5246 34.7542 96.5246 34.7542C96.5246 34.7542 96.5288 34.0268 96.5246 33.8769C96.4817 32.3411 96.642 31.6949 97.078 31.6949C97.4719 31.6949 97.6687 32.5375 97.9395 34.2178C98.0142 34.6814 98.2852 35.7981 98.2852 35.7981C98.2852 35.7981 98.3397 33.4306 98.841 33.4306C98.9793 33.4306 99.2577 33.5712 99.3787 33.8769C99.6961 34.6787 99.6961 36.225 99.5536 37.4074C99.3696 38.9337 100.411 44.573 100.411 44.573H96.8324Z" fill="#EDB79F"/>
<path opacity="0.5" fill-rule="evenodd" clip-rule="evenodd" d="M96.8324 44.573C96.8324 44.573 96.3144 42.5366 95.9655 41.9002C95.4149 40.8956 94.6496 40.5833 94.4406 40.2769C93.9284 39.5261 91.9991 36.7498 91.215 35.9942C90.4309 35.2386 93.0979 37.027 94.6667 39.862C94.906 40.2943 95.9334 40.8875 96.4258 41.7292C96.873 42.4937 97.4192 44.573 97.4192 44.573H96.8324Z" fill="#D5987C"/>
<path fill-rule="evenodd" clip-rule="evenodd" d="M51.5763 55.0399C51.5763 55.0399 53.1893 52.536 54.0962 51.9679C55.0031 51.3997 55.8928 51.2271 56.2747 51.2271C56.6566 51.2271 57.7498 49.9344 58.3748 49.9344C58.9997 49.9344 58.3748 51.2271 58.3748 51.2271C58.3748 51.2271 59.1383 50.5131 59.6636 50.5131C60.1888 50.5131 60.302 51.2271 60.302 51.2271L58.7766 53.4768L51.5763 55.0399Z" fill="#EDB79F"/>
<path fill-rule="evenodd" clip-rule="evenodd" d="M45.593 81.3416C45.593 81.3416 50.3226 76.3006 51.5063 75.1438C52.69 73.9869 54.2339 69.6567 54.69 68.4654C55.1462 67.2741 57.1294 62.8631 56.4741 61.9982C55.8189 61.1333 54.69 61.9982 54.69 61.9982C54.69 61.9982 54.2773 64.6739 53.2801 64.6739C52.283 64.6739 50.7388 65.5117 50.0547 66.1258C49.3706 66.7399 47.8416 66.1258 46.1946 66.1258C44.5476 66.1258 40.5764 66.9331 39.0119 64.6739C37.4475 62.4148 41.9649 59.1096 44.0797 59.1096C46.1946 59.1096 49.408 57.2662 50.0547 56.3391C50.7014 55.412 56.4555 51.2496 57.9549 51.2496C59.4542 51.2496 63.5488 51.5589 63.9407 52.2729C64.3326 52.9868 75.3342 54.966 75.3342 54.966C75.3342 54.966 76.1623 55.8204 76.7735 55.8204C77.3848 55.8204 78.7301 55.7356 78.7301 56.3391C78.7301 56.9426 80.244 57.3949 81.5151 57.3949C82.7862 57.3949 85.1407 57.9083 86.6737 57.9083C87.4963 57.9083 89.9597 57.8561 92.3248 57.3949C94.3673 56.9966 96.3156 56.2163 97.3203 55.8204C97.3203 55.8204 97.4734 47.584 96.6856 46.5011C95.8978 45.4182 96.4237 44.2303 97.3203 44.2303C98.2169 44.2303 101.266 44.0288 101.266 45.2649C101.266 46.5011 100.95 48.331 101.708 49.5518C102.466 50.7725 103.262 56.7069 103.262 57.9083C103.262 59.1096 95.2 63.262 91.1842 63.968C87.1684 64.6739 81.4074 64.5415 76.7735 72.2326C72.1396 79.9237 69.7957 82.6933 69.7957 84.0921C69.7957 85.4909 67.8413 86.0459 67.2198 87.7312C66.5982 89.4165 66.2418 91.3252 63.9407 90.9237L64.5862 87.7312C64.5862 87.7312 62.4349 84.35 58.6287 83.5339C54.8225 82.7177 54.1249 82.5251 52.1505 82.1211C46.7808 81.0225 45.593 81.3416 45.593 81.3416Z" fill="#4993F3"/>
<path fill-rule="evenodd" clip-rule="evenodd" d="M56.4741 61.9982C55.6518 61.0919 54.69 61.9982 54.69 61.9982C54.69 61.9982 54.2773 64.674 53.2801 64.674C52.2829 64.674 50.7388 65.5118 50.0547 66.1258C49.3706 66.7399 47.8416 66.1258 46.1946 66.1258C46.1946 66.1258 49.1538 64.6296 50.0547 63.968C51.3343 63.0282 52.8397 62.309 53.2801 61.9982C53.6054 61.7687 54.5457 61.0203 55.1048 61.0203C55.6638 61.0203 56.4741 61.9982 56.4741 61.9982Z" fill="#4181D5"/>
<path fill-rule="evenodd" clip-rule="evenodd" d="M45.593 81.3416C45.593 81.3416 46.1836 80.7125 46.4628 80.4155C46.4628 80.4155 49.9623 80.1593 52.9429 80.8338C55.1864 81.3416 58.148 81.6822 60.1955 82.511C64.5862 84.2882 66.7413 89.1971 66.406 89.7982C65.9486 90.618 65.2683 91.1554 63.9407 90.9237L64.5862 87.7312C64.5862 87.7312 63.5053 86.3299 62.8644 85.7761C61.6019 84.6852 60.1148 83.9609 58.6419 83.5129C57.2464 83.0885 56.2388 82.9938 55.3934 82.8297C54.221 82.602 53.361 82.374 52.2138 82.1393C46.8441 81.0407 45.593 81.3416 45.593 81.3416Z" fill="#EDB79F"/>
<path fill-rule="evenodd" clip-rule="evenodd" d="M66.406 89.7982C65.9487 90.618 65.1865 91.1933 63.8589 90.9617C63.8589 90.9617 64.2131 88.7771 64.4406 87.7249C64.5517 87.2109 64.8748 86.2629 64.8748 86.2629C64.8748 86.2629 65.5939 87.1139 65.8556 87.7249C66.2807 88.7173 66.551 89.5384 66.406 89.7982Z" fill="#2A538A"/>
<path fill-rule="evenodd" clip-rule="evenodd" d="M80.1457 49.267C80.1457 49.267 77.0009 55.4934 75.8252 55.1127C74.6495 54.7321 74.4001 54.431 74.4001 54.431L77.3425 49.267H80.1457Z" fill="#EDB79F"/>
<path fill-rule="evenodd" clip-rule="evenodd" d="M65.8674 56.4686C64.8154 56.4686 63.972 55.7737 64.7294 54.4221C65.4868 53.0706 65.5724 52.82 66.2575 51.4638C66.9425 50.1076 67.2609 49.2118 67.6313 48.1649C68.0018 47.1181 68.2195 46.2673 68.464 45.3343C68.7086 44.4014 69.3033 42.6715 70.4104 41.2599C71.5174 39.8484 72.2403 39.5698 73.3543 38.7001C74.4683 37.8303 76.9163 36.9015 78.9483 37.8008C80.9804 38.7001 83.6842 41.6989 82.7462 45.063C81.8081 48.427 80.9857 48.427 80.719 48.693C80.4523 48.9589 80.2059 49.272 78.9483 49.8934C78.9483 49.8934 77.513 50.8905 77.0229 52.0238C76.5327 53.1571 76.2911 54.808 74.786 54.808C73.281 54.808 73.4364 54.9293 71.7251 55.8561C70.0139 56.7829 69.8348 55.8561 68.7862 55.8561C67.7376 55.8561 66.9194 56.4686 65.8674 56.4686Z" fill="#4F3737"/>
<path fill-rule="evenodd" clip-rule="evenodd" d="M67.1182 49.5882C67.8181 47.8281 68.1311 46.574 68.3764 45.6376C68.6218 44.7011 68.8758 43.6432 69.9928 41.8245C71.1098 40.0057 72.2403 39.5698 73.3543 38.7001C74.4683 37.8303 76.9163 36.9015 78.9484 37.8008C79.9679 38.252 81.1653 39.2547 81.9825 40.5554C82.2062 40.9114 80.7484 38.7001 78.1313 38.7001C76.1428 38.7001 75.542 39.9555 74.5454 40.5554C73.5488 41.1552 72.7298 41.1165 71.4357 41.5682C69.8954 42.1058 70.3726 43.8002 69.3079 45.1981C68.7903 45.8776 68.6566 47.2443 68.1733 47.732C67.8479 48.0604 67.1182 49.5882 67.1182 49.5882Z" fill="#685353"/>
<path fill-rule="evenodd" clip-rule="evenodd" d="M57.9505 63.8662C58.1695 62.3681 59.9795 59.7666 61.5817 58.1699C62.8977 56.8585 63.4285 56.0484 63.9514 55.4287C65.0816 54.0895 65.4112 53.216 65.7014 52.5701C65.7014 52.5701 66.2901 52.7488 67.2127 52.7488C68.7862 52.7488 69.2807 50.6507 70.4992 49.8933C71.4228 49.3193 73.7688 50.4606 74.7861 49.8933C76.0087 49.2116 76.7936 47.5198 77.8284 46.7861C78.7038 46.1656 79.9126 47.1718 80.6242 46.7861C82.3224 45.8658 82.9147 44.1365 82.7462 45.0629C82.4328 46.7861 81.7154 47.8898 80.8771 48.631C80.0388 49.3722 80.1823 49.2743 78.9484 49.8933C78.9484 49.8933 77.4556 50.9365 77.0229 52.0238C76.5902 53.1111 76.2949 53.57 76.0541 55.7229C75.9982 56.2226 75.9323 57.6075 76.1503 59.1568C76.4702 61.4313 78.6112 63.3113 77.0229 67.3257C75.7166 70.6273 71.2038 71.1446 68.8604 71.413C63.3754 72.041 60.5388 70.214 59.2737 69.3563C58.0086 68.4986 57.5658 66.4969 57.9505 63.8662Z" fill="#3F2727"/>
<path fill-rule="evenodd" clip-rule="evenodd" d="M94.2171 109.233C92.2786 109.233 90.7072 110.804 90.7072 112.743V162.687C90.7072 164.625 92.2786 166.196 94.2171 166.196H136.931C138.87 166.196 140.441 164.625 140.441 162.687V112.743C140.441 110.804 138.87 109.233 136.931 109.233H94.2171Z" fill="#F6F6F6"/>
<path fill-rule="evenodd" clip-rule="evenodd" d="M10.1668 221.599C10.1668 221.599 9.38102 223.988 7.25502 223.192C5.12902 222.395 6.77544 219.77 6.77544 219.77L39.3861 144.563L40.9376 141.395H43.0787L44.1163 143.729L10.1668 221.599Z" fill="#C6C6C6"/>
<path fill-rule="evenodd" clip-rule="evenodd" d="M29.4806 142.4C29.4806 142.4 28.5903 146.604 27.2933 148.262C26.759 148.945 27.1816 149.68 27.7759 150.407C28.6243 151.444 30.0534 152.384 30.4369 152.827C31.089 153.579 31.3071 154.647 32.4708 155.2C33.6344 155.752 36.0416 155.38 36.0416 155.38C36.0416 155.38 37.4113 154.637 36.3819 153.446C35.3524 152.254 34.0068 149.852 34.0068 149.355C34.0068 149.17 33.5312 148.439 33.5312 147.356C33.5312 146.509 34.0068 144.087 34.0068 144.087C34.0068 144.087 33.1187 143.548 31.8448 143.091C30.5708 142.635 29.4806 142.4 29.4806 142.4Z" fill="#DFDEDE"/>
<path fill-rule="evenodd" clip-rule="evenodd" d="M29.4763 142.4C29.4763 142.4 29.357 142.973 29.3038 143.191C29.3038 143.191 30.0142 143.168 30.4426 143.371C30.8716 143.575 31.6354 144.426 32.3127 144.922C32.7829 145.267 33.7537 145.423 33.7537 145.423C33.8047 145.138 34.0067 144.087 34.0067 144.087C34.0067 144.087 33.1186 143.548 31.8447 143.091C30.5707 142.635 29.4763 142.4 29.4763 142.4Z" fill="#EDB79F"/>
<path fill-rule="evenodd" clip-rule="evenodd" d="M27.3122 149.702C27.9334 150.998 29.9676 152.285 30.4368 152.827C31.0889 153.579 31.1653 154.561 32.329 155.113C33.4927 155.666 35.5739 155.577 35.5739 155.577C35.1169 155.35 34.3012 155.159 33.9538 154.757C33.6073 154.356 32.928 153.598 32.2153 152.433C31.6278 151.473 31.0625 150.148 29.9628 149.702C27.9334 148.878 27.2188 149.507 27.3122 149.702Z" fill="#D5987C"/>
<path fill-rule="evenodd" clip-rule="evenodd" d="M26.7063 148.946L27.1299 147.965C27.1299 147.965 27.4098 147.548 27.4831 147.369C27.5564 147.191 28.4727 144.885 28.5924 144.357C28.7121 143.83 28.8563 144.229 29.2359 144.229C29.6155 144.229 29.7683 144.043 30.1722 144.357C30.4173 144.548 31.3746 145.95 32.8031 146.869C33.3647 147.231 33.6333 146.699 33.9833 146.699C34.8736 146.699 34.2438 150.007 34.9373 151.068C35.6308 152.128 37.8334 154.093 37.8334 154.804C37.8334 155.516 37.5148 156.098 37.2866 156.098C37.0584 156.098 34.6069 156.098 34.6069 156.098L26.7063 148.946Z" fill="#868686"/>
<path fill-rule="evenodd" clip-rule="evenodd" d="M26.7063 148.946L27.1254 147.954C27.1254 147.954 28.0059 147.795 28.5042 147.88C29.5975 148.067 30.1365 148.481 30.7176 149.064C31.2347 149.583 31.5842 150.295 31.7724 150.583C32.1627 151.18 33.4591 153.293 34.6069 154.499C35.4544 155.389 37.2866 156.098 37.2866 156.098C37.0584 156.098 34.6069 156.098 34.6069 156.098L26.7063 148.946Z" fill="#D9D9D9"/>
<path fill-rule="evenodd" clip-rule="evenodd" d="M26.8878 149.986C26.6121 149.503 26.6325 149.007 26.7864 148.751C27.0354 148.337 27.8353 148.255 28.6848 148.537C30.7471 149.22 31.4495 151.084 31.8897 151.887C32.3298 152.69 34.4665 155.212 35.2092 155.641C35.9519 156.069 36.3272 156.107 36.3272 156.107H32.0947C32.0947 156.107 31.1359 154.863 30.5705 153.6C30.3236 153.049 29.0369 152.261 28.1101 151.432C27.6218 150.996 27.1634 150.469 26.8878 149.986Z" fill="#9DA0A3"/>
<path fill-rule="evenodd" clip-rule="evenodd" d="M10.1668 221.599C10.1668 221.599 9.38102 223.988 7.25502 223.192C5.12902 222.395 6.77544 219.77 6.77544 219.77L10.1668 221.599Z" fill="#2F2F2F"/>
<path fill-rule="evenodd" clip-rule="evenodd" d="M78.5418 223.851C78.5418 223.851 79.2437 226.267 81.3962 225.545C83.5487 224.823 81.9949 222.142 81.9949 222.142L50.3232 141.267L47.6796 141.267L47.3306 144.844L78.5418 223.851Z" fill="#C6C6C6"/>
<path fill-rule="evenodd" clip-rule="evenodd" d="M50.5671 147.888C50.5671 147.888 50.1963 152.117 50.0022 153.264C49.7153 154.96 49.0474 155.511 49.8966 156.035C50.4204 156.357 59.4816 156.322 59.4816 156.322C59.4816 156.322 60.2913 156.521 60.2913 155.527C60.2913 154.532 55.8355 153.3 55.3372 152.756C54.839 152.212 54.8012 149.478 54.8012 149.478L54.7151 147.556L50.667 146.408L50.5671 147.888Z" fill="#DFDEDE"/>
<path fill-rule="evenodd" clip-rule="evenodd" d="M50.5671 147.888C50.5671 147.888 51.0328 148.866 52.1615 149.09C53.2901 149.314 54.8064 149.661 54.8064 149.661L54.7382 147.513L50.6671 146.408L50.5671 147.888Z" fill="#EDB79F"/>
<path fill-rule="evenodd" clip-rule="evenodd" d="M49.8763 150.4C49.8763 150.4 49.6053 151.467 49.4634 152.103C49.1296 153.601 48.9193 154.662 48.9521 155.103C48.9867 155.57 49.4775 156.238 49.7663 156.238C50.6738 156.238 60.467 156.375 60.467 156.375C60.467 156.375 61.1829 155.288 60.467 154.59C59.7511 153.892 55.8835 152.594 55.8835 152.103C55.8835 151.612 55.9556 150.934 55.3984 150.934C54.8412 150.934 54.9328 151.84 54.0664 151.84C53.2 151.84 52.9274 151.255 51.7449 150.59C51.4675 150.434 50.8437 150.172 50.2445 150.182C50.0732 150.185 49.8763 150.4 49.8763 150.4Z" fill="#868686"/>
<path fill-rule="evenodd" clip-rule="evenodd" d="M49.0331 155.428C49.1913 155.829 49.5405 156.238 49.7663 156.238C50.6738 156.238 60.4669 156.375 60.4669 156.375C60.4669 156.375 60.6862 156.001 60.7456 155.827L49.0331 155.428Z" fill="#D9D9D9"/>
<path fill-rule="evenodd" clip-rule="evenodd" d="M49.629 141.136L49.0819 147.083L56.3743 149.353C56.7101 146.547 57.0739 144.51 57.3399 143.199C57.3399 143.199 54.2291 141.378 51.1154 140.921C50.0627 140.767 49.629 141.136 49.629 141.136Z" fill="#9D9A91"/>
<path fill-rule="evenodd" clip-rule="evenodd" d="M56.3745 149.352C56.7102 146.546 57.1153 144.498 57.3439 143.199C57.3439 143.199 56.6842 142.827 56.4061 142.682C56.4061 142.682 55.8939 146.987 55.6378 149.139L56.3745 149.352Z" fill="#716F67"/>
<path fill-rule="evenodd" clip-rule="evenodd" d="M78.5403 223.851C78.5403 223.851 79.2422 226.266 81.3947 225.544C83.5472 224.822 81.9934 222.141 81.9934 222.141L78.5403 223.851Z" fill="#2F2F2F"/>
<path fill-rule="evenodd" clip-rule="evenodd" d="M157.537 109.184C155.599 109.184 154.027 110.756 154.027 112.694V163.044C154.027 164.982 155.599 166.554 157.537 166.554H202.914C204.852 166.554 206.424 164.982 206.424 163.044V112.694C206.424 110.756 204.852 109.184 202.914 109.184H157.537Z" fill="#F2F0F0"/>
<path fill-rule="evenodd" clip-rule="evenodd" d="M5.26501 209.182C5.26501 208.872 5.50618 208.616 5.81519 208.598L11.6383 208.25L13.9461 208.25C14.646 208.25 14.7552 209.257 14.0716 209.407L12.3468 209.786C12.3056 209.795 12.2636 209.799 12.2214 209.799H5.85C5.52692 209.799 5.26501 209.537 5.26501 209.214V209.182Z" fill="#DCDCDC"/>
<rect x="5.26501" y="208.63" width="7.01983" height="1.1688" rx="0.584399" fill="#2C2A2B"/>
<path fill-rule="evenodd" clip-rule="evenodd" d="M12.8698 192.234C12.8698 191.924 13.1109 191.668 13.4199 191.65L19.243 191.303L21.5508 191.303C22.2508 191.303 22.36 192.309 21.6763 192.459L19.9516 192.838C19.9104 192.847 19.8683 192.852 19.8261 192.852H13.4547C13.1317 192.852 12.8698 192.59 12.8698 192.267V192.234Z" fill="#DCDCDC"/>
<rect x="12.8698" y="191.683" width="7.01983" height="1.1688" rx="0.584399" fill="#2C2A2B"/>
<path fill-rule="evenodd" clip-rule="evenodd" d="M19.8896 175.286C19.8896 174.977 20.1308 174.721 20.4398 174.702L26.2629 174.355L28.5707 174.355C29.2707 174.355 29.3799 175.362 28.6962 175.512L26.9715 175.89C26.9303 175.9 26.8882 175.904 26.846 175.904H20.4746C20.1516 175.904 19.8896 175.642 19.8896 175.319V175.286Z" fill="#DCDCDC"/>
<rect x="19.8896" y="174.735" width="7.01983" height="1.1688" rx="0.584399" fill="#2C2A2B"/>
<path fill-rule="evenodd" clip-rule="evenodd" d="M27.4481 156.98C27.4481 156.671 27.6893 156.415 27.9983 156.396L33.8214 156.049L36.1292 156.049C36.8291 156.049 36.9383 157.055 36.2547 157.205L34.53 157.584C34.4887 157.593 34.4467 157.598 34.4045 157.598H28.0331C27.71 157.598 27.4481 157.336 27.4481 157.013V156.98Z" fill="#EAE7E7"/>
<path fill-rule="evenodd" clip-rule="evenodd" d="M27.4481 157.013C27.4481 156.691 27.7098 156.429 28.0325 156.429H33.8836C34.2063 156.429 34.468 156.691 34.468 157.013C34.468 157.336 34.2063 157.598 33.8836 157.598H28.0325C27.7098 157.598 27.4481 157.336 27.4481 157.013Z" fill="#2C2A2B"/>
<path fill-rule="evenodd" clip-rule="evenodd" d="M47.9596 157.262C47.9596 156.952 48.2008 156.696 48.5098 156.678L54.3329 156.33H56.6407C57.3406 156.33 57.4498 157.337 56.7662 157.487L55.0414 157.866C55.0002 157.875 54.9581 157.879 54.9159 157.879H48.5446C48.2215 157.879 47.9596 157.617 47.9596 157.294V157.262Z" fill="#EAE7E7"/>
<path fill-rule="evenodd" clip-rule="evenodd" d="M47.9596 157.295C47.9596 156.972 48.2212 156.71 48.544 156.71H54.395C54.7178 156.71 54.9794 156.972 54.9794 157.295C54.9794 157.618 54.7178 157.879 54.395 157.879H48.544C48.2212 157.879 47.9596 157.618 47.9596 157.295Z" fill="#2C2A2B"/>
<path fill-rule="evenodd" clip-rule="evenodd" d="M53.8188 175.871C53.8188 175.561 54.06 175.305 54.369 175.287L60.1921 174.94L62.4999 174.94C63.1999 174.94 63.3091 175.946 62.6254 176.096L60.9007 176.475C60.8595 176.484 60.8174 176.489 60.7752 176.489H54.4038C54.0808 176.489 53.8188 176.227 53.8188 175.904V175.871Z" fill="#EAE7E7"/>
<rect x="53.8188" y="175.32" width="7.01983" height="1.1688" rx="0.584399" fill="#2C2A2B"/>
<path fill-rule="evenodd" clip-rule="evenodd" d="M60.8386 193.403C60.8386 193.093 61.0798 192.837 61.3888 192.819L67.2119 192.472L69.5197 192.472C70.2196 192.472 70.3288 193.478 69.6452 193.628L67.9205 194.007C67.8792 194.016 67.8372 194.02 67.795 194.02H61.4236C61.1005 194.02 60.8386 193.759 60.8386 193.435V193.403Z" fill="#DCDCDC"/>
<rect x="60.8386" y="192.852" width="7.01983" height="1.1688" rx="0.584399" fill="#2C2A2B"/>
<path fill-rule="evenodd" clip-rule="evenodd" d="M67.2734 210.35C67.2734 210.041 67.5146 209.785 67.8236 209.766L73.6467 209.419L75.9545 209.419C76.6545 209.419 76.7636 210.426 76.08 210.576L74.3553 210.954C74.3141 210.963 74.272 210.968 74.2298 210.968H67.8584C67.5353 210.968 67.2734 210.706 67.2734 210.383V210.35Z" fill="#DCDCDC"/>
<rect x="67.2734" y="209.799" width="7.01983" height="1.1688" rx="0.584399" fill="#2C2A2B"/>
<path fill-rule="evenodd" clip-rule="evenodd" d="M75.4272 226.495C75.4272 226.495 76.0868 228.922 78.2516 228.238C80.4164 227.554 78.9096 224.846 78.9096 224.846L48.3949 142.978L47.606 141.79L43.0803 141.553L44.7099 144.765L75.4272 226.495Z" fill="#D2D1D6"/>
<path fill-rule="evenodd" clip-rule="evenodd" d="M48.3971 142.979L47.6676 141.42L43.0703 141.42L44.7121 144.766L48.3971 142.979Z" fill="#2C2A2B"/>
<path fill-rule="evenodd" clip-rule="evenodd" d="M75.4251 226.494C75.4251 226.494 76.0848 228.921 78.2495 228.237C80.4143 227.553 78.9076 224.845 78.9076 224.845L75.4251 226.494Z" fill="#2F2F2F"/>
<path fill-rule="evenodd" clip-rule="evenodd" d="M4.31696 224.521C4.31696 224.521 3.53117 226.91 1.40517 226.114C-0.72083 225.317 0.925585 222.692 0.925585 222.692L35.6831 142.533L36.5332 141.388H41.0651L39.2696 144.511L4.31696 224.521Z" fill="#D2D1D6"/>
<path fill-rule="evenodd" clip-rule="evenodd" d="M35.6831 142.533L36.5332 141.388H41.0651L39.2696 144.511L35.6831 142.533Z" fill="#2C2A2B"/>
<path fill-rule="evenodd" clip-rule="evenodd" d="M4.31696 224.521C4.31696 224.521 3.53117 226.91 1.40517 226.114C-0.72083 225.317 0.925585 222.692 0.925585 222.692L4.31696 224.521Z" fill="#2F2F2F"/>
<rect x="35.6842" y="139.671" width="14.6246" height="1.7532" fill="#D8D8D8"/>
<path fill-rule="evenodd" clip-rule="evenodd" d="M88.236 209.639C88.236 209.639 87.3282 209.49 87.0995 209.259C86.8709 209.028 86.8723 208.259 86.8723 208.259H106.088C106.088 208.259 106.082 208.955 105.851 209.259C105.62 209.562 104.988 209.962 104.988 209.962L103.01 228.087C103.01 228.087 98.6915 228.434 96.4803 228.434C94.2691 228.434 90.4959 228.087 90.4959 228.087L88.236 209.639Z" fill="#D5E6FD"/>
<path fill-rule="evenodd" clip-rule="evenodd" d="M103.671 208.259H106.088C106.088 208.259 106.082 208.955 105.851 209.259C105.62 209.562 104.988 209.962 104.988 209.962L103.01 228.087C103.01 228.087 100.378 228.284 99.3104 228.342L103.671 208.259Z" fill="#C0D5F2"/>
<path fill-rule="evenodd" clip-rule="evenodd" d="M88.2359 209.639C88.2359 209.639 87.3282 209.49 87.0995 209.259C86.8709 209.028 86.8723 208.259 86.8723 208.259H106.088C106.088 208.259 106.082 208.955 105.851 209.259C105.62 209.562 104.988 209.962 104.988 209.962L88.2359 209.639Z" fill="#A4BCDC"/>
<path d="M96.6693 209.795C96.6693 209.795 96.9896 218.23 103.535 220.211" stroke="white" stroke-width="1.16997" stroke-linecap="round"/>
<defs>
<linearGradient id="paint0_linear_175_7666" x1="115.247" y1="1.06836" x2="115.247" y2="103.02" gradientUnits="userSpaceOnUse">
<stop stop-color="#FAF9F9"/>
<stop offset="1" stop-color="#F2F0F0" stop-opacity="0.01"/>
</linearGradient>
</defs>
</svg>
