<svg width="21" height="22" viewBox="0 0 21 22" fill="none" xmlns="http://www.w3.org/2000/svg">
<path fill-rule="evenodd" clip-rule="evenodd" d="M18.1418 15.4773C18.1418 17.6969 16.4956 19.502 14.4715 19.502H6.27537C4.25243 19.502 2.60625 17.6969 2.60625 15.4773V6.48984C2.60625 4.27157 4.25243 2.46644 6.27537 2.46644H14.4715C16.4956 2.46644 18.1418 4.27157 18.1418 6.48984V15.4773ZM14.4715 0.0422363H6.27537C3.03403 0.0422363 0.395508 2.93552 0.395508 6.48983V15.4773C0.395508 19.0329 3.03403 21.9249 6.27537 21.9249H14.4715C17.714 21.9249 20.3525 19.0329 20.3525 15.4773V6.48983C20.3525 2.93552 17.714 0.0422363 14.4715 0.0422363Z" fill="#12153A"/>
<path fill-rule="evenodd" clip-rule="evenodd" d="M10.3586 14.0476C8.79587 14.0451 7.5311 12.6531 7.53342 10.9395C7.53574 9.22844 8.80167 7.84154 10.3632 7.84154C11.9259 7.84663 13.1907 9.23606 13.1919 10.9497C13.1895 12.6633 11.9213 14.0502 10.3586 14.0476ZM10.3632 5.15674C7.44531 5.15674 5.07922 7.75002 5.07922 10.9497C5.07922 14.1493 7.44531 16.7426 10.3632 16.7426C13.2811 16.7426 15.6461 14.1493 15.6461 10.9497C15.6437 7.75129 13.28 5.15801 10.3632 5.15674Z" fill="#12153A"/>
<path fill-rule="evenodd" clip-rule="evenodd" d="M15.4837 3.67773H15.4802C14.6455 3.67901 13.9697 4.42267 13.9708 5.33794C13.972 6.25449 14.6502 6.9956 15.4848 6.99433C16.3195 6.99306 16.9954 6.2494 16.9942 5.33413C16.9942 4.42012 16.3184 3.67773 15.4837 3.67773Z" fill="#12153A"/>
</svg>
