<svg width="23" height="23" viewBox="0 0 23 23" fill="none" xmlns="http://www.w3.org/2000/svg">
<path fill-rule="evenodd" clip-rule="evenodd" d="M5.84145 7.29907H1.21985V22.2892H5.84145V7.29907Z" fill="#12153A"/>
<path fill-rule="evenodd" clip-rule="evenodd" d="M6.13644 2.63806C6.13644 1.89652 5.89101 1.2609 5.44811 0.783775C4.95647 0.307499 4.36647 0.0422363 3.57982 0.0422363C2.79317 0.0422363 2.15362 0.306647 1.66196 0.783775C1.17029 1.2609 0.973633 1.89652 0.973633 2.63806C0.973633 3.3796 1.17029 4.01521 1.66196 4.49234C2.10406 4.96862 2.74361 5.23388 3.53026 5.23388C4.31692 5.23388 4.95647 4.96947 5.44811 4.49234C5.93978 4.01521 6.13644 3.3796 6.13644 2.63806Z" fill="#12153A"/>
<path fill-rule="evenodd" clip-rule="evenodd" d="M22.5091 13.6554L22.5099 13.6545C22.5099 11.4824 22.067 9.78748 21.0837 8.62219C20.1004 7.5103 18.8221 6.92725 17.1992 6.92725C16.6092 6.92725 16.068 6.97979 15.5763 7.13911C15.1342 7.29843 14.6914 7.56284 14.3964 7.8281C14.0518 8.09337 13.7568 8.35778 13.5601 8.62304C13.3635 8.83491 13.2156 9.15271 13.0189 9.47052V7.29843H8.39734L8.4469 7.98742V12.4901C8.4469 14.98 8.4469 18.2639 8.39734 22.2894H13.0189V13.9206C13.0189 13.3909 13.0685 12.9672 13.1668 12.7019C13.3635 12.1723 13.6585 11.7485 14.1014 11.3773C14.4947 11.0595 14.9863 10.8477 15.5763 10.8477C16.363 10.8477 16.953 11.1655 17.3463 11.7485C17.7396 12.3841 17.8875 13.1791 17.8875 14.2384V22.2894H22.5091V13.6554Z" fill="#12153A"/>
</svg>
