<svg width="96" height="38" viewBox="0 0 96 38" fill="none" xmlns="http://www.w3.org/2000/svg">
<path d="M82.6395 26.4284L80.7714 37.6367H73.6106L76.9316 17.7109H83.7292L83.1065 21.4989H83.3141C83.9454 20.2275 84.8665 19.2373 86.0772 18.5281C87.2967 17.8103 88.6415 17.4514 90.1117 17.4514C91.5214 17.4514 92.6932 17.7714 93.6273 18.4114C94.5613 19.0514 95.2229 19.9335 95.6121 21.0578C96.0012 22.1821 96.0704 23.4707 95.8196 24.9236L93.6921 37.6367H86.5313L88.3993 26.4284C88.5636 25.4425 88.4426 24.6685 88.0361 24.1063C87.6383 23.5442 86.981 23.2631 86.0643 23.2631C85.4848 23.2631 84.9529 23.3929 84.4686 23.6523C83.993 23.9031 83.5951 24.2663 83.2752 24.742C82.9638 25.209 82.7519 25.7712 82.6395 26.4284Z" fill="#12153A"/>
<path d="M59.3026 37.9481C58.04 37.9481 56.9546 37.7405 56.0465 37.3254C55.1471 36.9016 54.4898 36.2616 54.0747 35.4054C53.6682 34.5406 53.5774 33.4509 53.8023 32.1364C53.9839 31.0467 54.3255 30.117 54.8271 29.3473C55.3287 28.5776 55.9514 27.9462 56.6951 27.4533C57.4389 26.9603 58.2735 26.5841 59.1988 26.3246C60.1329 26.0566 61.1188 25.8836 62.1566 25.8057C63.2809 25.7193 64.1933 25.6112 64.8938 25.4814C65.5943 25.3517 66.1175 25.1744 66.4635 24.9496C66.8094 24.7247 67.017 24.422 67.0862 24.0415V23.9896C67.164 23.4707 67.0256 23.0729 66.671 22.7961C66.3251 22.5194 65.8408 22.381 65.2181 22.381C64.5435 22.381 63.9598 22.528 63.4668 22.8221C62.9825 23.1161 62.6496 23.5745 62.4679 24.1971H55.8779C56.1546 22.9864 56.7211 21.8707 57.5773 20.8502C58.4421 19.8211 59.588 18.9995 61.015 18.3854C62.4506 17.7628 64.163 17.4514 66.1521 17.4514C67.5705 17.4514 68.8158 17.6201 69.8882 17.9573C70.9606 18.286 71.8471 18.7487 72.5476 19.3454C73.2568 19.9335 73.7541 20.6254 74.0395 21.421C74.3335 22.208 74.4027 23.0642 74.247 23.9896L71.9639 37.6367H65.27L65.737 34.8347H65.5813C65.0624 35.5784 64.4787 36.1795 63.8301 36.6378C63.1901 37.0962 62.4896 37.4292 61.7285 37.6367C60.9761 37.8443 60.1675 37.9481 59.3026 37.9481ZM62.416 33.4336C62.9522 33.4336 63.4798 33.3212 63.9987 33.0963C64.5176 32.8715 64.963 32.5472 65.3349 32.1234C65.7068 31.6996 65.9446 31.185 66.0484 30.5796L66.3078 28.9192C66.1175 28.997 65.9057 29.0705 65.6722 29.1397C65.4473 29.2002 65.2095 29.2608 64.9587 29.3213C64.7165 29.3819 64.4571 29.4381 64.1803 29.49C63.9122 29.5418 63.6355 29.5937 63.3501 29.6456C62.7793 29.7321 62.2993 29.8748 61.9101 30.0737C61.5209 30.264 61.2182 30.5018 61.002 30.7872C60.7858 31.064 60.6518 31.3753 60.5999 31.7212C60.5221 32.2661 60.6475 32.6899 60.9761 32.9925C61.3134 33.2866 61.7934 33.4336 62.416 33.4336Z" fill="#12153A"/>
<path d="M25.5955 21.0317H18.3827C18.4346 20.4177 18.4 19.8642 18.279 19.3712C18.1579 18.8783 17.9503 18.4545 17.6563 18.0999C17.3622 17.7367 16.9774 17.4599 16.5017 17.2697C16.0261 17.0794 15.4596 16.9843 14.8023 16.9843C13.5396 16.9843 12.411 17.3 11.4165 17.9313C10.4219 18.554 9.59598 19.4491 8.93871 20.6166C8.28143 21.7755 7.81442 23.1592 7.53767 24.7678C7.29552 26.3245 7.28687 27.6175 7.51172 28.6466C7.74523 29.6758 8.19927 30.4455 8.87384 30.9557C9.55707 31.466 10.4435 31.7211 11.5332 31.7211C12.2597 31.7211 12.9256 31.6346 13.531 31.4617C14.145 31.2887 14.6899 31.0422 15.1655 30.7222C15.6498 30.3936 16.0606 30.0044 16.3979 29.5547C16.7439 29.0963 17.0076 28.5904 17.1893 28.0369H24.4539C24.1771 29.1612 23.6842 30.3114 22.975 31.4876C22.2659 32.6551 21.3491 33.7319 20.2248 34.7178C19.1005 35.6951 17.7773 36.4864 16.2552 37.0918C14.7331 37.6972 13.0207 37.9998 11.1181 37.9998C8.62737 37.9998 6.47824 37.455 4.67073 36.3653C2.87187 35.2756 1.56597 33.6843 0.753018 31.5914C-0.0512807 29.4985 -0.211276 26.9472 0.273033 23.9376C0.757342 21.0317 1.71299 18.5972 3.13997 16.634C4.56695 14.6708 6.30095 13.192 8.34197 12.1974C10.383 11.2028 12.5537 10.7056 14.8542 10.7056C16.5925 10.7056 18.1492 10.9347 19.5243 11.3931C20.9081 11.8515 22.0713 12.5217 23.0139 13.4039C23.9653 14.2773 24.6658 15.3541 25.1155 16.634C25.5652 17.914 25.7252 19.3799 25.5955 21.0317Z" fill="#12153A"/>
<path fill-rule="evenodd" clip-rule="evenodd" d="M33.8013 24.266L35.9922 11.0688H28.8313L24.4207 37.6367H31.5815L33.429 26.5083L31.9533 25.5245C31.8255 25.4393 31.8375 25.2479 31.9748 25.1792L33.8013 24.266Z" fill="#12153A"/>
<path fill-rule="evenodd" clip-rule="evenodd" d="M37.6065 36.7805C39.0075 37.5935 40.7718 38 42.8993 38C44.75 38 46.4062 37.7232 47.8678 37.1697C49.338 36.6076 50.5747 35.8206 51.5779 34.8087C52.5898 33.7882 53.3292 32.5861 53.7962 31.2023H47.258C47.0505 31.5829 46.7737 31.9072 46.4278 32.1753C46.0905 32.4347 45.7013 32.6336 45.2603 32.772C44.8279 32.9017 44.3695 32.9666 43.8852 32.9666C43.176 32.9666 42.5966 32.8239 42.1469 32.5385C41.6971 32.2531 41.3815 31.8596 41.1999 31.358C41.0182 30.8564 40.9793 30.2856 41.0831 29.6456L41.1415 29.3343H54.1076L54.367 27.6738C54.6265 26.0911 54.6265 24.6728 54.367 23.4188C54.1162 22.1561 53.6319 21.0794 52.9141 20.1886C52.1963 19.2978 51.2666 18.6189 50.125 18.1519C48.992 17.6849 47.6732 17.4514 46.1684 17.4514C44.11 17.4514 42.2506 17.8795 40.5901 18.7357C38.9383 19.5919 37.5675 20.7897 36.4778 22.3291C36.0942 22.8754 35.7568 23.4544 35.4658 24.0661L37.6017 25.1341C37.7038 25.1851 37.7343 25.3001 37.6968 25.3906C37.6777 25.437 37.6408 25.4769 37.5865 25.4986L36.8695 25.7854L34.5413 26.7167C34.4631 27.0458 34.3951 27.3821 34.3374 27.7257C33.9741 29.8705 34.0779 31.7126 34.6487 33.252C35.2195 34.7828 36.2054 35.9589 37.6065 36.7805ZM41.8835 25.3906H48.1402C48.2267 24.8198 48.1705 24.3182 47.9715 23.8858C47.7813 23.4447 47.4743 23.1031 47.0505 22.861C46.6354 22.6102 46.1338 22.4848 45.5457 22.4848C44.9576 22.4848 44.4041 22.6102 43.8852 22.861C43.3749 23.1118 42.9382 23.462 42.575 23.9118C42.2408 24.3356 42.0103 24.8285 41.8835 25.3906Z" fill="#12153A"/>
<path d="M41.2539 10.3486C41.2955 10.1772 41.5224 10.1396 41.617 10.2885L42.5332 11.7298C42.561 11.7735 42.6046 11.8047 42.6549 11.8169L44.3146 12.2196C44.486 12.2612 44.5236 12.4881 44.3748 12.5828L42.9334 13.499C42.8897 13.5267 42.8585 13.5703 42.8463 13.6206L42.4436 15.2804C42.402 15.4517 42.1751 15.4893 42.0805 15.3405L41.1643 13.8991C41.1365 13.8555 41.0929 13.8243 41.0426 13.8121L39.3829 13.4094C39.2115 13.3678 39.1739 13.1408 39.3227 13.0462L40.7641 12.13C40.8078 12.1022 40.839 12.0586 40.8512 12.0084L41.2539 10.3486Z" fill="#12153A"/>
<path d="M46.7832 1.42503C46.8248 1.25364 47.0517 1.21606 47.1463 1.3649L49.2743 4.71251C49.3021 4.75617 49.3456 4.78738 49.3959 4.79958L53.2508 5.7349C53.4222 5.77649 53.4598 6.00344 53.3109 6.09805L49.9633 8.22602C49.9196 8.25378 49.8884 8.29737 49.8762 8.34765L48.9409 12.2025C48.8993 12.3739 48.6724 12.4115 48.5778 12.2626L46.4498 8.91503C46.422 8.87137 46.3784 8.84016 46.3282 8.82796L42.4733 7.89264C42.3019 7.85105 42.2643 7.6241 42.4132 7.52949L45.7608 5.40152C45.8045 5.37376 45.8357 5.33017 45.8479 5.27989L46.7832 1.42503Z" fill="#12153A"/>
</svg>
