<svg width="66" height="26" viewBox="0 0 66 26" fill="none" xmlns="http://www.w3.org/2000/svg">
<g opacity="0.4">
<path d="M56.4147 18.0401L55.1394 25.6916H50.251L52.5181 12.089H57.1586L56.7335 14.6749H56.8752C57.3061 13.807 57.9349 13.131 58.7615 12.6469C59.5939 12.1569 60.512 11.9119 61.5156 11.9119C62.478 11.9119 63.278 12.1303 63.9156 12.5672C64.5532 13.0041 65.0048 13.6063 65.2705 14.3738C65.5362 15.1413 65.5834 16.021 65.4122 17.0128L63.9599 25.6916H59.0714L60.3467 18.0401C60.4588 17.3671 60.3762 16.8387 60.0987 16.4549C59.8271 16.0712 59.3784 15.8793 58.7526 15.8793C58.357 15.8793 57.994 15.9679 57.6633 16.145C57.3386 16.3162 57.067 16.5641 56.8486 16.8889C56.6361 17.2077 56.4914 17.5914 56.4147 18.0401Z" fill="#12153A"/>
<path d="M40.485 25.9041C39.623 25.9041 38.8821 25.7624 38.2621 25.479C37.6481 25.1898 37.1994 24.7529 36.9161 24.1684C36.6386 23.578 36.5766 22.8341 36.7301 21.9367C36.8541 21.1928 37.0873 20.5581 37.4297 20.0327C37.7721 19.5072 38.1972 19.0763 38.7049 18.7397C39.2127 18.4032 39.7824 18.1464 40.4141 17.9693C41.0517 17.7863 41.7248 17.6682 42.4333 17.615C43.2008 17.556 43.8236 17.4822 44.3018 17.3936C44.7801 17.3051 45.1372 17.1841 45.3734 17.0306C45.6096 16.8771 45.7513 16.6704 45.7985 16.4106V16.3752C45.8516 16.021 45.7572 15.7494 45.5151 15.5605C45.2789 15.3716 44.9483 15.2771 44.5232 15.2771C44.0627 15.2771 43.6642 15.3775 43.3277 15.5782C42.9971 15.7789 42.7698 16.0918 42.6458 16.5169H38.147C38.3359 15.6904 38.7226 14.9288 39.3071 14.2321C39.8975 13.5295 40.6798 12.9687 41.6539 12.5495C42.634 12.1244 43.803 11.9119 45.1609 11.9119C46.1291 11.9119 46.9793 12.027 47.7114 12.2572C48.4434 12.4816 49.0486 12.7975 49.5268 13.2048C50.0109 13.6063 50.3504 14.0786 50.5452 14.6218C50.746 15.159 50.7932 15.7435 50.6869 16.3752L49.1283 25.6916H44.5587L44.8775 23.7787H44.7712C44.417 24.2865 44.0185 24.6968 43.5757 25.0097C43.1388 25.3226 42.6606 25.5499 42.141 25.6916C41.6274 25.8333 41.0754 25.9041 40.485 25.9041ZM42.6104 22.8223C42.9764 22.8223 43.3366 22.7455 43.6908 22.592C44.045 22.4385 44.3491 22.2171 44.6029 21.9278C44.8568 21.6386 45.0192 21.2873 45.09 20.874L45.2671 19.7405C45.1372 19.7936 44.9926 19.8438 44.8332 19.891C44.6797 19.9323 44.5173 19.9737 44.3461 20.015C44.1808 20.0563 44.0037 20.0947 43.8148 20.1301C43.6318 20.1655 43.4428 20.201 43.248 20.2364C42.8583 20.2954 42.5307 20.3928 42.265 20.5286C41.9993 20.6585 41.7927 20.8209 41.6451 21.0157C41.4975 21.2046 41.406 21.4172 41.3706 21.6533C41.3174 22.0253 41.403 22.3146 41.6274 22.5212C41.8576 22.7219 42.1853 22.8223 42.6104 22.8223Z" fill="#12153A"/>
<path d="M17.473 14.3537H12.5492C12.5846 13.9345 12.561 13.5567 12.4783 13.2202C12.3957 12.8836 12.254 12.5943 12.0532 12.3523C11.8525 12.1043 11.5898 11.9154 11.2651 11.7855C10.9404 11.6556 10.5537 11.5907 10.105 11.5907C9.24299 11.5907 8.47253 11.8062 7.79358 12.2372C7.11463 12.6622 6.5508 13.2733 6.10211 14.0703C5.65341 14.8614 5.3346 15.8061 5.14567 16.9042C4.98036 17.9669 4.97446 18.8495 5.12796 19.5521C5.28737 20.2547 5.59732 20.7801 6.05783 21.1284C6.52424 21.4768 7.12939 21.6509 7.87328 21.6509C8.36921 21.6509 8.82381 21.5919 9.23708 21.4738C9.65626 21.3557 10.0282 21.1875 10.3529 20.969C10.6835 20.7447 10.964 20.479 11.1942 20.172C11.4304 19.8591 11.6105 19.5137 11.7344 19.1359H16.6937C16.5048 19.9034 16.1683 20.6886 15.6842 21.4915C15.2 22.2886 14.5742 23.0236 13.8067 23.6966C13.0392 24.3638 12.1359 24.904 11.0968 25.3173C10.0577 25.7305 8.88875 25.9372 7.58989 25.9372C5.88957 25.9372 4.42244 25.5652 3.18853 24.8213C1.96051 24.0774 1.06902 22.9911 0.514056 21.5624C-0.0350073 20.1336 -0.14423 18.392 0.186389 16.3374C0.517008 14.3537 1.16939 12.6918 2.14354 11.3516C3.11768 10.0114 4.30141 9.00182 5.69474 8.32287C7.08806 7.64392 8.56994 7.30444 10.1404 7.30444C11.3271 7.30444 12.3898 7.4609 13.3285 7.7738C14.2731 8.08671 15.0672 8.54426 15.7107 9.14646C16.3602 9.74276 16.8384 10.4778 17.1454 11.3516C17.4524 12.2254 17.5616 13.2261 17.473 14.3537Z" fill="#12153A"/>
<path fill-rule="evenodd" clip-rule="evenodd" d="M23.0761 16.5618L24.5716 7.5542H19.6831L16.6721 25.691H21.5606L22.8215 18.0959L21.9876 17.54C21.8219 17.4295 21.8373 17.1812 22.0155 17.0921L23.0761 16.5618Z" fill="#12153A"/>
<path fill-rule="evenodd" clip-rule="evenodd" d="M25.6737 25.1066C26.6301 25.6616 27.8345 25.9391 29.2869 25.9391C30.5503 25.9391 31.6809 25.7501 32.6787 25.3723C33.6823 24.9885 34.5266 24.4513 35.2115 23.7605C35.9022 23.0639 36.407 22.2432 36.7258 21.2986H32.2625C32.1208 21.5584 31.9318 21.7798 31.6957 21.9628C31.4654 22.1399 31.1997 22.2757 30.8986 22.3702C30.6035 22.4587 30.2905 22.503 29.9599 22.503C29.4758 22.503 29.0802 22.4056 28.7732 22.2107C28.4662 22.0159 28.2507 21.7473 28.1268 21.4049C28.0028 21.0624 27.9762 20.6728 28.0471 20.2359L28.0869 20.0233H36.9383L37.1155 18.8898C37.2926 17.8094 37.2926 16.8411 37.1155 15.9851C36.9442 15.1231 36.6136 14.3881 36.1236 13.78C35.6336 13.1719 34.9989 12.7084 34.2196 12.3896C33.4462 12.0708 32.5458 11.9114 31.5186 11.9114C30.1134 11.9114 28.8441 12.2036 27.7105 12.7881C26.5829 13.3726 25.6471 14.1903 24.9032 15.2412C24.6412 15.6143 24.4108 16.0097 24.2121 16.4275L25.4245 17.0337C25.5439 17.0934 25.5878 17.2206 25.5597 17.3312C25.5406 17.4059 25.4886 17.473 25.4048 17.5065L25.1707 17.6002L23.5814 18.2359C23.5279 18.4608 23.4815 18.6905 23.442 18.9252C23.194 20.3894 23.2649 21.6469 23.6545 22.6978C24.0442 23.7428 24.7173 24.5457 25.6737 25.1066ZM28.5935 17.3312H32.8646C32.9237 16.9415 32.8853 16.5991 32.7495 16.3039C32.6196 16.0028 32.41 15.7696 32.1208 15.6043C31.8374 15.4331 31.4949 15.3475 31.0935 15.3475C30.692 15.3475 30.3142 15.4331 29.9599 15.6043C29.6116 15.7755 29.3134 16.0146 29.0655 16.3216C28.8374 16.6109 28.68 16.9475 28.5935 17.3312Z" fill="#12153A"/>
<path d="M28.0939 7.34285C28.1479 7.12056 28.4422 7.07182 28.5649 7.26486L29.0089 7.96323C29.0449 8.01986 29.1014 8.06033 29.1666 8.07615L29.9708 8.27128C30.1931 8.32521 30.2418 8.61955 30.0488 8.74226L29.3504 9.18619C29.2938 9.22219 29.2533 9.27873 29.2375 9.34393L29.0424 10.1481C28.9884 10.3704 28.6941 10.4192 28.5714 10.2261L28.1275 9.52774C28.0915 9.47112 28.0349 9.43064 27.9697 9.41482L27.1655 9.2197C26.9432 9.16576 26.8945 8.87142 27.0875 8.74871L27.7859 8.30478C27.8425 8.26879 27.883 8.21225 27.8988 8.14704L28.0939 7.34285Z" fill="#12153A"/>
<path d="M31.8691 1.25341C31.923 1.03112 32.2173 0.982385 32.34 1.17542L33.6112 3.17512C33.6472 3.23175 33.7037 3.27222 33.7689 3.28804L36.0716 3.84676C36.2939 3.9007 36.3427 4.19503 36.1496 4.31774L34.1499 5.58889C34.0933 5.62488 34.0528 5.68142 34.037 5.74663L33.4783 8.04933C33.4243 8.27162 33.13 8.32036 33.0073 8.12732L31.7362 6.12763C31.7002 6.071 31.6436 6.03052 31.5784 6.0147L29.2757 5.45598C29.0534 5.40205 29.0047 5.10771 29.1977 4.985L31.1974 3.71386C31.254 3.67786 31.2945 3.62132 31.3103 3.55611L31.8691 1.25341Z" fill="#12153A"/>
</g>
</svg>
