<svg width="375" height="1403" viewBox="0 0 375 1403" fill="none" xmlns="http://www.w3.org/2000/svg">
<rect width="375" height="1403" fill="#12153A"/>
<mask id="mask0_175_8094" style="mask-type:luminance" maskUnits="userSpaceOnUse" x="0" y="0" width="375" height="1403">
<rect width="375" height="1403" fill="white"/>
</mask>
<g mask="url(#mask0_175_8094)">
<g opacity="0.501618">
<path opacity="0.3" d="M-751 1067.68C-751 1067.68 -412.443 1246.75 -51.6892 927.186C-51.6892 927.186 247.088 626.601 507.006 799.694C766.925 972.788 701.994 555.809 701.994 555.809" stroke="#6896D1"/>
<path opacity="0.3" d="M-751 1076.57C-751 1076.57 -412.443 1261.78 -51.6892 942.218C-51.6892 942.218 247.194 646.875 507.113 819.969C767.032 993.062 701.994 570.84 701.994 570.84" stroke="#6896D1"/>
<path opacity="0.3" d="M-751 1084.64C-751 1084.64 -412.443 1276.81 -51.6892 957.25C-51.6892 957.25 246.201 668.036 506.12 841.129C766.038 1014.22 701.994 585.873 701.994 585.873" stroke="#6896D1"/>
<path opacity="0.3" d="M-751 1093.86C-751 1093.86 -412.443 1289.84 -51.6892 970.278C-51.6892 970.278 245.657 687.719 505.576 860.813C765.494 1033.91 701.994 598.9 701.994 598.9" stroke="#6896D1"/>
<path opacity="0.3" d="M-751 1103.24C-751 1103.24 -412.443 1304.87 -51.6892 985.31C-51.6892 985.31 245.525 707.194 505.444 880.287C765.363 1053.38 701.994 613.932 701.994 613.932" stroke="#6896D1"/>
<path opacity="0.3" d="M-751 1112.3C-751 1112.3 -412.443 1317.9 -51.6892 998.338C-51.6892 998.338 245.507 726.944 505.426 900.037C765.345 1073.13 701.994 626.96 701.994 626.96" stroke="#6896D1"/>
<path opacity="0.3" d="M-751 1121.12C-751 1121.12 -412.817 1332.91 -51.6892 1009.36C-51.6892 1009.36 245.979 749.268 505.898 922.362C765.817 1095.46 701.994 637.984 701.994 637.984" stroke="#6896D1"/>
<path opacity="0.3" d="M-751 1006.61C-751 1006.61 -412.443 1154.08 -51.6892 834.52C-51.6892 834.52 247.088 484.296 507.006 657.39C766.925 830.483 701.994 413.504 701.994 413.504" stroke="#6896D1"/>
<path opacity="0.3" d="M-751 1014.92C-751 1014.92 -412.443 1169.11 -51.6892 849.552C-51.6892 849.552 247.194 504.571 507.113 677.665C767.032 850.758 701.994 428.536 701.994 428.536" stroke="#6896D1"/>
<path opacity="0.3" d="M-751 1023.48C-751 1023.48 -412.443 1184.15 -51.6892 864.585C-51.6892 864.585 246.201 525.732 506.12 698.825C766.038 871.919 701.994 443.568 701.994 443.568" stroke="#6896D1"/>
<path opacity="0.3" d="M-751 1032.18C-751 1032.18 -412.443 1197.17 -51.6892 877.612C-51.6892 877.612 245.657 545.415 505.576 718.509C765.494 891.602 701.994 456.596 701.994 456.596" stroke="#6896D1"/>
<path opacity="0.3" d="M-751 1040.07C-751 1040.07 -412.443 1212.21 -51.6892 892.645C-51.6892 892.645 245.525 564.89 505.444 737.983C765.363 911.077 701.994 471.628 701.994 471.628" stroke="#6896D1"/>
<path opacity="0.3" d="M-751 1049.77C-751 1049.77 -412.443 1225.23 -51.6892 905.672C-51.6892 905.672 245.507 584.64 505.426 757.733C765.345 930.827 701.994 484.656 701.994 484.656" stroke="#6896D1"/>
<path opacity="0.3" d="M-751 1058.16C-751 1058.16 -412.443 1236.26 -51.6892 916.696C-51.6892 916.696 245.979 606.964 505.898 780.058C765.817 953.151 701.994 495.68 701.994 495.68" stroke="#6896D1"/>
<path opacity="0.3" d="M-751 1193.15C-751 1193.15 -412.443 1443.6 -51.6892 1124.03C-51.6892 1124.03 247.088 911.209 507.006 1084.3C766.925 1257.4 701.994 840.417 701.994 840.417" stroke="#6896D1"/>
<path opacity="0.3" d="M-751 1202.04C-751 1202.04 -412.443 1458.63 -51.6892 1139.07C-51.6892 1139.07 247.194 931.484 507.113 1104.58C767.032 1277.67 701.994 855.449 701.994 855.449" stroke="#6896D1"/>
<path opacity="0.3" d="M-751 1210.11C-751 1210.11 -412.443 1473.66 -51.6892 1154.1C-51.6892 1154.1 246.201 952.645 506.12 1125.74C766.038 1298.83 701.994 870.481 701.994 870.481" stroke="#6896D1"/>
<path opacity="0.3" d="M-751 1219.34C-751 1219.34 -412.443 1486.69 -51.6892 1167.13C-51.6892 1167.13 245.657 972.328 505.576 1145.42C765.494 1318.52 701.994 883.509 701.994 883.509" stroke="#6896D1"/>
<path opacity="0.3" d="M-751 1228.72C-751 1228.72 -412.443 1501.72 -51.6892 1182.16C-51.6892 1182.16 245.525 991.803 505.444 1164.9C765.363 1337.99 701.994 898.542 701.994 898.542" stroke="#6896D1"/>
<path opacity="0.3" d="M-751 1237.77C-751 1237.77 -412.443 1514.75 -51.6892 1195.19C-51.6892 1195.19 245.507 1011.55 505.426 1184.65C765.345 1357.74 701.994 911.569 701.994 911.569" stroke="#6896D1"/>
<path opacity="0.3" d="M-751 1246.59C-751 1246.59 -412.443 1525.77 -51.6892 1206.21C-51.6892 1206.21 245.979 1033.88 505.898 1206.97C765.817 1380.06 701.994 922.593 701.994 922.593" stroke="#6896D1"/>
<path opacity="0.3" d="M-751 1132.08C-751 1132.08 -412.443 1350.93 -51.6892 1031.37C-51.6892 1031.37 247.088 768.905 507.006 941.998C766.925 1115.09 701.994 698.113 701.994 698.113" stroke="#6896D1"/>
<path opacity="0.3" d="M-751 1140.39C-751 1140.39 -412.443 1365.96 -51.6892 1046.4C-51.6892 1046.4 247.194 789.18 507.113 962.273C767.032 1135.37 701.994 713.145 701.994 713.145" stroke="#6896D1"/>
<path opacity="0.3" d="M-751 1148.95C-751 1148.95 -412.443 1380.99 -51.6892 1061.43C-51.6892 1061.43 246.201 810.34 506.12 983.434C766.038 1156.53 701.994 728.177 701.994 728.177" stroke="#6896D1"/>
<path opacity="0.3" d="M-751 1157.66C-751 1157.66 -412.443 1394.02 -51.6892 1074.46C-51.6892 1074.46 245.657 830.024 505.576 1003.12C765.494 1176.21 701.994 741.205 701.994 741.205" stroke="#6896D1"/>
<path opacity="0.3" d="M-751 1165.55C-751 1165.55 -412.443 1409.05 -51.6892 1089.49C-51.6892 1089.49 245.525 849.498 505.444 1022.59C765.363 1195.69 701.994 756.237 701.994 756.237" stroke="#6896D1"/>
<path opacity="0.3" d="M-751 901.398C-751 901.398 -420.817 946.888 -60.0634 627.326C-60.0634 627.326 247.088 241.778 507.006 414.871C766.925 587.965 701.994 170.985 701.994 170.985" stroke="#6896D1"/>
<path opacity="0.3" d="M-751 910.286C-751 910.286 -414.562 963.768 -53.8087 644.205C-53.8087 644.205 247.721 257.4 507.64 430.493C767.559 603.587 701.994 186.018 701.994 186.018" stroke="#6896D1"/>
<path opacity="0.3" d="M-751 918.358C-751 918.358 -417.687 991.476 -56.9339 671.914C-56.9339 671.914 244.897 278.759 504.816 451.853C764.735 624.946 701.994 201.05 701.994 201.05" stroke="#6896D1"/>
<path opacity="0.3" d="M-751 927.583C-751 927.583 -413.047 1008.52 -52.2939 688.956C-52.2939 688.956 245.657 302.897 505.576 475.99C765.494 649.084 701.994 214.078 701.994 214.078" stroke="#6896D1"/>
<path opacity="0.3" d="M-751 936.965C-751 936.965 -412.443 1031.29 -51.6892 711.732C-51.6892 711.732 245.525 322.371 505.444 495.465C765.363 668.558 701.994 229.11 701.994 229.11" stroke="#6896D1"/>
<path opacity="0.3" d="M-751 946.019C-751 946.019 -412.443 1044.32 -51.6892 724.76C-51.6892 724.76 245.507 342.121 505.426 515.215C765.345 688.308 701.994 242.138 701.994 242.138" stroke="#6896D1"/>
<path opacity="0.3" d="M-751 954.839C-751 954.839 -412.148 1061.24 -51.0203 737.7C-51.0203 737.7 245.979 364.446 505.898 537.539C765.817 710.633 701.994 253.161 701.994 253.161" stroke="#6896D1"/>
<path opacity="0.3" d="M-751 883.493C-751 883.493 -423.747 900.583 -62.9932 581.02C-62.9932 581.02 244.665 213.664 504.584 386.758C764.503 559.852 701.994 99.8334 701.994 99.8334" stroke="#6896D1"/>
<path opacity="0.3" d="M-751 891.884C-751 891.884 -420.854 921.516 -60.1003 601.954C-60.1003 601.954 248.031 226.688 507.95 399.781C767.869 572.875 701.994 110.857 701.994 110.857" stroke="#6896D1"/>
<path opacity="0.3" d="M-751 965.8C-751 965.8 -414.774 1075.81 -54.02 756.251C-54.02 756.251 247.088 384.082 507.006 557.176C766.925 730.269 701.994 313.29 701.994 313.29" stroke="#6896D1"/>
<path opacity="0.3" d="M-751 974.114C-751 974.114 -412.443 1092.38 -51.6892 772.822C-51.6892 772.822 247.194 404.357 507.113 577.45C767.032 750.544 701.994 328.322 701.994 328.322" stroke="#6896D1"/>
<path opacity="0.3" d="M-751 982.67C-751 982.67 -412.443 1107.42 -51.6892 787.854C-51.6892 787.854 246.201 425.517 506.12 598.611C766.038 771.705 701.994 343.354 701.994 343.354" stroke="#6896D1"/>
<path opacity="0.3" d="M-751 991.378C-751 991.378 -412.443 1120.44 -51.6892 800.882C-51.6892 800.882 245.657 445.201 505.576 618.294C765.494 791.388 701.994 356.382 701.994 356.382" stroke="#6896D1"/>
<path opacity="0.3" d="M-751 999.267C-751 999.267 -412.443 1135.48 -51.6892 815.914C-51.6892 815.914 245.525 464.675 505.444 637.769C765.363 810.862 701.994 371.414 701.994 371.414" stroke="#6896D1"/>
<path opacity="0.3" d="M-751 824.349C-751 824.349 -412.443 850.434 -51.6892 530.871C-51.6892 530.871 247.088 180.647 507.006 353.741C766.925 526.834 701.994 109.855 701.994 109.855" stroke="#6896D1"/>
<path opacity="0.3" d="M-751 832.664C-751 832.664 -412.443 865.465 -51.6892 545.903C-51.6892 545.903 247.194 200.922 507.113 374.015C767.032 547.109 701.994 124.887 701.994 124.887" stroke="#6896D1"/>
<path opacity="0.3" d="M-751 719.141C-751 719.141 -412.443 669.521 -51.6892 349.958C-51.6892 349.958 247.088 -61.8717 507.006 111.222C766.925 284.315 701.994 -132.664 701.994 -132.664" stroke="#6896D1"/>
<path opacity="0.3" d="M-751 728.029C-751 728.029 -412.443 684.553 -51.6892 364.99C-51.6892 364.99 247.194 -41.5968 507.113 131.497C767.032 304.59 701.994 -117.632 701.994 -117.632" stroke="#6896D1"/>
<path opacity="0.3" d="M-751 736.101C-751 736.101 -412.443 699.585 -51.6892 380.023C-51.6892 380.023 246.201 -20.4362 506.12 152.657C766.038 325.751 701.994 -102.599 701.994 -102.599" stroke="#6896D1"/>
<path opacity="0.3" d="M-751 745.325C-751 745.325 -412.443 712.613 -51.6892 393.051C-51.6892 393.051 245.657 -0.752764 505.576 172.341C765.494 345.434 701.994 -89.5717 701.994 -89.5717" stroke="#6896D1"/>
<path opacity="0.3" d="M-751 754.708C-751 754.708 -412.443 727.645 -51.6892 408.083C-51.6892 408.083 245.525 18.7219 505.444 191.815C765.363 364.909 701.994 -74.5394 701.994 -74.5394" stroke="#6896D1"/>
<path opacity="0.3" d="M-751 763.762C-751 763.762 -412.443 740.673 -51.6892 421.111C-51.6892 421.111 245.507 38.4718 505.426 211.565C765.345 384.659 701.994 -61.5116 701.994 -61.5116" stroke="#6896D1"/>
<path opacity="0.3" d="M-751 772.582C-751 772.582 -412.817 755.678 -51.6892 432.134C-51.6892 432.134 245.979 60.7963 505.898 233.89C765.817 406.983 701.994 -50.4882 701.994 -50.4882" stroke="#6896D1"/>
<path opacity="0.3" d="M-751 666.384C-751 666.384 -414.006 590.262 -53.2525 270.7C-53.2525 270.7 255.416 -179.429 515.335 -6.33524C775.254 166.758 701.994 -259.936 701.994 -259.936" stroke="#6896D1"/>
<path opacity="0.3" d="M-751 674.939C-751 674.939 -412.443 606.92 -51.6892 287.357C-51.6892 287.357 246.201 -162.741 506.12 10.353C766.038 183.447 701.994 -244.904 701.994 -244.904" stroke="#6896D1"/>
<path opacity="0.3" d="M-751 683.648C-751 683.648 -412.443 619.947 -51.6892 300.385C-51.6892 300.385 245.657 -143.057 505.576 30.0364C765.494 203.13 701.994 -231.876 701.994 -231.876" stroke="#6896D1"/>
<path opacity="0.3" d="M-751 691.537C-751 691.537 -412.443 634.98 -51.6892 315.417C-51.6892 315.417 245.525 -123.582 505.444 49.5111C765.363 222.605 701.994 -216.844 701.994 -216.844" stroke="#6896D1"/>
<path opacity="0.3" d="M-751 701.235C-751 701.235 -412.443 648.008 -51.6892 328.445C-51.6892 328.445 245.507 -103.832 505.426 69.2611C765.345 242.355 701.994 -203.816 701.994 -203.816" stroke="#6896D1"/>
<path opacity="0.3" d="M-751 709.627C-751 709.627 -412.443 659.031 -51.6892 339.469C-51.6892 339.469 245.979 -81.5081 505.898 91.5855C765.817 264.679 701.994 -192.792 701.994 -192.792" stroke="#6896D1"/>
<path opacity="0.3" d="M-751 650.087C-751 650.087 -409.419 569.083 -48.666 249.521C-48.666 249.521 241.069 -178.513 500.988 -5.41948C760.907 167.674 701.994 -238.891 701.994 -238.891" stroke="#6896D1"/>
<path opacity="0.3" d="M-751 589.016C-751 589.016 -412.443 470.628 -51.6892 151.066C-51.6892 151.066 247.088 -310.403 507.006 -137.31C766.925 35.784 701.994 -381.195 701.994 -381.195" stroke="#6896D1"/>
<path opacity="0.3" d="M-751 597.33C-751 597.33 -412.443 485.66 -51.6892 166.098C-51.6892 166.098 247.194 -290.128 507.113 -117.035C767.032 56.0589 701.994 -366.163 701.994 -366.163" stroke="#6896D1"/>
<path opacity="0.3" d="M-751 605.886C-751 605.886 -412.443 500.693 -51.6892 181.13C-51.6892 181.13 246.201 -268.968 506.12 -95.874C766.038 77.2195 701.994 -351.131 701.994 -351.131" stroke="#6896D1"/>
<path opacity="0.3" d="M-751 614.594C-751 614.594 -412.443 513.72 -51.6892 194.158C-51.6892 194.158 245.657 -249.284 505.576 -76.1906C765.494 96.9029 701.994 -338.103 701.994 -338.103" stroke="#6896D1"/>
<path opacity="0.3" d="M-751 622.484C-751 622.484 -412.443 528.753 -51.6892 209.19C-51.6892 209.19 245.525 -229.81 505.444 -56.7161C765.363 116.377 701.994 -323.071 701.994 -323.071" stroke="#6896D1"/>
<path opacity="0.3" d="M-751 632.181C-751 632.181 -412.443 541.78 -51.6892 222.218C-51.6892 222.218 245.507 -210.06 505.426 -36.9662C765.345 136.127 701.994 -310.043 701.994 -310.043" stroke="#6896D1"/>
<path opacity="0.3" d="M-751 640.573C-751 640.573 -412.443 552.804 -51.6892 233.241C-51.6892 233.241 245.979 -187.735 505.898 -14.6416C765.817 158.452 701.994 -299.02 701.994 -299.02" stroke="#6896D1"/>
<path opacity="0.3" d="M-751 783.543C-751 783.543 -412.443 773.703 -51.6892 454.14C-51.6892 454.14 247.088 80.4327 507.006 253.526C766.925 426.62 701.994 9.64038 701.994 9.64038" stroke="#6896D1"/>
<path opacity="0.3" d="M-751 791.857C-751 791.857 -412.443 788.735 -51.6892 469.172C-51.6892 469.172 247.194 100.708 507.113 273.801C767.032 446.895 701.994 24.6726 701.994 24.6726" stroke="#6896D1"/>
<path opacity="0.3" d="M-751 800.412C-751 800.412 -412.443 803.767 -51.6892 484.205C-51.6892 484.205 246.201 121.868 506.12 294.962C766.038 468.055 701.994 39.7048 701.994 39.7048" stroke="#6896D1"/>
<path opacity="0.3" d="M-751 809.121C-751 809.121 -412.443 816.795 -51.6892 497.232C-51.6892 497.232 245.657 141.552 505.576 314.645C765.494 487.739 701.994 52.7327 701.994 52.7327" stroke="#6896D1"/>
<path opacity="0.3" d="M-751 817.01C-751 817.01 -412.443 831.827 -51.6892 512.265C-51.6892 512.265 245.525 161.026 505.444 334.12C765.363 507.213 701.994 67.7649 701.994 67.7649" stroke="#6896D1"/>
<path opacity="0.3" d="M-751 1175.25C-751 1175.25 -412.443 1422.08 -51.6892 1102.52C-51.6892 1102.52 245.507 869.248 505.426 1042.34C765.345 1215.44 701.994 769.265 701.994 769.265" stroke="#6896D1"/>
<path opacity="0.3" d="M-751 1183.64C-751 1183.64 -412.443 1433.11 -51.6892 1113.54C-51.6892 1113.54 245.979 891.573 505.898 1064.67C765.817 1237.76 701.994 780.288 701.994 780.288" stroke="#6896D1"/>
<path opacity="0.3" d="M-751 1316.41C-751 1316.41 -412.443 1631.29 -51.6892 1311.73C-51.6892 1311.73 247.088 1195.82 507.006 1368.91C766.925 1542 701.994 1125.03 701.994 1125.03" stroke="#6896D1"/>
<path opacity="0.3" d="M-751 1325.3C-751 1325.3 -412.443 1646.32 -51.6892 1326.76C-51.6892 1326.76 247.194 1216.09 507.113 1389.19C767.032 1562.28 701.994 1140.06 701.994 1140.06" stroke="#6896D1"/>
<path opacity="0.3" d="M-751 1333.37C-751 1333.37 -412.443 1661.36 -51.6892 1341.79C-51.6892 1341.79 246.201 1237.25 506.12 1410.35C766.038 1583.44 701.994 1155.09 701.994 1155.09" stroke="#6896D1"/>
<path opacity="0.3" d="M-751 1342.6C-751 1342.6 -412.443 1674.38 -51.6892 1354.82C-51.6892 1354.82 245.657 1256.94 505.576 1430.03C765.494 1603.12 701.994 1168.12 701.994 1168.12" stroke="#6896D1"/>
<path opacity="0.3" d="M-751 1351.98C-751 1351.98 -412.443 1689.42 -51.6892 1369.85C-51.6892 1369.85 245.525 1276.41 505.444 1449.5C765.363 1622.6 701.994 1183.15 701.994 1183.15" stroke="#6896D1"/>
<path opacity="0.3" d="M-751 1361.03C-751 1361.03 -412.443 1702.44 -51.6892 1382.88C-51.6892 1382.88 245.507 1296.16 505.426 1469.25C765.345 1642.35 701.994 1196.18 701.994 1196.18" stroke="#6896D1"/>
<path opacity="0.3" d="M-751 1369.85C-751 1369.85 -412.443 1713.47 -51.6892 1393.9C-51.6892 1393.9 245.979 1318.49 505.898 1491.58C765.817 1664.67 701.994 1207.2 701.994 1207.2" stroke="#6896D1"/>
<path opacity="0.3" d="M-751 1255.34C-751 1255.34 -412.443 1538.63 -51.6892 1219.06C-51.6892 1219.06 247.088 1053.51 507.006 1226.61C766.925 1399.7 701.994 982.721 701.994 982.721" stroke="#6896D1"/>
<path opacity="0.3" d="M-751 1263.66C-751 1263.66 -412.443 1553.66 -51.6892 1234.1C-51.6892 1234.1 247.194 1073.79 507.113 1246.88C767.032 1419.98 701.994 997.753 701.994 997.753" stroke="#6896D1"/>
<path opacity="0.3" d="M-751 1272.21C-751 1272.21 -412.443 1568.69 -51.6892 1249.13C-51.6892 1249.13 246.201 1094.95 506.12 1268.04C766.038 1441.14 701.994 1012.79 701.994 1012.79" stroke="#6896D1"/>
<path opacity="0.3" d="M-751 1280.92C-751 1280.92 -412.443 1581.72 -51.6892 1262.16C-51.6892 1262.16 245.657 1114.63 505.576 1287.73C765.494 1460.82 701.994 1025.81 701.994 1025.81" stroke="#6896D1"/>
<path opacity="0.3" d="M-751 1288.81C-751 1288.81 -412.443 1596.75 -51.6892 1277.19C-51.6892 1277.19 245.525 1134.11 505.444 1307.2C765.363 1480.29 701.994 1040.85 701.994 1040.85" stroke="#6896D1"/>
<path opacity="0.3" d="M-751 1298.51C-751 1298.51 -412.443 1609.78 -51.6892 1290.22C-51.6892 1290.22 245.507 1153.86 505.426 1326.95C765.345 1500.04 701.994 1053.87 701.994 1053.87" stroke="#6896D1"/>
<path opacity="0.3" d="M-751 1306.9C-751 1306.9 -412.443 1620.8 -51.6892 1301.24C-51.6892 1301.24 245.979 1176.18 505.898 1349.27C765.817 1522.37 701.994 1064.9 701.994 1064.9" stroke="#6896D1"/>
</g>
</g>
</svg>
