<svg width="23" height="21" viewBox="0 0 23 21" fill="none" xmlns="http://www.w3.org/2000/svg">
<path fill-rule="evenodd" clip-rule="evenodd" d="M21.8747 0.752746C21.0375 1.34768 20.0686 1.77047 19.0468 2.02616C18.1971 0.980683 16.9953 0.386086 15.736 0.388189C13.2377 0.388189 11.2121 2.67933 11.2121 5.47679C11.2121 5.88185 11.2504 6.27426 11.2909 6.66666C7.56602 6.43882 4.23501 4.4135 2.00121 1.31224C1.61304 2.09235 1.39187 2.9635 1.35526 3.85654C1.40027 5.66666 2.18801 7.22362 3.38088 8.13502C2.67191 8.12236 1.9742 7.89451 1.36651 7.50211V7.60337C1.36651 10.0464 2.91949 12.1097 5.00137 12.6034C4.61875 12.692 4.21363 12.7553 3.79725 12.7806C3.51592 12.7553 3.23458 12.7299 2.98701 12.692C3.53842 14.692 5.20393 16.1603 7.19578 16.2363C5.56789 17.6223 3.58808 18.3853 1.54657 18.4135C1.20897 18.3755 0.848856 18.3629 0.5 18.3249C2.56914 19.8009 4.96959 20.5825 7.41973 20.578C15.7315 20.578 20.2824 12.8186 20.2644 6.12995C20.2813 5.86413 20.2756 5.64894 20.2644 5.39831C21.1612 4.69155 21.929 3.79774 22.5263 2.7654C21.7105 3.19582 20.8371 3.47168 19.9414 3.58186C20.8799 2.94909 21.5713 1.94085 21.877 0.759075" fill="#12153A"/>
</svg>
